<?xml version="1.0" encoding="UTF-8"?>
<svg width="80px" height="80px" viewBox="0 0 80 80" version="1.1" xmlns="http://www.w3.org/2000/svg" xmlns:xlink="http://www.w3.org/1999/xlink">
    <!-- Generator: Sketch 52.4 (67378) - http://www.bohemiancoding.com/sketch -->
    <title>mdpi/Group</title>
    <desc>Created with Sketch.</desc>
    <g id="Page-1" stroke="none" stroke-width="1" fill="none" fill-rule="evenodd">
        <g id="Group">
            <circle id="Oval-Copy" fill="#D0021B" fill-rule="nonzero" cx="40" cy="40" r="40"></circle>
            <g id="iconfinder_Sed-22_2236328" transform="translate(40.000000, 40.500000) scale(-1, 1) translate(-40.000000, -40.500000) translate(19.000000, 17.000000)" fill="#FFFFFF">
                <path d="M40.4877709,27.1665364 C40.0077109,26.7004509 39.4968764,26.3685936 38.9207891,26.1635191 C36.6677182,24.6123827 35.1632018,22.7871964 34.3242327,20.5835327 C34.31841,20.5683936 34.3060582,20.5586 34.2993,20.5441482 L31.7849891,14.01731 C30.2469109,10.0014991 27.2005555,6.81347 23.2117964,5.04607182 C20.6292164,3.88994545 17.8650818,3.46534455 15.1786855,3.74697364 L15.1345282,3.63290545 C14.7113209,2.52922182 13.8789,1.65483909 12.7919782,1.17197273 C11.7050564,0.689106364 10.4969645,0.655544545 9.39700364,1.08062273 C8.29423636,1.50570091 7.42078909,2.33718636 6.93700636,3.42410818 C6.45414,4.51103 6.42151364,5.71539909 6.84565636,6.81908273 L6.88248273,6.91497636 C1.13993727,11.2752255 -1.06918636,18.8815209 1.52946818,25.6228836 L4.05531,32.2188309 C4.05624545,32.2212745 4.05565364,32.2239664 4.05658909,32.22641 C4.87597091,34.3871955 4.98876,36.7847464 4.39310455,39.3519391 C3.74523545,40.4202091 3.62125909,41.7327091 4.06590545,42.8886064 C4.06968545,42.8984 4.07348455,42.9081745 4.07732182,42.9179109 C4.63309636,44.3275455 6.32915182,44.9168627 7.7448,44.37659 L39.7417745,32.1653382 C41.1899918,31.6125991 41.9171073,29.9915518 41.3668118,28.5424182 C41.1412336,27.9588855 40.8159055,27.5394009 40.4877709,27.1665364 Z M5.91627273,23.6932509 C5.87339455,23.7007155 5.83051636,23.7044382 5.78857364,23.7044382 C5.47536818,23.7044382 5.19570545,23.4825827 5.13325909,23.1637836 C4.98597273,22.3994027 4.90393909,21.6182409 4.8909,20.83895 C4.88530636,20.4698082 5.17894364,20.1659191 5.54808545,20.1603255 C5.55180818,20.1603255 5.55555,20.1603255 5.55927273,20.1603255 C5.92375636,20.1603255 6.22111636,20.4511564 6.22764545,20.8165755 C6.23883273,21.5175745 6.31246636,22.2222964 6.44577818,22.9102373 C6.51565091,23.2719145 6.27888545,23.6224236 5.91627273,23.6932509 Z M11.4142255,10.6036836 C10.5268036,11.2338364 9.72511909,11.9795655 9.03158455,12.8203864 C7.90552636,14.1888227 7.07308636,15.8163991 6.62378182,17.5278609 C6.54547091,17.8280273 6.27420818,18.0256373 5.97778364,18.0256373 C5.92184727,18.0256373 5.86499455,18.0200436 5.80812273,18.0051336 C5.45110364,17.9100609 5.23762909,17.5465127 5.33178545,17.1885582 C5.82862636,15.2925255 6.75148091,13.4878236 8.00059909,11.9702491 C8.76870273,11.0380782 9.65707909,10.2121673 10.64238,9.51491 C10.9406755,9.29864818 11.3592245,9.36949455 11.5736155,9.67338364 C11.78709,9.97353091 11.7153082,10.3911445 11.4142255,10.6036836 Z" id="Shape" fill-rule="nonzero"></path>
                <path d="M23.0601,39.9779873 L21.8122609,40.4578182 L13.8181718,43.5318936 L12.5703327,44.01161 C13.1333618,45.0611136 14.0093673,45.90182 15.1289155,46.3916736 C15.8299145,46.6992855 16.5709855,46.8521655 17.3139273,46.8521655 C17.9720482,46.8521655 18.6310855,46.7328473 19.2621736,46.4886173 L19.7543564,46.3003236 C21.0966764,45.7838955 22.1630945,44.7734327 22.7568791,43.4590618 C23.2583018,42.3462909 23.3449936,41.1344573 23.0601,39.9779873 Z" id="Path"></path>
            </g>
        </g>
    </g>
</svg>