<?xml version="1.0" encoding="UTF-8"?>
<svg width="38px" height="38px" viewBox="0 0 38 38" version="1.1" xmlns="http://www.w3.org/2000/svg" xmlns:xlink="http://www.w3.org/1999/xlink">
    <!-- Generator: Sketch 52.6 (67491) - http://www.bohemiancoding.com/sketch -->
    <title>BJP Copy</title>
    <desc>Created with Sketch.</desc>
    <defs>
        <rect id="path-1" x="0" y="-1.42108547e-14" width="36" height="36" rx="18"></rect>
    </defs>
    <g id="Page-1" stroke="none" stroke-width="1" fill="none" fill-rule="evenodd">
        <g id="Results" transform="translate(-93.000000, -945.000000)">
            <g id="Group-8" transform="translate(16.000000, 934.000000)">
                <g id="BJP-Copy" transform="translate(78.000000, 12.000000)">
                    <g>
                        <mask id="mask-2" fill="white">
                            <use xlink:href="#path-1"></use>
                        </mask>
                        <rect stroke="#FFFFFF" x="-0.5" y="-0.5" width="37" height="37" rx="18.5"></rect>
                        <path d="M36,18 C36,27.9411202 27.9411202,36 18,36 C8.05887982,36 0,27.9411202 0,18 C0,8.05887982 8.05887982,0 18,0 C27.9411202,0 36,8.05887982 36,18" id="Fill-439" fill="#FCD6C3" mask="url(#mask-2)"></path>
                        <polyline id="Fill-440" fill="#E86105" mask="url(#mask-2)" points="6.27122381 7.22381477 8.49393605 7.81918412 9.49117971 8.69656009 10.4388093 9.4862183 11.3517089 10.5578831 11.8280044 9.64498346 11.8280044 8.89084895 11.1135612 7.22381477 11.5104741 6.78721058 12.3439912 7.02535832 14.4079383 8.45424476 15.4796031 10.1609702 15.7971334 10.5578831 16.7100331 9.20837927 18.2183021 6.66813671 18.9724366 7.77949283 20.2425579 10.2006615 21.5920617 8.17640573 24.4895259 6.54906284 24.6482911 7.30319735 24.4498346 8.53362734 24.7673649 11.2723264 25.7993385 9.12899669 28.0220507 7.46196251 30.3638368 7.14443219 29.3715546 9.04961411 29.0540243 12.7012128 29.1334068 15.3208379 28.5777288 16.7894157 27.9426681 17.9404631 26.8710033 19.1312018 25.7993385 19.7662624 24.2116869 20.0837927 22.7828004 20.0837927 21.6714443 20.3219405 20.6394708 20.3219405 19.2105843 20.6791621 17.3054024 20.6791621 15.7971334 20.1631753 14.4476295 19.9647189 12.8996692 19.0518192 11.9867696 19.3693495 10.1212789 19.2502756 8.77177508 17.9007718 7.54134509 15.7574421 7.14443219 13.1775083 6.74751929 10.4388093 6.03307607 8.33517089 5.67585447 7.22381477 6.27122381 7.22381477"></polyline>
                        <polyline id="Fill-441" fill="#32770A" mask="url(#mask-2)" points="9.0893054 20.6791621 10.399118 19.5281147 11.1532525 19.5281147 12.5821389 19.2899669 13.0981257 19.2899669 14.0904079 19.6471885 16.2337376 20.3219405 18.4167585 20.6791621 19.5858655 20.5853716 21.3154135 20.3219405 22.7828004 19.9647189 23.7750827 20.0441014 25.0848953 19.9845645 26.4740904 19.6471885 27.1488423 20.2028666 27.7045204 21.076075 27.7045204 21.353914 26.9503859 21.353914 26.1168688 21.7508269 25.2436604 22.1874311 24.4498346 22.862183 23.0606395 23.1797133 21.1157663 23.1797133 20.2028666 23.4575524 18.8136714 24.8070562 18.0198456 25.1245865 17.4244763 24.6085998 15.6780595 23.1400221 14.923925 22.9812569 13.3759647 23.1003308 11.8280044 22.6637266 10.6372657 21.8302095 9.0893054 21.5920617 8.81146637 21.3142227 9.0893054 20.6791621"></polyline>
                        <path d="M15.4379272,30.9195149 C14.96957,30.9195149 14.4948622,30.9195149 14.0205513,30.9195149 C14.4535832,31.3595653 15.2216097,31.2773581 15.4379272,30.9195149 Z M30.800441,7.06068357 C30.6809702,7.27104741 30.5797574,7.49490628 30.4392503,7.69058434 C29.6434399,8.79836825 29.3398015,10.0153032 29.4362514,11.3838589 C29.5184123,12.5472106 29.5692172,13.7343771 29.4291069,14.8858214 C29.2286659,16.5334068 28.4475413,17.9567365 27.2444983,19.1188975 C26.9650717,19.3887982 26.986505,19.5344653 27.2405292,19.8321499 C27.5870342,20.2377949 27.8533627,20.7236163 28.0899228,21.2066593 C28.1835943,21.3979713 28.1054024,21.673032 28.1054024,21.909989 C28.0549945,21.9278501 28.0041896,21.9457111 27.9537817,21.9635722 C26.9738037,21.3344653 26.1910915,21.8075854 25.4837927,22.4180375 C24.283925,23.4535832 22.9645865,23.7806395 21.4301213,23.3337155 C20.8454686,23.1634399 20.3675854,23.5349504 19.9512238,23.8901874 C19.4344432,24.3311577 19.1851819,24.908269 19.1379493,25.6068357 C19.0565821,26.8170232 18.9426681,28.0276075 18.7751709,29.2286659 C18.7072988,29.7121058 18.4620066,30.1709372 18.2714884,30.7162955 C18.6596692,30.6861301 19.0077619,30.631753 19.3538699,30.6440573 C19.5042999,30.6496141 19.6499669,30.7917089 19.7980154,30.8718853 C19.6650496,31.0004851 19.5408159,31.2263286 19.3975303,31.2390298 C18.956957,31.2787211 18.5076516,31.2557001 18.0650937,31.2199779 C17.6737376,31.1882249 17.503462,30.8655347 17.6919956,30.5206174 C18.4576406,29.1207056 18.4520838,27.583065 18.4901874,26.056538 C18.4937596,25.924366 18.3175303,25.7874311 18.2246527,25.6528776 C18.1512238,25.787828 18.0265932,25.9180154 18.0123043,26.0593164 C17.9075193,27.0889085 17.9261742,28.1423153 17.7146196,29.1476957 C17.2450717,31.3755678 15.5133407,31.8332084 13.7085777,31.4239912 C13.5716428,31.393032 13.370011,31.2457773 13.3628666,31.1413892 C13.3533407,31.0004851 13.4732084,30.7555899 13.5895039,30.718677 C13.9606174,30.6011907 14.3535612,30.5241896 14.7421389,30.4987872 C15.0481588,30.4789416 15.3621169,30.5476075 15.6697244,30.595634 C16.1924587,30.677398 16.5445204,30.486086 16.7814774,30.0062183 C17.498699,28.5562955 17.7340684,27.0515987 17.3292172,25.4726792 C17.1367144,24.7209261 16.7136053,24.1307166 16.0090849,23.764366 C15.8515105,23.6822051 15.6994928,23.586946 15.5542227,23.4841455 C15.2033517,23.2348842 14.8822492,23.163043 14.4123043,23.2829107 C13.333892,23.5579713 12.3400221,23.2015436 11.4191841,22.6093495 C11.0226681,22.3541345 10.6142448,22.0810584 10.1716869,21.9445204 C9.7970011,21.8290187 9.35364939,21.8333848 8.96189636,21.9036384 C8.57450937,21.9730981 8.49909592,21.8345755 8.53005513,21.5241896 C8.58998897,20.9236604 8.94721058,20.4886439 9.37071665,20.1020507 C9.587828,19.9039912 9.82597574,19.7289526 10.0732525,19.5285116 C10.0232415,19.467387 9.9970452,19.4078501 9.95259096,19.3848291 C8.47409041,18.6279162 7.70725469,17.320882 7.19722161,15.8181698 C6.81618523,14.696097 6.67567806,13.5359206 6.67845645,12.3558986 C6.68242558,10.5749504 6.25455347,8.92061742 5.25155458,7.43060639 C5.02293275,7.09164278 5.06699008,6.96105843 5.47263506,6.89199559 C6.49270121,6.71933848 7.446086,6.97415656 8.35858875,7.41195149 C9.36873208,7.89658214 10.1800221,8.62650496 10.8781918,9.49137817 C10.9885336,9.62751929 11.1000662,9.76286659 11.269151,9.97005513 C11.5287321,9.33896362 11.5084895,8.77693495 11.2766924,8.24189636 C11.0488644,7.71638368 10.7480044,7.22222712 10.4451599,6.64987872 C10.6170232,6.61455347 10.7769791,6.55422271 10.936935,6.55303197 C12.0721058,6.54429989 13.07828,6.95708931 13.9133848,7.67867696 C14.5452701,8.22482911 15.0576847,8.90950386 15.6177288,9.53742007 C15.7225138,9.6553032 15.8014994,9.79620728 15.9094598,9.95060639 C16.7001103,8.62055127 17.4657552,7.33256891 18.2877619,5.94972437 C19.1911356,7.0368688 19.6515546,8.21490628 20.2893936,9.38341786 C20.4795149,9.16511577 20.6307387,8.99523705 20.7775965,8.82218302 C21.6948622,7.73980154 22.7315987,6.83007718 24.1557222,6.47841235 C24.2422492,6.45737596 24.3287762,6.43475193 24.4168908,6.42284454 C25.1448291,6.32361632 25.2968467,6.50024256 25.0118633,7.15514884 C24.6633738,7.9569129 24.6205072,8.79201764 24.6871885,9.64379272 C24.6939361,9.73071665 24.7244983,9.81644983 24.7502977,9.90099228 C24.7629989,9.94187431 24.7895921,9.97878721 24.844366,10.0831753 C24.9896362,9.87916207 25.0876736,9.73944873 25.1880926,9.60171996 C26.3196913,8.04145535 27.7509592,6.97653804 29.7470342,6.84635061 C29.8212569,6.84158765 29.8994487,6.82015436 29.9685116,6.83722161 C30.2475413,6.90509372 30.5233958,6.98487321 30.800441,7.06068357 Z M7.40679162,13.3076957 C7.42028666,15.2331202 8.1601323,16.8533186 9.5445645,18.1790077 C10.2157442,18.8216097 11.0103638,19.1843881 11.9613671,19.0978611 C12.1649835,19.0796031 12.363043,18.997839 12.4682249,18.9700551 C12.0367806,18.054774 11.5545314,17.2319735 11.2516869,16.3476516 C10.6674311,14.6409261 10.7027563,12.8786329 11.0091731,11.1139581 C11.04172,10.9258214 11.0353693,10.6717971 10.9337596,10.5285116 C10.0284013,9.25323043 8.89362734,8.25499449 7.36868798,7.787828 C6.972172,7.66637266 6.54668137,7.63858875 6.07038589,7.5568247 C6.3938699,8.30976847 6.70028666,8.90434399 6.90787211,9.53146637 C7.31232635,10.7531643 7.39805954,12.025667 7.40679162,13.3076957 Z M11.4846748,7.37424476 C12.2177729,8.48599779 12.1586329,9.68864388 11.8367365,10.8932745 C11.4894377,12.1903859 11.4009261,13.4954355 11.5763616,14.8179493 C11.7863286,16.3964719 12.4090849,17.7824917 13.5954576,18.8779713 C14.0796913,19.3252922 14.6373539,19.6491731 15.4014112,19.8329438 C15.3125028,19.6408379 15.2819405,19.5451819 15.2287541,19.4638148 C14.2507607,17.9718192 13.966968,16.318677 14.2956119,14.6040132 C14.5147078,13.4620948 14.9544873,12.363043 15.2847189,11.2417641 C15.3359206,11.06871 15.4113341,10.831753 15.3379052,10.7039471 C14.5809923,9.39334068 13.6974642,8.18831312 12.3154135,7.46116869 C12.0649614,7.32939361 11.7787872,7.26509372 11.4684013,7.15514884 C11.4771334,7.29208379 11.4648291,7.34368247 11.4846748,7.37424476 Z M14.8195369,15.0759427 C14.5964719,16.6020728 14.8028666,18.0305623 15.8558765,19.2490849 C17.3236604,20.9466814 19.6392503,20.8045865 20.8768247,18.9383021 C21.5202205,17.9678501 21.704785,16.8934068 21.6329438,15.7550606 C21.4872767,13.4426461 20.6982139,11.3322602 19.5999559,9.3230871 C19.2328115,8.6523043 18.8172437,8.00811466 18.423903,7.35162073 C18.3663506,7.35122381 18.3087982,7.35042999 18.2516428,7.35003308 C17.8841014,7.93627343 17.5010805,8.51338479 17.152194,9.11034179 C16.0626681,10.9758324 15.1358765,12.909989 14.8195369,15.0759427 Z M15.2644763,21.7024035 C15.2823374,22.351753 15.6431312,22.7442999 16.113473,23.1106505 C16.6215215,23.5067696 17.1085336,23.9401985 17.5499008,24.4089526 C18.036516,24.926527 18.6136273,24.9543109 18.9275854,24.3335391 C19.2800441,23.636957 19.8035722,23.2198015 20.5049173,22.9193385 C21.3058875,22.5764057 21.5884895,21.6777949 21.1872106,20.9855788 C21.0109813,20.6819405 20.78871,20.5422271 20.4156119,20.6712238 C19.0339581,21.1491069 17.6419846,21.1082249 16.2611246,20.6712238 C15.8812789,20.5509592 15.6502756,20.6791621 15.4994487,20.993914 C15.3930761,21.2165821 15.3410805,21.4654465 15.2644763,21.7024035 Z M21.9302315,13.3787431 C22.5926792,15.5919294 22.5414774,17.7451819 21.1483131,19.7194267 C21.0836163,19.8111136 21.0478942,19.9234399 20.9633517,20.0996692 C21.1233076,20.0996692 21.1955458,20.1056229 21.2661963,20.0980816 C21.3689967,20.086968 21.4733848,20.0754576 21.5730099,20.0488644 C23.3686439,19.5689967 24.4510254,18.3631753 24.8713561,16.6060419 C25.2345314,15.0902315 24.9991621,13.5728335 24.6220948,12.0744873 C24.2406615,10.5574862 23.6889526,9.04167585 24.3855347,7.46553473 C24.3938699,7.44648291 24.3676736,7.4123484 24.338699,7.33495039 C24.2120838,7.34844542 24.0684013,7.3476516 23.933054,7.38099228 C22.4783682,7.73781698 21.5198236,8.7170011 20.7783903,9.94584344 C20.7037707,10.0696803 20.7641014,10.3114002 20.825226,10.4745314 C21.1876075,11.4449835 21.6337376,12.3892393 21.9302315,13.3787431 Z M12.8623594,19.6737817 C12.4837045,19.7281588 12.0717089,19.9071665 11.7327453,19.8150827 C10.7091069,19.5372437 10.1518412,20.1405513 9.596957,20.7958545 C9.5044763,20.9050055 9.47232635,21.0657552 9.37627343,21.2848512 C10.357839,21.1098126 11.0306064,21.5281588 11.6970232,22.0381918 C12.4396472,22.6065711 13.3013451,22.8617861 14.245204,22.7304079 C14.4460419,22.7022271 14.7496803,22.6958765 14.6849835,22.3624697 C14.5460639,21.6444542 14.5988534,20.9780375 15.1696141,20.3826681 C14.5031974,20.1004631 13.9264829,19.8404851 13.3354796,19.6186108 C13.2033076,19.5689967 13.0211246,19.6507607 12.8623594,19.6737817 Z M21.9357883,22.8173319 C22.9411687,23.044763 23.8925689,22.935215 24.7066373,22.2636384 C25.4373539,21.6603308 26.1823594,21.1193385 27.2163175,21.1252922 C27.050011,20.2727233 26.4657552,19.8762073 25.7235281,20.0814112 C24.7887982,20.3398015 23.8612128,20.5196031 22.8784564,20.3259096 C22.570849,20.264785 22.2164057,20.4092613 21.8909372,20.4914223 C21.8147299,20.5104741 21.6996251,20.693054 21.7234399,20.7418743 C22.0389857,21.394796 21.9068137,22.0381918 21.6833517,22.6930981 C21.782183,22.7427122 21.8548181,22.7990739 21.9357883,22.8173319 Z M23.8052481,19.5094598 C23.9747299,19.5646307 24.1053142,19.6225799 24.2418523,19.6491731 C24.9348622,19.7845204 25.6151709,19.6694157 26.1363175,19.2224917 C26.7245424,18.7176185 27.2802205,18.141301 27.724366,17.5082249 C28.8658875,15.880882 28.9401103,14.0153914 28.7480044,12.1201323 C28.5832856,10.4931863 28.6896582,8.94085998 29.8442778,7.64017641 C29.8605513,7.62191841 29.8553914,7.5846086 29.8768247,7.45680265 C29.5890628,7.48260198 29.3370232,7.4770452 29.0988754,7.53181918 C27.1591621,7.97636163 25.9557222,9.28141125 25.113473,10.9901213 C25.04957,11.119118 25.072591,11.3080485 25.0987872,11.4612569 C25.2265932,12.2066593 25.4127453,12.9445204 25.4976847,13.693892 C25.7314664,15.7558545 25.4877619,17.6999338 23.9477398,19.2772657 C23.8997133,19.3264829 23.8731202,19.3967365 23.8052481,19.5094598 Z" id="Fill-442" fill="#000000" mask="url(#mask-2)"></path>
                        <path d="M22.3922381,31.5470342 C22.4434399,31.547828 22.5494157,31.6978611 22.5331422,31.7292172 C22.4867034,31.8205072 22.3993826,31.939581 22.3128556,31.9538699 C22.0679603,31.9939581 21.8155237,31.9872106 21.5229989,32.0007056 C21.3154135,31.9864168 21.0649614,31.9796692 20.8180816,31.9463286 C20.7458434,31.9364057 20.6235943,31.8435281 20.629548,31.8042337 C20.6422492,31.7188975 20.7192503,31.5768026 20.7756119,31.5740243 C21.3138258,31.5482249 21.8532304,31.5414774 22.3922381,31.5470342" id="Fill-443" fill="#000000" mask="url(#mask-2)"></path>
                        <path d="M21.90086,30.5841235 C21.9830209,30.5876957 22.0580375,30.7611466 22.1362293,30.8560088 C22.0393826,30.9314223 21.9520617,31.0493054 21.8437045,31.0727233 C21.6750165,31.1096362 21.4924366,31.0826461 21.3154135,31.0826461 C21.3154135,31.0897905 21.3150165,31.096935 21.3150165,31.1040794 C21.1237045,31.0933627 20.9280265,31.1032856 20.743462,31.0624035 C20.6454245,31.0409702 20.5148401,30.9433297 20.4957883,30.8579934 C20.4807056,30.7917089 20.6089085,30.6242117 20.6831312,30.6174642 C21.0875854,30.5821389 21.4960088,30.5666593 21.90086,30.5841235" id="Fill-444" fill="#000000" mask="url(#mask-2)"></path>
                        <path d="M21.8345755,32.7433297 C21.7353473,32.8350165 21.6404851,32.9989416 21.5353032,33.0064829 C20.934774,33.0477619 20.3314664,33.0588754 19.7293495,33.0612569 C19.6328997,33.0616538 19.5364498,32.9679824 19.44,32.9175744 C19.4364278,32.8755017 19.4328556,32.8334289 19.4296803,32.791753 C19.6071003,32.7199118 19.7813451,32.5988534 19.9635281,32.5853583 C20.4644322,32.5480485 20.9697023,32.5428886 21.472194,32.5551929 C21.5944432,32.5579713 21.713914,32.6774421 21.8345755,32.7433297" id="Fill-445" fill="#000000" mask="url(#mask-2)"></path>
                        <path d="M19.4292834,31.6994487 C19.4864388,31.7002426 19.594796,31.8268578 19.5852701,31.8764719 C19.5682029,31.962602 19.4912018,32.0824697 19.4153914,32.1042999 C19.1335832,32.1852701 18.8422492,32.2321058 18.5953693,32.2829107 C18.3087982,32.240441 18.0718412,32.2198015 17.8436163,32.163043 C17.7618523,32.1424035 17.6372216,32.0221389 17.6471444,31.9681588 C17.6642117,31.8717089 17.7654245,31.7181036 17.8376626,31.7149283 C18.3675413,31.6895259 18.8986108,31.6895259 19.4292834,31.6994487" id="Fill-446" fill="#000000" mask="url(#mask-2)"></path>
                        <path d="M18.7672326,32.6937155 C18.8208159,32.732613 18.8450276,32.9207497 18.8037486,32.9640132 C18.5536935,33.2263727 17.3562073,33.174774 17.029151,32.8838368 C17.4558324,32.5297905 18.3977067,32.4265932 18.7672326,32.6937155" id="Fill-447" fill="#000000" mask="url(#mask-2)"></path>
                        <path d="M16.7489305,32.0523043 C16.80172,32.3936494 16.3663065,32.3757883 16.1031533,32.4202426 C15.3371114,32.55043 14.5940904,32.4555678 13.8721058,32.1983682 C13.8665491,32.1503418 13.8613892,32.1019184 13.8562293,32.053892 C14.0669901,32.0225358 14.2956119,31.9233076 14.4849394,31.9733186 C15.0100551,32.1118412 15.5014333,32.04 16.0078942,31.8955237 C16.2694598,31.821301 16.6870121,31.6522161 16.7489305,32.0523043" id="Fill-448" fill="#000000" mask="url(#mask-2)"></path>
                        <path d="M15.6463065,32.9683793 C15.6609923,33.0362514 15.676075,33.1041235 15.6911577,33.1723925 C15.4883352,33.247409 15.2874972,33.3779934 15.0822933,33.3851378 C14.6897464,33.3994267 14.2944212,33.3506064 13.9022712,33.3085336 C13.8379713,33.3013892 13.7446968,33.1993826 13.7379493,33.133892 C13.7323925,33.0747519 13.8201103,32.9572657 13.8784564,32.9485336 C14.4706505,32.8620066 15.0628445,32.8409702 15.6463065,32.9683793" id="Fill-449" fill="#000000" mask="url(#mask-2)"></path>
                    </g>
                </g>
            </g>
        </g>
    </g>
</svg>