<?xml version="1.0" encoding="UTF-8"?>
<svg width="8px" height="8px" viewBox="0 0 8 8" version="1.1" xmlns="http://www.w3.org/2000/svg" xmlns:xlink="http://www.w3.org/1999/xlink">
    <!-- Generator: Sketch 44.1 (41455) - http://www.bohemiancoding.com/sketch -->
    <title>Shape</title>
    <desc>Created with Sketch.</desc>
    <defs></defs>
    <g id="V1" stroke="none" stroke-width="1" fill="none" fill-rule="evenodd">
        <g id="Change-Language" transform="translate(-300.000000, -64.000000)" fill="#333333">
            <path d="M307.778287,64.2219513 C307.482669,63.9263336 307.003783,63.9263336 306.708165,64.2219513 L304.000231,66.9297129 L301.292296,64.2219513 C300.996678,63.9263336 300.517677,63.9263336 300.22206,64.2219513 C299.926442,64.517396 299.926442,64.9966856 300.22206,65.2921303 L302.929648,67.9998918 L300.221713,70.7077111 C299.926096,71.003098 299.926096,71.4822145 300.221713,71.7779477 C300.369493,71.9257854 300.563206,71.9996466 300.756803,71.9996466 C300.9504,71.9996466 301.144055,71.9257854 301.291777,71.7779477 L304.000231,69.0698976 L306.708165,71.7780631 C306.856003,71.9259008 307.049543,71.999762 307.24314,71.999762 C307.436679,71.999762 307.630391,71.9259585 307.778171,71.7780631 C308.073789,71.4826762 308.073789,71.0033288 307.778171,70.7079419 L305.070352,67.9998918 L307.778287,65.2921303 C308.073904,64.9966856 308.073904,64.5175691 307.778287,64.2219513 L307.778287,64.2219513 Z" id="Shape"></path>
        </g>
    </g>
</svg>