<?xml version="1.0" encoding="UTF-8"?>
<svg width="38px" height="38px" viewBox="0 0 38 38" version="1.1" xmlns="http://www.w3.org/2000/svg" xmlns:xlink="http://www.w3.org/1999/xlink">
    <!-- Generator: Sketch 52.6 (67491) - http://www.bohemiancoding.com/sketch -->
    <title>Congress</title>
    <desc>Created with Sketch.</desc>
    <defs>
        <rect id="path-1" x="0" y="-1.42108547e-14" width="36" height="36" rx="18"></rect>
    </defs>
    <g id="Page-1" stroke="none" stroke-width="1" fill="none" fill-rule="evenodd">
        <g id="Results" transform="translate(-161.000000, -945.000000)">
            <g id="Group-8" transform="translate(16.000000, 934.000000)">
                <g id="Congress" transform="translate(146.000000, 12.000000)">
                    <mask id="mask-2" fill="white">
                        <use xlink:href="#path-1"></use>
                    </mask>
                    <rect stroke="#FFFFFF" x="-0.5" y="-0.5" width="37" height="37" rx="18.5"></rect>
                    <g mask="url(#mask-2)">
                        <path d="M-1.77635684e-15,11.9732794 L35.9771676,11.9732794 L35.9771676,4.11428571 C35.9771676,1.84202846 34.1351391,5.6426012e-14 31.8628819,5.68434189e-14 L4.11428571,5.68434189e-14 C1.84202846,5.72608257e-14 -1.16644968e-15,1.84202846 -8.8817842e-16,4.11428571 L-1.77635684e-15,11.9732794 Z" id="Fill-74" fill="#E5782B"></path>
                        <path d="M5.31428571,35.9199838 L30.6628819,35.9199838 C32.9351391,35.9199838 34.7771676,34.0779553 34.7771676,31.8056981 L34.7771676,23.9467045 L1.2,23.9467045 L1.2,31.8056981 C1.2,34.0779553 3.04202846,35.9199838 5.31428571,35.9199838 Z" id="Fill-75" fill="#039B4D"></path>
                        <polyline id="Fill-76" fill="#FFFFFE" points="11.7530465 32.219417 11.7427719 32.2396761 11.7252195 32.2734899 11.7095222 32.3029312 11.6959654 32.3282915 11.6846919 32.3488421 11.6758443 32.3647287 11.6701362 32.3746397 11.5013189 32.6712389 9.80815135 32.4456194 9.99166703 31.8496518 9.99380757 31.8401781 9.99837405 31.8126316 10.0036541 31.7718219 10.0086486 31.720664 10.0132151 31.6607611 10.0170681 31.5937166 10.0203503 31.5206964 10.0227762 31.4425749 10.0246314 31.3603725 10.025773 31.2748178 10.0262011 31.1867854 10.0262011 31.0965668 10.025773 31.0051822 10.0247741 30.9135061 10.0232043 30.8216842 10.0214919 30.7307368 10.0193514 30.6409555 10.0170681 30.5535061 10.0144995 30.4685344 10.0117881 30.3867692 10.0090768 30.309085 10.0063654 30.2357733 10.0036541 30.1677085 10.0010854 30.1056194 9.99865946 30.0496518 9.99637622 30.0008259 9.99452108 29.9595789 9.99309405 29.9305749 9.51989189 27.9823482 9.43270054 27.8201296 9.31839568 27.580664 9.21350919 27.3350769 9.11747027 27.0838057 9.02985081 26.8280162 8.94979459 26.5688745 8.87744432 26.3068178 8.81180108 26.0433036 8.75272216 25.7787692 8.69977946 25.5143806 8.65240216 25.2510121 8.61073297 24.9896842 8.57405838 24.731417 8.54209297 24.4767935 8.51455135 24.227417 8.49114811 23.9837247 8.47131243 23.7468826 8.45518703 23.5177652 8.44205838 23.29783 8.43192649 23.0873684 8.42422054 22.8879838 8.41865514 22.7002591 8.41508757 22.5255061 8.41337514 22.3643077 8.41280432 22.2181215 8.41337514 22.0878219 8.41451676 21.9744291 8.41622919 21.8786721 8.41822703 21.8018623 8.41993946 21.7450202 8.42093838 21.7147045 8.41337514 21.4281619 8.41209081 21.127919 8.41751351 20.8374413 8.42935784 20.556583 8.44676757 20.2853441 8.4696 20.0238704 8.49756973 19.7720162 8.52982054 19.5297814 8.56635243 19.2974575 8.60630919 19.0746073 8.64954811 18.861668 8.69549838 18.6583482 8.74373189 18.4646478 8.79396324 18.2807126 8.84562162 18.106251 8.89813622 17.9418462 8.95107892 17.786915 9.00430703 17.6416032 9.05710703 17.5059109 9.10919351 17.3799838 9.15999568 17.2636761 9.20908541 17.1571336 9.25603459 17.059919 9.30041514 16.9723239 9.34179892 16.8944939 9.37975784 16.8261377 9.38774919 16.8124372 9.37490595 16.7187206 9.36092108 16.597166 9.34822054 16.4673036 9.33666162 16.3297166 9.32610162 16.1849879 9.31654054 16.0337004 9.30740757 15.8768745 9.29941622 15.7152389 9.29199568 15.5499595 9.28528865 15.3819109 9.27929514 15.2119676 9.27387243 15.0412955 9.26902054 14.8707692 9.26473946 14.7014089 9.26074378 14.5345263 9.25460757 14.2111093 9.25218162 14.0569069 9.25004108 13.9091174 9.24832865 13.7686154 9.24690162 13.6364211 9.24476108 13.4016194 9.24419027 13.3010526 9.24361946 13.2130202 9.24333405 13.1385425 9.24319135 13.0786397 9.24304865 13.0346235 9.24304865 12.9136518 9.28956973 12.7727126 9.30983351 12.709166 9.33081081 12.6402267 9.35278703 12.5664777 9.37504865 12.4886478 9.39788108 12.4071741 9.42099892 12.3227854 9.44440216 12.2357733 9.46780541 12.1470121 9.49135135 12.0566478 9.51475459 11.9652632 9.53801514 11.8732955 9.56099027 11.7814737 9.5835373 11.6899433 9.60565622 11.5994332 9.62734703 11.5102348 9.66844541 11.3379595 9.68785297 11.2557571 9.70640432 11.1769069 9.72395676 11.1015547 9.74036757 11.0305749 9.75563676 10.9641134 9.76976432 10.902753 9.78232216 10.8467854 9.79388108 10.7969393 9.80900757 10.7294575 9.80629622 10.7022024 9.79930378 10.579919 9.79630703 10.4567611 9.79730595 10.333166 9.80158703 10.2086964 9.80886486 10.0839352 9.81885405 9.95931984 9.83155459 9.8348502 9.84639568 9.71096356 9.86309189 9.58780567 9.88150054 9.46581377 9.90133622 9.34527935 9.92259892 9.22678543 9.94471784 9.11047773 9.96755027 8.99664777 9.99109622 8.88617004 10.0149276 8.77875304 10.0389016 8.67527126 10.062733 8.57616194 10.0862789 8.4814251 10.1091114 8.39193522 10.131373 8.30769231 10.152493 8.2294251 10.1724714 8.1574251 10.1910227 8.09183806 10.2077189 8.03368421 10.2227027 7.98281781 10.2355459 7.93996761 10.2459632 7.90557085 10.2539546 7.87991903 10.2590919 7.86344939 10.2725059 7.82147368 10.3644065 7.63360324 10.4496 7.47940081 10.5392173 7.33612955 10.6328303 7.20335223 10.7304389 7.08077733 10.8314724 6.96855061 10.93536 6.86638057 11.0416735 6.77426721 11.1498422 6.69191903 11.2592951 6.61919028 11.3694616 6.55549798 11.4793427 6.50084211 11.5885103 6.45478543 11.6962508 6.41645344 11.8019935 6.3857004 11.9050249 6.36179757 12.0052022 6.34401619 12.1015265 6.33191903 12.1941405 6.32477733 12.2824735 6.3220081 12.3659546 6.32273684 12.380653 6.32361134 12.3974919 6.27842915 12.4323114 6.19039676 12.4682724 6.1054251 12.504947 6.02351417 12.5420497 5.94495547 12.5798659 5.86960324 12.6178249 5.79745749 12.6559265 5.72851822 12.6938854 5.66263968 12.7315589 5.60011336 12.7690897 5.54079352 12.805907 5.48468016 12.8420108 5.43162753 12.8771157 5.38192713 12.9112216 5.3351417 12.9441859 5.29185425 12.9755805 5.25162753 13.0055481 5.21446154 13.0339459 5.18064777 13.0603459 5.14989474 13.0847481 5.12220243 13.106867 5.09786235 13.1268454 5.076583 13.1442551 5.05851012 13.1590962 5.04335223 13.1707978 5.03183806 13.1742227 5.02863158 13.2442897 4.95663158 13.3354768 4.8745749 13.4293751 4.80009717 13.5256995 4.73290688 13.6233081 4.67271255 13.7222011 4.61922267 13.8213795 4.57214575 13.9205578 4.53104453 14.0194508 4.49548178 14.1173449 4.46487449 14.21424 4.43907692 14.3097081 4.41750607 14.4033211 4.39987045 14.4950789 4.38602429 14.5842681 4.37523887 14.6710314 4.36736842 14.7549405 4.36212146 14.835853 4.35920648 14.9131978 4.35818623 14.9869751 4.35906073 15.0568995 4.36139271 15.1191178 4.36459919 15.1342443 4.33967611 15.250547 4.17716599 15.3771243 4.02471255 15.5126919 3.88217004 15.6565362 3.74968421 15.8078011 3.62754656 15.9654876 3.51531984 16.1288822 3.41358704 16.2972714 3.32205668 16.4697989 3.24131174 16.6460368 3.17120648 16.8254141 3.11203239 17.0069319 3.06437247 17.1904476 3.02837247 17.3751049 3.00446964 17.560333 2.99324696 17.7455611 2.99528745 17.9300757 3.01131984 18.1130205 3.04192713 18.2935395 3.08812955 18.4702054 3.15094737 18.6418768 3.23081781 18.8065557 3.32876113 18.9629578 3.44477733 19.1082292 3.57901215 19.2405146 3.73088259 19.358387 3.89951417 19.4604195 4.08388664 19.4908151 4.15515789 19.6015524 4.12527935 19.7999092 4.08753036 19.991987 4.06683401 20.1779286 4.06304453 20.3568778 4.07587045 20.5282638 4.104583 20.6906595 4.14845344 20.8437795 4.20617004 20.9864822 4.2762753 21.1179114 4.35687449 21.2383524 4.44592713 21.3473773 4.54153846 21.4459849 4.64225101 21.5341751 4.74587854 21.6126616 4.85169231 21.6824432 4.95779757 21.7439481 5.06331984 21.7980324 5.16723887 21.8454097 5.26868016 21.8863654 5.36662348 21.9214703 5.46019433 21.9515805 5.54837247 21.9766962 5.6305749 21.9976735 5.70563563 22.0143697 5.77268016 22.0274984 5.83127126 22.0352043 5.86872874 22.0450508 5.88884211 22.0892886 6.00879352 22.1261059 6.13224291 22.159213 6.26385425 22.1898941 6.40464777 22.2188627 6.55535223 22.246547 6.71523887 22.2732324 6.8837247 22.2986335 7.06008097 22.3231784 7.2431417 22.3465816 7.43174089 22.3691286 7.62471255 22.3908195 7.82103644 22.4115114 8.01910931 22.431347 8.21805668 22.4501838 8.4162753 22.4680216 8.61274494 22.4848605 8.8060081 22.5007005 8.99489879 22.5153989 9.17795951 22.5290984 9.35402429 22.5416562 9.52163563 22.5533578 9.67962753 22.5636324 9.82668826 22.5729081 9.96150607 22.5811849 10.0826235 22.5878919 10.1887287 22.5937427 10.2786559 22.5983092 10.3509474 22.6015914 10.404583 22.6035892 10.437668 22.60416 10.4465587 22.877293 14.4459109 22.9609168 14.3451984 23.0575265 14.2379271 23.1542789 14.1391093 23.2504605 14.0480162 23.3457859 13.964502 23.4399697 13.8885668 23.5324411 13.8194818 23.6224865 13.7573927 23.7101059 13.7014251 23.7944432 13.6517247 23.8753557 13.6078543 23.9522724 13.5695223 24.0247654 13.5361457 24.0924065 13.5077247 24.1549103 13.4836761 24.2119914 13.4635628 24.2627935 13.4473846 24.3073168 13.434413 24.3449903 13.424502 24.3753859 13.4175061 24.387373 13.4150283 24.6420973 13.3500243 24.9032432 13.2952227 25.1498335 13.2555789 25.382867 13.2309474 25.6027719 13.2205992 25.8106897 13.2240972 26.0071914 13.2414413 26.1925622 13.2719028 26.3665168 13.315919 26.5294832 13.3727611 26.6808908 13.4418462 26.8201686 13.5224453 26.9464605 13.6131012 27.0593384 13.7123563 27.1589449 13.8183158 27.2449946 13.9286478 27.3180584 14.041749 27.3789924 14.1552874 27.4289384 14.2679514 27.4690378 14.3782834 27.5002897 14.4855547 27.5242638 14.5881619 27.5415308 14.6855223 27.5532324 14.7769069 27.5605103 14.861587 27.5640778 14.9385425 27.5649341 15.0074818 27.5637924 15.0673846 27.5613665 15.117668 27.558227 15.1574575 27.5555157 15.1852955 27.55152 15.2183806 27.2488476 16.663919 27.257267 16.7015223 27.2692541 16.7723563 27.2781016 16.8426073 27.2845232 16.9125668 27.2888043 16.9828178 27.2915157 17.0535061 27.2929427 17.1246316 27.2929427 17.1963401 27.2920865 17.2681943 27.2898032 17.3400486 27.2870919 17.4119028 27.2835243 17.4830283 27.2792432 17.5537166 27.2745341 17.6232389 27.2692541 17.6914494 27.2636886 17.7577652 27.2578378 17.8221862 27.251987 17.8841296 27.2458508 17.9434494 27.2397146 17.9995628 27.2338638 18.0521781 27.2282984 18.1011498 27.2230184 18.1458947 27.2180238 18.18583 27.2134573 18.2211012 27.2096043 18.2509798 27.2063222 18.2751741 27.2037535 18.2931012 27.2020411 18.3040324 27.1876281 18.4082429 27.1326876 18.5026883 27.1318314 18.5047287 27.1204151 18.539417 27.1045751 18.5969879 27.0864519 18.6719028 27.0669016 18.761247 27.0470659 18.8625425 27.0268022 18.974332 27.0063957 19.0947206 26.9861319 19.2226883 26.9660108 19.3566316 26.9458897 19.4955304 26.9264822 19.6380729 26.9072173 19.7833846 26.8885232 19.9302996 26.8704 20.0776518 26.853133 20.2241296 26.8361514 20.369004 26.8201686 20.5109636 26.8048995 20.6489879 26.7906292 20.7819109 26.7648 21.028664 26.7536692 21.1404534 26.7432519 21.242915 26.7341189 21.3351741 26.7262703 21.415919 26.7198486 21.4842753 26.7145686 21.5390769 26.7110011 21.5790121 26.7145686 21.6703968 26.7148541 21.8108988 26.7101449 21.9544615 26.7011546 22.1007935 26.6884541 22.2496032 26.6721859 22.4005992 26.6527784 22.5534899 26.6306595 22.7078381 26.6059719 22.862915 26.5788584 23.0184291 26.5501751 23.1736518 26.5197795 23.3281457 26.4879568 23.4811822 26.4554205 23.6324696 26.4218854 23.7811336 26.3876368 23.9265911 26.3536735 24.0684049 26.3197103 24.2055547 26.2858897 24.337749 26.2530681 24.4644049 26.22096 24.5846478 26.1610249 24.8037085 26.1334832 24.9012146 26.1080822 24.9896842 26.0852497 25.0688259 26.0651286 25.1376194 26.0478616 25.1956275 26.0337341 25.2421215 26.0233168 25.276664 26.0167524 25.2980891 26.0050508 25.3358381 25.9045881 25.5589798 25.8088346 25.7571984 25.7082292 25.952502 25.6030573 26.1443077 25.4943178 26.3329069 25.382867 26.5177166 25.2682768 26.6990283 25.1521168 26.8759676 25.0342443 27.0489717 24.9152303 27.2173117 24.7959308 27.3809879 24.6766314 27.5398543 24.5579027 27.6934737 24.4403157 27.8415547 24.3242984 27.9842429 24.2102789 28.1208097 24.0991135 28.2514008 23.9912303 28.3755789 23.8873427 28.4929069 23.7873081 28.6033846 23.6922681 28.7067206 23.6025081 28.8026235 23.5185989 28.8908016 23.4411114 28.9709636 23.3706162 29.0431093 23.3072562 29.1065101 23.252173 29.1613117 23.2052238 29.2070769 23.167693 29.2435142 23.1395805 29.2701862 23.1218854 29.2869474 23.0449686 29.3592389 22.9252411 29.405587 22.9098292 29.4130202 22.8887092 29.4252632 22.8627373 29.4424615 22.8329124 29.4644696 22.8000908 29.4914332 22.7651286 29.5224777 22.7284541 29.5573117 22.6904951 29.5957895 22.6519654 29.6370364 22.6130076 29.6807611 22.5740497 29.7266721 22.5352346 29.7740405 22.497133 29.8227206 22.4594595 29.8721296 22.4226422 29.9219757 22.3869665 29.9716761 22.3527178 30.0209393 22.3200389 30.0691822 22.2886443 30.1161134 22.2593903 30.1612955 22.2317059 30.2044372 22.2063049 30.245247 22.1829016 30.282996 22.162067 30.3176842 22.1503654 30.3370688 22.0436238 32.6304291 21.7898984 32.8047449 21.7188324 32.8427854 21.6494789 32.8710607 21.5831222 32.8919028 21.5193341 32.9064777 21.4585427 32.9165344 21.4000346 32.9228016 21.3435243 32.9258623 21.2891546 32.9267368 21.2362119 32.9254251 21.1848389 32.9226559 21.1347503 32.9182834 21.0859459 32.9128907 21.0385686 32.9064777 20.9926184 32.899336 20.9479524 32.8913198 20.9047135 32.8828664 20.863187 32.8741215 20.823373 32.865085 20.7851286 32.8560486 20.7490249 32.8467206 20.7149189 32.83783 20.6829535 32.8289393 20.6536995 32.8204858 20.6265859 32.8124696 20.6020411 32.8048907 20.5809211 32.7981862 20.5625124 32.7923563 20.5471005 32.7872551 20.5353989 32.7833198 20.5279784 32.7806964 20.2798184 32.6948502 20.0407914 31.8604372 19.9758616 31.864664 19.8838184 31.864081 19.7934876 31.8562105 19.7051546 31.8410526 19.6193903 31.8183158 19.5370508 31.788 19.4592778 31.7506883 19.3869276 31.7068178 19.3205708 31.6578462 19.2612065 31.6049393 19.2088346 31.5492632 19.1912822 31.5271093 19.1728735 31.531336 19.0852541 31.5469312 18.9989189 31.5569879 18.9130119 31.5609231 18.8272476 31.5578623 18.7404843 31.5470769 18.6535784 31.5271093 18.5673859 31.496502 18.4839049 31.4545263 18.4058465 31.4010364 18.3354941 31.3380729 18.2764151 31.2681134 18.2290378 31.1948016 18.1930768 31.1213441 18.1672476 31.0500729 18.1496951 30.9828826 18.1389924 30.9202105 18.133427 30.8626397 18.1318573 30.8100243 18.1329989 30.7622186 18.1357103 30.7257814 18.0059935 30.7180567 17.8644324 30.7061053 17.7185903 30.6897814 17.568467 30.6693765 17.4144908 30.6441619 17.2568043 30.6138462 17.0955503 30.5782834 16.9311568 30.5370364 16.7634811 30.4898138 16.5930941 30.4363239 16.4244195 30.3780243 16.4037276 30.3856032 16.3319481 30.4111093 16.2573146 30.4369069 16.1803978 30.4628502 16.1009124 30.4887935 16.0190011 30.5142996 16.0051589 30.5186721 16.0175741 30.5481134 16.0401211 30.632502 16.0518227 30.7157247 16.0539632 30.7957409 16.0483978 30.8718219 16.0366962 30.9442591 16.02 31.0130526 15.9993081 31.0796599 15.9062659 31.3265587 15.7197535 31.4137166 15.71376 31.4164858 15.7039135 31.421004 15.6916411 31.4263968 15.6770854 31.4325182 15.6606746 31.4393684 15.6418378 31.4469474 15.6208605 31.4549636 15.5978854 31.4637085 15.5730551 31.4727449 15.5459416 31.4820729 15.5168303 31.4916923 15.4855784 31.5018947 15.4524714 31.5119514 15.4175092 31.5220081 15.3804065 31.5323563 15.3414486 31.542413 15.3006357 31.5523239 15.2581103 31.5622348 15.2134443 31.5717085 15.1672086 31.5810364 15.1191178 31.5896356 15.0975697 31.5934251 15.1459459 32.0497652 14.6354984 32.0946559 14.6290768 32.0952389 14.6166616 32.0966964 14.598253 32.0985911 14.5744216 32.1016518 14.545453 32.105587 14.5119178 32.1105425 14.4739589 32.1165182 14.432147 32.1238057 14.387053 32.1322591 14.3388195 32.1418785 14.28816 32.1529555 14.2350746 32.1654899 14.1804195 32.1794818 14.1243373 32.1949312 14.0673989 32.2118381 14.0098897 32.2303482 13.9526659 32.25017 13.8958703 32.2717409 13.8399308 32.2947692 13.7852757 32.3191093 13.7326184 32.3449069 13.6821016 32.3717247 13.6342962 32.4 13.5893449 32.4288583 13.5481038 32.4584453 13.5102876 32.4883239 13.4766097 32.5184939 13.4469276 32.5485182 13.4210984 32.578251 13.3992649 32.6076923 13.2648389 32.8190283 13.0760432 32.8698947 13.0674811 32.8722267 13.0539243 32.8755789 13.0368 32.8798057 13.0165362 32.8844696 12.9932757 32.8894251 12.9670184 32.8946721 12.9380497 32.9000648 12.906227 32.9054575 12.8722638 32.9105587 12.8357319 32.9152227 12.7967741 32.9193036 12.7556757 32.9228016 12.7127222 32.9251336 12.6673427 32.9262996 12.6198227 32.9261538 12.5703049 32.9241134 12.5185038 32.9197409 12.4645622 32.9127449 12.4083373 32.9026883 12.3496865 32.8885506 12.2887524 32.869749 12.2258205 32.8451174 12.1611762 32.8139271 12.0959611 32.7744291 12.0314595 32.7260405 11.9695265 32.6684696 11.9120173 32.6015709 11.8616432 32.5262186 11.8198314 32.4443077 11.7878659 32.3584615 11.7530465 32.219417"></polyline>
                        <path d="M19.7600951,11.7386235 L20.6341492,11.6889231 C20.6341492,11.6889231 20.7461708,12.1085344 20.1856346,12.0323077 C20.1856346,12.0323077 19.6853189,12.097166 19.7600951,11.7386235 Z M19.7486789,11.5249555 C19.7486789,11.5249555 20.4101059,11.0022996 20.7087827,11.4600972 C20.7087827,11.4600972 20.7684324,11.6126964 20.4847395,11.6013279 C20.4847395,11.6013279 19.8235978,11.6623968 19.7486789,11.5249555 Z M19.5618811,8.6257166 L20.4212368,8.2937004 C20.4212368,8.2937004 20.8058205,8.54934413 20.1110011,8.8774251 C20.1110011,8.8774251 19.6853189,9.17125506 19.5133622,8.8774251 L19.5618811,8.6257166 Z M19.5732973,8.47311741 L20.5218422,8.10306073 C20.5218422,8.10306073 20.6190227,7.67193522 19.9467503,7.92364372 C19.9467503,7.92364372 19.2746205,8.11442915 19.5732973,8.47311741 Z M16.7383654,12.1964211 L17.7953643,11.8148502 C17.7953643,11.8148502 18.0306811,12.1849069 17.3621189,12.3259919 C17.3621189,12.3259919 16.7756108,12.5778462 16.7383654,12.1964211 Z M16.7383654,11.9674494 C16.7383654,11.9674494 16.6150703,11.7652955 17.4480259,11.4487287 C17.4480259,11.4487287 17.8699978,11.4334251 17.7803805,11.6889231 L16.7756108,12.0438219 L16.7383654,11.9674494 Z M16.8652281,8.86591093 L17.9186595,8.52267206 C17.9186595,8.52267206 18.0792,8.96895547 17.4106378,9.09488259 C17.4106378,9.09488259 16.8876324,9.35038057 16.8652281,8.86591093 Z M16.8392562,8.72482591 L17.8924022,8.39674494 C17.8924022,8.39674494 18.0941838,7.847417 17.2612281,8.07624291 C17.2612281,8.07624291 16.6411849,8.37007287 16.8392562,8.72482591 Z M13.9519524,9.19778138 L15.0463395,8.95379757 C15.0463395,8.95379757 15.0948584,8.54934413 14.4225859,8.74012955 C13.7501708,8.93076923 13.9519524,9.19778138 13.9519524,9.19778138 Z M13.9630832,9.33522267 L15.0574703,9.06821053 C15.0574703,9.06821053 15.4684541,9.41144939 14.6728865,9.62890688 C14.6728865,9.62890688 13.9258378,9.88455061 13.9630832,9.33522267 Z M13.9258378,13.0623158 L14.8596843,12.8334899 C14.8596843,12.8334899 14.9828368,13.1502024 14.4599741,13.214915 C14.4599741,13.214915 13.8399308,13.3408421 13.9258378,13.0623158 Z M13.9630832,12.8715304 C13.9630832,12.8715304 13.8773189,12.5014737 14.3851978,12.4634332 C14.3851978,12.4634332 14.9604324,12.3488745 14.8708151,12.6922591 L13.9630832,12.8715304 Z M11.1357146,13.6842267 L11.897747,13.3293279 C11.897747,13.3293279 12.2338119,13.6993846 11.6846919,13.7986397 C11.6846919,13.7986397 11.1505557,14.1038381 11.1357146,13.6842267 Z M11.023693,13.5581538 C11.023693,13.5581538 10.6388238,13.2531012 11.2851243,13.1120162 C11.2851243,13.1120162 11.8005665,12.8792551 11.8155503,13.1653603 C11.8155503,13.1844534 11.8116973,13.2035466 11.807987,13.2264291 L11.023693,13.5581538 Z M11.4232605,11.3188664 L12.4691286,10.8878866 C12.4691286,10.8878866 12.6670573,11.307498 11.9835114,11.4982834 C11.9835114,11.4982834 11.3597578,11.8415223 11.4232605,11.3188664 Z M11.3860151,11.1815709 C11.3860151,11.1815709 11.1133103,10.9374413 11.4717795,10.8381862 L12.0208995,10.544502 C12.0208995,10.544502 12.5063741,10.4299433 12.4206097,10.7734737 L11.3860151,11.1815709 Z M18.9682378,6.26035628 C18.9682378,6.26035628 19.416467,4.73436437 20.6116022,5.49750607 C20.6116022,5.49750607 21.3325362,6.10775709 21.1605795,8.75149798 C21.1605795,8.75149798 21.5825514,10.7619595 21.4593989,11.7004372 L21.6313557,14.0656518 C21.6313557,14.0656518 21.5825514,14.7295385 21.1082076,14.4470769 C21.1082076,14.4470769 20.7347546,14.6264939 20.8093881,14.7789474 C20.8093881,14.7789474 20.5742141,14.5807287 20.2007611,14.6569555 C20.1709362,14.6607449 20.1446789,14.6684696 20.1148541,14.6759028 C20.1148541,14.6759028 19.6667676,14.6759028 19.7414011,14.118996 C19.7414011,14.118996 19.6928822,13.9663968 19.3194292,14.118996 C19.3194292,14.118996 18.8971719,14.0923239 19.2185384,12.4138785 C19.2185384,12.4138785 19.3194292,11.3952389 19.0428714,10.4796437 C19.0428714,10.4796437 18.9682378,9.43826721 19.0691286,9.03002429 L18.9682378,6.26035628 Z M16.1107589,5.47068826 C16.1107589,5.47068826 16.1968086,4.8451336 16.5851027,4.52084211 C17.5115286,3.74268826 18.3444843,4.17366802 18.4565059,5.24186235 C18.4974616,5.66526316 18.5085924,6.20701215 18.3480519,6.66466397 C18.3480519,6.66466397 18.3219373,8.2937004 18.4489427,8.95379757 C18.4489427,8.95379757 18.299533,11.6013279 18.6206141,12.1353522 C18.6206141,12.1353522 18.299533,13.6611984 18.4228281,13.9892794 C18.4228281,13.9892794 18.299533,14.8286478 17.8999654,14.5769393 L16.4619503,14.7789474 C16.4619503,14.7789474 17.0819935,14.3708502 16.6859935,13.9892794 C16.6859935,13.9892794 16.1631308,14.118996 16.1107589,13.6842267 L16.1856778,8.75149798 C16.1856778,8.75149798 15.9389449,5.47068826 16.1107589,5.47068826 Z M13.4477838,6.79452632 C13.4477838,6.79452632 14.1463135,4.70783806 15.3899676,6.15745749 L15.4160822,7.8625749 C15.4160822,7.8625749 15.6141535,9.08336842 15.4647438,9.5908664 L15.4423395,12.4404049 C15.4423395,12.4404049 15.5878962,13.1767287 15.4647438,13.6611984 C15.4647438,13.6611984 15.7895351,15.1871903 14.7699243,14.7027206 C14.7699243,14.7027206 13.7988324,14.7295385 13.8473514,15.3626721 C13.8473514,15.3626721 13.3244886,15.6678704 13.2235978,14.4243401 C13.2235978,14.4243401 13.5485319,12.7190769 13.3244886,12.1582348 C13.3244886,12.1582348 13.275827,10.8610688 13.4477838,10.2508178 C13.4477838,10.2508178 13.1264173,7.17595142 13.4477838,6.79452632 Z M11.0909059,10.5236599 C11.0984692,11.1684534 10.6128519,12.1755789 10.6128519,12.1755789 C10.3886659,12.3395466 10.3514205,13.3428826 10.3514205,13.3428826 C10.5269449,13.7396113 10.4523114,14.6552065 10.4523114,14.6552065 C10.4036497,14.8955466 10.5904476,16.6770364 10.5904476,16.6770364 C10.6874854,16.6770364 11.0012886,16.486251 11.0012886,16.486251 C11.3001081,16.1277085 11.7222227,16.0132955 11.7222227,16.0132955 C12.6299546,15.7462834 12.6447957,15.4791255 12.6447957,15.4791255 C12.4692714,14.792502 12.6447957,12.7591579 12.6447957,12.7591579 C12.6185384,11.9313036 12.7568173,11.1569393 12.7568173,11.1569393 C12.8427243,10.8785587 12.7568173,10.329085 12.7568173,10.329085 L12.7045881,8.70398381 C12.7419762,7.39165992 12.1704519,7.63593522 12.1704519,7.63593522 C12.1704519,7.63593522 10.9713211,7.79990283 11.0909059,10.5236599 Z M19.7372627,29.8505587 C19.7062962,29.9213927 19.6387978,30.0002429 19.5159308,30.0836113 C19.5159308,30.0836113 18.1625384,30.525085 16.4255611,29.8340891 C15.7978119,30.0761781 14.7044238,30.4293279 13.6378638,30.2140567 C13.6378638,30.2140567 13.0046919,30.1146559 12.8915286,29.9321781 C11.9524022,30.0212308 11.7105211,29.8523077 11.7088086,29.8539109 L11.7557578,30.3895385 C11.6063481,30.5192551 11.483053,30.9006802 11.483053,30.9006802 C11.7818724,31.1792065 11.2366054,32.1214737 11.2366054,32.1214737 L10.4634422,32.0184291 C10.5865946,31.686413 10.4895568,29.8553684 10.4895568,29.8553684 L9.98909838,27.7953522 C8.74530162,25.6094089 8.92068324,21.7183482 8.92068324,21.7183482 C8.79753081,18.4870931 9.91417946,16.9154818 9.91417946,16.9154818 C9.74250811,16.2018947 9.74250811,12.9976032 9.74250811,12.9976032 C9.96655135,12.3375061 10.3138897,10.7619595 10.3138897,10.7619595 C10.1907373,9.71664777 10.7360043,8.01517409 10.7360043,8.01517409 C11.4606486,6.43583806 12.7268497,6.89378138 12.7268497,6.89378138 C12.9770076,5.90181377 13.5224173,5.39446154 13.5224173,5.39446154 C14.1946897,4.65813765 15.3899676,4.90984615 15.3899676,4.90984615 C16.1183222,3.32293117 18.8188281,2.80406478 19.1697341,4.81073684 C21.2579027,3.86846964 21.5567222,6.03153036 21.5567222,6.03153036 C21.8813708,6.58843725 22.1056995,10.4796437 22.1056995,10.4796437 L22.5015568,16.278413 C23.1514249,14.1418785 24.4959697,13.9130526 24.4959697,13.9130526 C27.331187,13.1271741 27.0581968,15.1338462 27.0581968,15.1338462 L26.7335481,16.6865101 C26.8829578,17.0183806 26.7072908,18.2352389 26.7072908,18.2352389 C26.4832476,18.540583 26.2104,21.565749 26.2104,21.565749 C26.2850335,22.7597247 25.5381276,25.1516113 25.5381276,25.1516113 C24.6679265,27.1620729 22.7779719,28.9168907 22.7779719,28.9168907 C22.2551092,29.0923725 21.657613,30.1872389 21.657613,30.1872389 L21.5567222,32.3502996 C21.3325362,32.5257814 20.6862357,32.2969555 20.6862357,32.2969555 L20.3874162,31.2554332 C19.4688389,31.610332 19.4688389,30.9006802 19.4688389,30.9006802 C18.4489427,31.3318057 18.6468714,30.6947368 18.6468714,30.6947368 C19.6182486,30.6183644 20.0887395,29.8820405 20.0887395,29.8820405 C19.9069362,29.9036113 19.7926314,29.8842267 19.7372627,29.8505587 Z M19.7090076,29.5985587 C21.1865514,29.0426721 22.3784043,28.0012955 22.3784043,28.0012955 C25.4634941,25.4072551 25.4634941,22.176 25.4634941,22.176 C25.4634941,22.176 25.3700238,23.0649231 25.4149751,22.0502186 C25.4634941,21.0353684 25.9863568,17.8309312 25.9863568,17.8309312 C26.2850335,17.0183806 25.9863568,16.5337652 25.9863568,16.5337652 C25.7884281,16.7360648 25.6652757,16.6865101 25.6652757,16.6865101 C25.2918227,16.4843563 25.3887178,15.8739595 25.3887178,15.8739595 C25.6390184,15.6449879 26.0387286,16.1523401 26.0387286,16.1523401 C26.2104,15.9730688 26.2366573,15.3626721 26.2366573,15.3626721 C26.4344432,13.6842267 24.1450638,14.8819919 24.1450638,14.8819919 C22.5051243,16.7627368 23.0244195,18.3344939 23.0244195,18.3344939 C23.6966919,20.3946559 23.0244195,20.0397571 23.0244195,20.0397571 C22.4045189,20.4211822 22.4307762,19.478915 22.4307762,19.478915 C22.2289946,19.4560324 21.3847654,21.4131498 21.3847654,21.4131498 C20.8841643,22.6339433 20.6377168,22.4811984 20.6377168,22.4811984 C20.2905211,22.6071255 20.488307,21.8213927 20.488307,21.8213927 C19.7414011,22.5577166 19.78992,23.1182672 19.78992,23.1182672 C19.4688389,23.7019919 19.2185384,23.3967935 19.2185384,23.3967935 C19.1176476,22.7100243 19.8908108,21.3101053 19.8908108,21.3101053 C18.1725276,21.9739919 15.9128303,25.2013117 15.9128303,25.2013117 C15.4647438,26.2693603 14.967853,27.032502 14.967853,27.032502 C14.5457384,27.032502 14.6429189,26.6776032 14.6429189,26.6776032 C14.8184432,26.498332 15.3153341,25.1784291 15.3153341,25.1784291 C15.0163719,25.2776842 14.6952908,25.9909798 14.6952908,25.9909798 C14.2955805,26.8797571 14.1722854,26.498332 14.1722854,26.498332 C13.9219849,25.125085 16.1107589,23.9576356 16.1107589,23.9576356 C17.7766703,21.5160486 20.8841643,20.3181377 20.8841643,20.3181377 C21.4819459,19.5819595 21.8813708,18.4642105 21.8813708,18.4642105 C21.8328519,17.4226883 21.5079178,15.8204696 21.5079178,15.8204696 C20.9365362,14.8286478 18.0493751,15.6946883 18.0493751,15.6946883 C17.6048562,15.8966964 17.6309708,15.3397895 17.6309708,15.3397895 C17.0334746,15.1605182 15.8381968,15.7440972 15.8381968,15.7440972 C15.4423395,16.3546397 14.2694659,17.0946073 14.2694659,17.0946073 C13.7725751,17.1443077 14.1200562,16.6101377 14.1200562,16.6101377 L14.7175524,15.8204696 C15.0163719,15.4237409 12.57744,16.7360648 12.57744,16.7360648 C12.2786205,17.1443077 10.7360043,17.3998057 10.7360043,17.3998057 C9.41757405,18.2087126 9.6155027,23.1411498 9.6155027,23.1411498 C9.46609297,23.8814089 10.2877751,26.7044211 10.2877751,26.7044211 C10.2653708,27.032502 10.9376432,27.4901538 10.9376432,27.4901538 C11.3821622,28.7109474 12.3309924,29.2449717 12.3328476,29.2430769 C12.33456,29.2410364 12.8811114,29.6182348 13.2509968,29.6223158 C13.2889557,29.6265425 14.3692151,29.8820405 15.965773,29.2449717 C15.965773,29.2449717 16.6568822,29.1291012 16.7753254,29.3171174 L19.4846789,29.4191417 C19.4846789,29.4191417 19.6198184,29.4842915 19.7090076,29.5985587 Z M12.4541449,30.2891174 C12.4541449,30.2891174 12.9510357,31.1284858 15.2404151,30.6211336 C15.2404151,30.6211336 15.688787,30.5182348 15.5132627,30.9492146 C15.5132627,30.9492146 15.14352,31.1284858 14.5457384,31.1284858 L14.5944,31.5862834 C14.5944,31.5862834 13.3506032,31.6893279 12.9510357,32.3759514 C12.9510357,32.3759514 12.3309924,32.5514332 12.2562162,32.1700081 L12.4280303,31.5367287 C12.4280303,31.5367287 11.4606486,30.4685344 12.4541449,30.2891174 Z M11.6063481,25.8650526 C11.6063481,25.8650526 11.7072389,25.2013117 12.9284886,24.2360162 C12.9284886,24.2360162 16.9101795,20.9057976 17.53008,20.776081 C17.6309708,20.776081 19.2445103,19.6086316 19.2445103,19.6086316 C19.2445103,19.6086316 19.78992,19.2500891 19.8422919,19.7612308 C19.8422919,19.7612308 19.5919914,20.1655385 19.1922811,20.3181377 L16.8578076,21.9739919 C16.8578076,21.9739919 15.5654919,22.8894413 15.3675632,23.2441943 C15.3675632,23.2441943 14.2955805,23.827919 13.6979416,24.3123887 C13.6979416,24.3123887 12.8275978,25.3042105 12.57744,25.3539109 C12.5550357,25.4568097 12.1553254,25.9909798 11.8303914,26.0938785 C11.8303914,26.0938785 11.6324627,26.170251 11.6063481,25.8650526 Z M12.4056259,20.9552065 C12.4056259,20.9552065 11.7332108,20.7531984 12.9023741,20.1655385 C12.9023741,20.1655385 18.5722378,17.4495061 19.2445103,17.4495061 C19.2445103,17.4495061 19.8908108,17.3731336 19.5919914,17.7813765 C19.5658768,17.9339757 18.9942097,18.0826397 18.3743092,18.2849393 L13.5747892,20.4975547 C13.5747892,20.4975547 12.8275978,20.9552065 12.4056259,20.9552065 Z M10.2877751,21.2872227 C10.2877751,21.2872227 11.4082768,20.6005992 11.1616865,21.5389312 L10.3885232,22.0502186 C10.3885232,22.0502186 9.91417946,22.2257004 9.74250811,21.9739919 C9.74250811,21.9739919 9.59309838,21.6686478 10.2877751,21.2872227 Z" id="Fill-77" fill="#1B1A19"></path>
                    </g>
                </g>
            </g>
        </g>
    </g>
</svg>