<?xml version="1.0" encoding="UTF-8" standalone="no"?>
<svg width="268px" height="68px" viewBox="0 0 268 68" version="1.1" xmlns="http://www.w3.org/2000/svg" xmlns:xlink="http://www.w3.org/1999/xlink">
    <!-- Generator: Sketch 3.6.1 (26313) - http://www.bohemiancoding.com/sketch -->
    <title>logo vertical</title>
    <desc>Created with Sketch.</desc>
    <defs></defs>
    <g id="Page-1" stroke="none" stroke-width="1" fill="none" fill-rule="evenodd">
        <g id="logo-vertical">
            <g id="Petal-logo-Copy-3">
                <path d="M42.0181382,0.574972315 C48.5988959,0.574972315 52.3339206,5.18183832 52.3339206,10.3202658 C52.3339206,18.3822813 46.0199503,23.6093023 34.637018,23.6093023 C33.0362932,23.6093023 31.25771,23.5207087 29.3901977,23.4321152 C29.3012685,21.5716501 29.2123393,19.7997785 29.2123393,18.2050941 C29.2123393,6.86511628 34.4591597,0.574972315 42.0181382,0.574972315 L42.0181382,0.574972315 Z" id="Path" fill="#87D447"></path>
                <path d="M42.0181382,51.959247 C34.4591597,51.959247 29.2123393,45.669103 29.2123393,34.3291251 C29.2123393,32.7344408 29.3012685,30.9625692 29.3901977,29.1021041 C31.25771,29.0135105 33.0362932,28.9249169 34.637018,28.9249169 C46.0199503,28.9249169 52.3339206,34.151938 52.3339206,42.2139535 C52.3339206,47.352381 48.5988959,51.959247 42.0181382,51.959247 L42.0181382,51.959247 Z" id="Path" fill="#50AFCD"></path>
                <path d="M11.070791,51.959247 C4.49003322,51.959247 0.755008557,47.352381 0.755008557,42.2139535 C0.755008557,34.151938 7.06897882,28.9249169 18.4519111,28.9249169 C20.052636,28.9249169 21.8312192,29.0135105 23.6987315,29.1021041 C23.7876607,30.9625692 23.8765898,32.7344408 23.8765898,34.3291251 C23.8765898,45.669103 18.6297695,51.959247 11.070791,51.959247 L11.070791,51.959247 Z" id="Path" fill="#EFAA02"></path>
                <path d="M11.070791,0.574972315 C18.6297695,0.574972315 23.8765898,6.86511628 23.8765898,18.2050941 C23.8765898,19.7997785 23.7876607,21.5716501 23.6987315,23.4321152 C21.8312192,23.5207087 20.052636,23.6093023 18.4519111,23.6093023 C7.06897882,23.6093023 0.755008557,18.3822813 0.755008557,10.3202658 C0.755008557,5.18183832 4.49003322,0.574972315 11.070791,0.574972315 L11.070791,0.574972315 Z" id="Path" fill="#D95423"></path>
            </g>
            <path d="M83.912,48.096 L83.912,47.232 C82.832,47.232 82.328,46.584 82.328,44.928 L82.328,1.368 C82.328,0.576 81.752,0 80.96,0 L74.84,0 C74.048,0 73.472,0.576 73.472,1.368 L73.472,19.152 C72.896,17.784 71.24,16.632 68.36,16.632 C62.24,16.632 59,21.528 59,34.272 C59,47.016 62.24,51.912 68.36,51.912 C70.88,51.912 73.04,50.904 73.904,49.176 C74.624,51.12 76.28,51.984 78.656,51.984 C82.976,51.984 83.912,49.896 83.912,48.096 L83.912,48.096 Z M73.472,44.856 C72.896,45.144 72.248,45.36 71.384,45.36 C69.368,45.36 67.856,44.424 67.856,34.272 C67.856,24.048 69.368,23.184 71.384,23.184 C72.248,23.184 72.896,23.4 73.472,23.688 L73.472,44.856 Z M109.616,48.096 L109.616,47.232 C108.536,47.232 108.032,46.584 108.032,44.928 L108.032,26.784 C108.032,19.728 104.36,16.56 97.448,16.56 C91.544,16.56 86.936,19.584 86.936,26.424 C86.936,27.72 87.872,28.152 88.736,28.152 L93.2,28.152 C94.208,28.152 94.568,27.576 94.496,26.208 C94.424,24.696 94.784,22.896 97.088,22.896 C99.176,22.896 99.68,24.408 99.68,26.136 L99.68,31.536 C98.528,31.32 97.232,31.104 95.36,31.104 C88.304,31.104 85.712,36.144 85.712,41.472 C85.712,47.016 87.872,51.984 93.704,51.984 C96.8,51.984 99.104,51.048 100.04,49.104 C100.616,51.12 101.912,51.984 104.288,51.984 C108.68,51.984 109.616,49.896 109.616,48.096 L109.616,48.096 Z M99.68,45.36 C98.888,45.936 97.952,46.368 96.8,46.296 C94.928,46.152 94.064,44.712 94.064,41.544 C94.064,38.232 94.928,36.216 97.592,36.144 C98.24,36.144 98.888,36.144 99.68,36.216 L99.68,45.36 Z M121.568,50.184 L121.568,18.36 C121.568,17.568 120.992,16.992 120.2,16.992 L114.08,16.992 C113.288,16.992 112.712,17.568 112.712,18.36 L112.712,50.184 C112.712,50.976 113.288,51.552 114.08,51.552 L120.2,51.552 C120.992,51.552 121.568,50.976 121.568,50.184 L121.568,50.184 Z M121.712,7.128 C121.712,4.536 119.696,2.52 117.104,2.52 C114.584,2.52 112.496,4.536 112.496,7.128 C112.496,9.648 114.584,11.736 117.104,11.736 C119.696,11.736 121.712,9.648 121.712,7.128 L121.712,7.128 Z M135.032,50.184 L135.032,1.368 C135.032,0.576 134.456,0 133.664,0 L127.544,0 C126.752,0 126.176,0.576 126.176,1.368 L126.176,50.184 C126.176,50.976 126.752,51.552 127.544,51.552 L133.664,51.552 C134.456,51.552 135.032,50.976 135.032,50.184 L135.032,50.184 Z M162.896,51.768 L162.896,18.36 C162.896,17.568 162.32,16.992 161.528,16.992 L155.408,16.992 C154.616,16.992 154.04,17.568 154.04,18.36 L154.04,44.424 C152.96,45 151.664,45.288 150.728,45.288 C149.216,45.288 148.424,44.568 148.424,42.768 L148.424,18.36 C148.424,17.568 147.848,16.992 147.056,16.992 L140.936,16.992 C140.144,16.992 139.568,17.568 139.568,18.36 L139.568,42.984 C139.568,48.816 142.016,51.984 147.344,51.984 C150.296,51.984 152.672,50.688 154.04,49.392 L154.04,52.128 C154.04,57.672 152.744,60.192 148.424,60.192 C147.272,60.192 145.976,59.904 145.04,59.544 C144.392,59.256 143.744,59.04 143.312,59.04 C142.664,59.04 142.304,59.4 142.304,60.12 L142.304,65.16 C142.304,66.744 146.912,67.608 149.432,67.608 C158.864,67.608 162.896,62.28 162.896,51.768 L162.896,51.768 Z M190.832,50.184 L190.832,25.56 C190.832,19.728 188.384,16.56 183.128,16.56 C180.032,16.56 177.584,18.144 176.36,19.512 L176.36,1.368 C176.36,0.576 175.784,0 174.992,0 L168.872,0 C168.08,0 167.504,0.576 167.504,1.368 L167.504,50.184 C167.504,50.976 168.08,51.552 168.872,51.552 L174.992,51.552 C175.784,51.552 176.36,50.976 176.36,50.184 L176.36,24.12 C177.512,23.544 178.808,23.256 179.744,23.256 C181.256,23.256 181.976,23.976 181.976,25.776 L181.976,50.184 C181.976,50.976 182.552,51.552 183.344,51.552 L189.464,51.552 C190.256,51.552 190.832,50.976 190.832,50.184 L190.832,50.184 Z M220.208,48.096 L220.208,47.232 C219.128,47.232 218.624,46.584 218.624,44.928 L218.624,18.36 C218.624,17.568 218.048,16.992 217.256,16.992 L211.136,16.992 C210.344,16.992 209.768,17.568 209.768,18.36 L209.768,44.424 C208.688,45 207.392,45.288 206.456,45.288 C204.944,45.288 204.152,44.568 204.152,42.768 L204.152,18.36 C204.152,17.568 203.576,16.992 202.784,16.992 L196.664,16.992 C195.872,16.992 195.296,17.568 195.296,18.36 L195.296,42.984 C195.296,48.816 197.744,51.984 203.072,51.984 C206.312,51.984 208.76,50.472 210.128,49.032 C210.848,51.048 212.504,51.984 214.952,51.984 C219.272,51.984 220.208,49.896 220.208,48.096 L220.208,48.096 Z M246.632,50.184 L246.632,25.56 C246.632,19.728 244.184,16.56 238.928,16.56 C235.616,16.56 233.312,18.072 231.944,19.44 C231.44,17.784 229.928,16.992 228.2,16.992 L224.672,16.992 C223.88,16.992 223.304,17.568 223.304,18.36 L223.304,50.184 C223.304,50.976 223.88,51.552 224.672,51.552 L230.792,51.552 C231.584,51.552 232.16,50.976 232.16,50.184 L232.16,24.12 C233.312,23.544 234.608,23.256 235.544,23.256 C237.056,23.256 237.776,23.976 237.776,25.776 L237.776,50.184 C237.776,50.976 238.352,51.552 239.144,51.552 L245.264,51.552 C246.056,51.552 246.632,50.976 246.632,50.184 L246.632,50.184 Z M261.608,22.896 L265.28,22.896 C266.072,22.896 266.648,22.32 266.648,21.528 L266.648,18.36 C266.648,17.568 266.072,16.992 265.28,16.992 L261.608,16.992 L261.608,10.008 C261.608,9.216 261.032,8.64 260.24,8.64 L254.12,8.64 C253.328,8.64 252.752,9.216 252.752,10.008 L252.752,16.992 L250.304,16.992 C249.512,16.992 248.936,17.568 248.936,18.36 L248.936,21.528 C248.936,22.32 249.512,22.896 250.304,22.896 L252.752,22.896 L252.752,45.36 C252.752,49.824 255.056,52.056 259.376,52.056 C262.112,52.056 263.912,51.624 265.856,50.4 C266.648,49.896 267.08,49.104 267.08,47.592 L267.08,46.152 C267.08,45.288 266.72,45 266.144,45 C265.784,45 265.496,45.144 265.064,45.288 C264.344,45.504 263.984,45.648 263.336,45.648 C262.04,45.648 261.608,44.928 261.608,43.272 L261.608,22.896 Z" id="dailyhunt-copy-3" fill="#3C3C3C"></path>
        </g>
    </g>
</svg>