<?xml version="1.0" encoding="UTF-8"?>
<svg width="29px" height="29px" viewBox="0 0 29 29" version="1.1" xmlns="http://www.w3.org/2000/svg" xmlns:xlink="http://www.w3.org/1999/xlink">
    <!-- Generator: Sketch 46.2 (44496) - http://www.bohemiancoding.com/sketch -->
    <title>Petal logo Copy 3</title>
    <desc>Created with Sketch.</desc>
    <defs></defs>
    <g id="V2" stroke="none" stroke-width="1" fill="none" fill-rule="evenodd">
        <g id="Story-Details-banner-compact" transform="translate(-45.000000, -15.000000)">
            <g id="Banner">
                <g id="logo-vertical-copy-2" transform="translate(40.000000, 10.000000)">
                    <g id="logo">
                        <g id="Petal-logo-Copy-3" transform="translate(5.000000, 5.000000)">
                            <path d="M23.2619884,0.317080321 C26.9052129,0.317080321 28.972989,2.85763142 28.972989,5.69132304 C28.972989,10.1372875 25.4774628,13.0198358 19.175669,13.0198358 C18.2894793,13.0198358 17.304824,12.9709791 16.270936,12.9221223 C16.2217032,11.8961305 16.1724705,10.9189955 16.1724705,10.039574 C16.1724705,3.78590971 19.0772035,0.317080321 23.2619884,0.317080321 L23.2619884,0.317080321 Z" id="Path" fill="#87D447"></path>
                            <path d="M23.2619884,28.6539965 C19.0772035,28.6539965 16.1724705,25.1851671 16.1724705,18.9315028 C16.1724705,18.0520813 16.2217032,17.0749463 16.270936,16.0489545 C17.304824,16.0000977 18.2894793,15.951241 19.175669,15.951241 C25.4774628,15.951241 28.972989,18.8337893 28.972989,23.2797538 C28.972989,26.1134454 26.9052129,28.6539965 23.2619884,28.6539965 L23.2619884,28.6539965 Z" id="Path" fill="#50AFCD"></path>
                            <path d="M6.12898672,28.6539965 C2.48576223,28.6539965 0.417986162,26.1134454 0.417986162,23.2797538 C0.417986162,18.8337893 3.91351237,15.951241 10.2153061,15.951241 C11.1014958,15.951241 12.0861511,16.0000977 13.1200391,16.0489545 C13.1692719,17.0749463 13.2185047,18.0520813 13.2185047,18.9315028 C13.2185047,25.1851671 10.3137716,28.6539965 6.12898672,28.6539965 L6.12898672,28.6539965 Z" id="Path" fill="#EFAA02"></path>
                            <path d="M6.12898672,0.317080321 C10.3137716,0.317080321 13.2185047,3.78590971 13.2185047,10.039574 C13.2185047,10.9189955 13.1692719,11.8961305 13.1200391,12.9221223 C12.0861511,12.9709791 11.1014958,13.0198358 10.2153061,13.0198358 C3.91351237,13.0198358 0.417986162,10.1372875 0.417986162,5.69132304 C0.417986162,2.85763142 2.48576223,0.317080321 6.12898672,0.317080321 L6.12898672,0.317080321 Z" id="Path" fill="#D95423"></path>
                        </g>
                    </g>
                </g>
            </g>
        </g>
    </g>
</svg>