<?xml version="1.0" encoding="UTF-8" standalone="no"?>
<svg width="196px" height="50px" viewBox="0 0 196 50" version="1.1" xmlns="http://www.w3.org/2000/svg" xmlns:xlink="http://www.w3.org/1999/xlink">
    <!-- Generator: Sketch 41.2 (35397) - http://www.bohemiancoding.com/sketch -->
    <title>logo-vertical</title>
    <desc>Created with Sketch.</desc>
    <defs></defs>
    <g id="Page-1" stroke="none" stroke-width="1" fill="none" fill-rule="evenodd">
        <g id="logo-vertical">
            <g id="Petal-logo-Copy-3">
                <path d="M30.7296832,0.422773761 C35.5424761,0.422773761 38.2740613,3.81017524 38.2740613,7.58843074 C38.2740613,13.5163833 33.6563816,17.3597811 25.3315505,17.3597811 C24.1608711,17.3597811 22.8601163,17.2946388 21.4943237,17.2294965 C21.4292859,15.8615074 21.3642481,14.5586607 21.3642481,13.3860986 C21.3642481,5.04787962 25.201475,0.422773761 30.7296832,0.422773761 L30.7296832,0.422773761 L30.7296832,0.422773761 Z" id="Path" fill="#87D447"></path>
                <path d="M30.7296832,38.2053287 C25.201475,38.2053287 21.3642481,33.5802228 21.3642481,25.2420037 C21.3642481,24.0694418 21.4292859,22.766595 21.4943237,21.398606 C22.8601163,21.3334636 24.1608711,21.2683212 25.3315505,21.2683212 C33.6563816,21.2683212 38.2740613,25.1117191 38.2740613,31.0396717 C38.2740613,34.8179272 35.5424761,38.2053287 30.7296832,38.2053287 L30.7296832,38.2053287 L30.7296832,38.2053287 Z" id="Path" fill="#50AFCD"></path>
                <path d="M8.09654864,38.2053287 C3.28375564,38.2053287 0.552170437,34.8179272 0.552170437,31.0396717 C0.552170437,25.1117191 5.16985018,21.2683212 13.4946813,21.2683212 C14.6653607,21.2683212 15.9661155,21.3334636 17.3319081,21.398606 C17.3969459,22.766595 17.4619836,24.0694418 17.4619836,25.2420037 C17.4619836,33.5802228 13.6247568,38.2053287 8.09654864,38.2053287 L8.09654864,38.2053287 L8.09654864,38.2053287 Z" id="Path" fill="#EFAA02"></path>
                <path d="M8.09654864,0.422773761 C13.6247568,0.422773761 17.4619836,5.04787962 17.4619836,13.3860986 C17.4619836,14.5586607 17.3969459,15.8615074 17.3319081,17.2294965 C15.9661155,17.2946388 14.6653607,17.3597811 13.4946813,17.3597811 C5.16985018,17.3597811 0.552170437,13.5163833 0.552170437,7.58843074 C0.552170437,3.81017524 3.28375564,0.422773761 8.09654864,0.422773761 L8.09654864,0.422773761 L8.09654864,0.422773761 Z" id="Path" fill="#D95423"></path>
            </g>
            <path d="M61.3684776,35.3647059 L61.3684776,34.7294118 C60.5786269,34.7294118 60.2100299,34.2529412 60.2100299,33.0352941 L60.2100299,1.00588235 C60.2100299,0.423529412 59.7887761,0 59.2095522,0 L54.7337313,0 C54.1545075,0 53.7332537,0.423529412 53.7332537,1.00588235 L53.7332537,14.0823529 C53.312,13.0764706 52.1008955,12.2294118 49.9946269,12.2294118 C45.518806,12.2294118 43.1492537,15.8294118 43.1492537,25.2 C43.1492537,34.5705882 45.518806,38.1705882 49.9946269,38.1705882 C51.8376119,38.1705882 53.4173134,37.4294118 54.049194,36.1588235 C54.5757612,37.5882353 55.7868657,38.2235294 57.5245373,38.2235294 C60.6839403,38.2235294 61.3684776,36.6882353 61.3684776,35.3647059 L61.3684776,35.3647059 L61.3684776,35.3647059 Z M53.7332537,32.9823529 C53.312,33.1941176 52.8380896,33.3529412 52.206209,33.3529412 C50.7318209,33.3529412 49.6260299,32.6647059 49.6260299,25.2 C49.6260299,17.6823529 50.7318209,17.0470588 52.206209,17.0470588 C52.8380896,17.0470588 53.312,17.2058824 53.7332537,17.4176471 L53.7332537,32.9823529 L53.7332537,32.9823529 Z M80.1669254,35.3647059 L80.1669254,34.7294118 C79.3770746,34.7294118 79.0084776,34.2529412 79.0084776,33.0352941 L79.0084776,19.6941176 C79.0084776,14.5058824 76.3229851,12.1764706 71.2679403,12.1764706 C66.9500896,12.1764706 63.5800597,14.4 63.5800597,19.4294118 C63.5800597,20.3823529 64.264597,20.7 64.8964776,20.7 L68.161194,20.7 C68.8983881,20.7 69.1616716,20.2764706 69.1090149,19.2705882 C69.0563582,18.1588235 69.3196418,16.8352941 71.0046567,16.8352941 C72.5317015,16.8352941 72.9002985,17.9470588 72.9002985,19.2176471 L72.9002985,23.1882353 C72.057791,23.0294118 71.1099701,22.8705882 69.7408955,22.8705882 C64.5805373,22.8705882 62.6848955,26.5764706 62.6848955,30.4941176 C62.6848955,34.5705882 64.264597,38.2235294 68.529791,38.2235294 C70.7940299,38.2235294 72.4790448,37.5352941 73.1635821,36.1058824 C73.5848358,37.5882353 74.5326567,38.2235294 76.2703284,38.2235294 C79.4823881,38.2235294 80.1669254,36.6882353 80.1669254,35.3647059 L80.1669254,35.3647059 L80.1669254,35.3647059 Z M72.9002985,33.3529412 C72.3210746,33.7764706 71.6365373,34.0941176 70.7940299,34.0411765 C69.4249552,33.9352941 68.7930746,32.8764706 68.7930746,30.5470588 C68.7930746,28.1117647 69.4249552,26.6294118 71.3732537,26.5764706 C71.8471642,26.5764706 72.3210746,26.5764706 72.9002985,26.6294118 L72.9002985,33.3529412 L72.9002985,33.3529412 Z M88.9079403,36.9 L88.9079403,13.5 C88.9079403,12.9176471 88.4866866,12.4941176 87.9074627,12.4941176 L83.4316418,12.4941176 C82.8524179,12.4941176 82.4311642,12.9176471 82.4311642,13.5 L82.4311642,36.9 C82.4311642,37.4823529 82.8524179,37.9058824 83.4316418,37.9058824 L87.9074627,37.9058824 C88.4866866,37.9058824 88.9079403,37.4823529 88.9079403,36.9 L88.9079403,36.9 L88.9079403,36.9 Z M89.0132537,5.24117647 C89.0132537,3.33529412 87.5388657,1.85294118 85.6432239,1.85294118 C83.8002388,1.85294118 82.273194,3.33529412 82.273194,5.24117647 C82.273194,7.09411765 83.8002388,8.62941176 85.6432239,8.62941176 C87.5388657,8.62941176 89.0132537,7.09411765 89.0132537,5.24117647 L89.0132537,5.24117647 L89.0132537,5.24117647 Z M98.7547463,36.9 L98.7547463,1.00588235 C98.7547463,0.423529412 98.3334925,0 97.7542687,0 L93.2784478,0 C92.6992239,0 92.2779701,0.423529412 92.2779701,1.00588235 L92.2779701,36.9 C92.2779701,37.4823529 92.6992239,37.9058824 93.2784478,37.9058824 L97.7542687,37.9058824 C98.3334925,37.9058824 98.7547463,37.4823529 98.7547463,36.9 L98.7547463,36.9 L98.7547463,36.9 Z M119.132896,38.0647059 L119.132896,13.5 C119.132896,12.9176471 118.711642,12.4941176 118.132418,12.4941176 L113.656597,12.4941176 C113.077373,12.4941176 112.656119,12.9176471 112.656119,13.5 L112.656119,32.6647059 C111.866269,33.0882353 110.918448,33.3 110.23391,33.3 C109.128119,33.3 108.548896,32.7705882 108.548896,31.4470588 L108.548896,13.5 C108.548896,12.9176471 108.127642,12.4941176 107.548418,12.4941176 L103.072597,12.4941176 C102.493373,12.4941176 102.072119,12.9176471 102.072119,13.5 L102.072119,31.6058824 C102.072119,35.8941176 103.862448,38.2235294 107.759045,38.2235294 C109.91797,38.2235294 111.655642,37.2705882 112.656119,36.3176471 L112.656119,38.3294118 C112.656119,42.4058824 111.708299,44.2588235 108.548896,44.2588235 C107.706388,44.2588235 106.758567,44.0470588 106.07403,43.7823529 C105.600119,43.5705882 105.126209,43.4117647 104.810269,43.4117647 C104.336358,43.4117647 104.073075,43.6764706 104.073075,44.2058824 L104.073075,47.9117647 C104.073075,49.0764706 107.443104,49.7117647 109.28609,49.7117647 C116.184119,49.7117647 119.132896,45.7941176 119.132896,38.0647059 L119.132896,38.0647059 L119.132896,38.0647059 Z M139.563701,36.9 L139.563701,18.7941176 C139.563701,14.5058824 137.773373,12.1764706 133.929433,12.1764706 C131.665194,12.1764706 129.874866,13.3411765 128.979701,14.3470588 L128.979701,1.00588235 C128.979701,0.423529412 128.558448,0 127.979224,0 L123.503403,0 C122.924179,0 122.502925,0.423529412 122.502925,1.00588235 L122.502925,36.9 C122.502925,37.4823529 122.924179,37.9058824 123.503403,37.9058824 L127.979224,37.9058824 C128.558448,37.9058824 128.979701,37.4823529 128.979701,36.9 L128.979701,17.7352941 C129.822209,17.3117647 130.77003,17.1 131.454567,17.1 C132.560358,17.1 133.086925,17.6294118 133.086925,18.9529412 L133.086925,36.9 C133.086925,37.4823529 133.508179,37.9058824 134.087403,37.9058824 L138.563224,37.9058824 C139.142448,37.9058824 139.563701,37.4823529 139.563701,36.9 L139.563701,36.9 L139.563701,36.9 Z M161.047642,35.3647059 L161.047642,34.7294118 C160.257791,34.7294118 159.889194,34.2529412 159.889194,33.0352941 L159.889194,13.5 C159.889194,12.9176471 159.46794,12.4941176 158.888716,12.4941176 L154.412896,12.4941176 C153.833672,12.4941176 153.412418,12.9176471 153.412418,13.5 L153.412418,32.6647059 C152.622567,33.0882353 151.674746,33.3 150.990209,33.3 C149.884418,33.3 149.305194,32.7705882 149.305194,31.4470588 L149.305194,13.5 C149.305194,12.9176471 148.88394,12.4941176 148.304716,12.4941176 L143.828896,12.4941176 C143.249672,12.4941176 142.828418,12.9176471 142.828418,13.5 L142.828418,31.6058824 C142.828418,35.8941176 144.618746,38.2235294 148.515343,38.2235294 C150.884896,38.2235294 152.675224,37.1117647 153.675701,36.0529412 C154.202269,37.5352941 155.413373,38.2235294 157.203701,38.2235294 C160.363104,38.2235294 161.047642,36.6882353 161.047642,35.3647059 L161.047642,35.3647059 L161.047642,35.3647059 Z M180.372657,36.9 L180.372657,18.7941176 C180.372657,14.5058824 178.582328,12.1764706 174.738388,12.1764706 C172.316179,12.1764706 170.631164,13.2882353 169.630687,14.2941176 C169.26209,13.0764706 168.156299,12.4941176 166.892537,12.4941176 L164.312358,12.4941176 C163.733134,12.4941176 163.311881,12.9176471 163.311881,13.5 L163.311881,36.9 C163.311881,37.4823529 163.733134,37.9058824 164.312358,37.9058824 L168.788179,37.9058824 C169.367403,37.9058824 169.788657,37.4823529 169.788657,36.9 L169.788657,17.7352941 C170.631164,17.3117647 171.578985,17.1 172.263522,17.1 C173.369313,17.1 173.895881,17.6294118 173.895881,18.9529412 L173.895881,36.9 C173.895881,37.4823529 174.317134,37.9058824 174.896358,37.9058824 L179.372179,37.9058824 C179.951403,37.9058824 180.372657,37.4823529 180.372657,36.9 L180.372657,36.9 L180.372657,36.9 Z M191.325254,16.8352941 L194.010746,16.8352941 C194.58997,16.8352941 195.011224,16.4117647 195.011224,15.8294118 L195.011224,13.5 C195.011224,12.9176471 194.58997,12.4941176 194.010746,12.4941176 L191.325254,12.4941176 L191.325254,7.35882353 C191.325254,6.77647059 190.904,6.35294118 190.324776,6.35294118 L185.848955,6.35294118 C185.269731,6.35294118 184.848478,6.77647059 184.848478,7.35882353 L184.848478,12.4941176 L183.058149,12.4941176 C182.478925,12.4941176 182.057672,12.9176471 182.057672,13.5 L182.057672,15.8294118 C182.057672,16.4117647 182.478925,16.8352941 183.058149,16.8352941 L184.848478,16.8352941 L184.848478,33.3529412 C184.848478,36.6352941 186.533493,38.2764706 189.692896,38.2764706 C191.693851,38.2764706 193.010269,37.9588235 194.432,37.0588235 C195.011224,36.6882353 195.327164,36.1058824 195.327164,34.9941176 L195.327164,33.9352941 C195.327164,33.3 195.063881,33.0882353 194.642627,33.0882353 C194.379343,33.0882353 194.168716,33.1941176 193.852776,33.3 C193.326209,33.4588235 193.062925,33.5647059 192.589015,33.5647059 C191.641194,33.5647059 191.325254,33.0352941 191.325254,31.8176471 L191.325254,16.8352941 L191.325254,16.8352941 Z" id="dailyhunt-copy-3" fill="#3C3C3C"></path>
        </g>
    </g>
</svg>