<?xml version="1.0" encoding="UTF-8" standalone="no"?>
<svg width="200px" height="141px" viewBox="0 0 200 141" version="1.1" xmlns="http://www.w3.org/2000/svg" xmlns:xlink="http://www.w3.org/1999/xlink">
    <!-- Generator: Sketch 41.2 (35397) - http://www.bohemiancoding.com/sketch -->
    <title>Petal logo Copy + dailyhunt copy</title>
    <desc>Created with Sketch.</desc>
    <defs></defs>
    <g id="Page-1" stroke="none" stroke-width="1" fill="none" fill-rule="evenodd">
        <g id="Petal-logo-Copy-+-dailyhunt-copy">
            <g id="Petal-logo-Copy" transform="translate(68.215446, 0.000000)">
                <path d="M50.2723564,0.690528039 C58.1458656,0.690528039 62.6146141,6.22326425 62.6146141,12.3943931 C62.6146141,22.0766815 55.0603012,28.3542091 41.4412582,28.3542091 C39.5260803,28.3542091 37.3981048,28.2478103 35.1637306,28.1414115 C35.0573318,25.9070373 34.950933,23.7790618 34.950933,21.8638839 C34.950933,8.24484094 41.2284607,0.690528039 50.2723564,0.690528039 L50.2723564,0.690528039 Z" id="Path" fill="#87D447"></path>
                <path d="M50.2723564,62.4018165 C41.2284607,62.4018165 34.950933,54.8475036 34.950933,41.2284607 C34.950933,39.3132827 35.0573318,37.1853073 35.1637306,34.950933 C37.3981048,34.8445343 39.5260803,34.7381355 41.4412582,34.7381355 C55.0603012,34.7381355 62.6146141,41.0156631 62.6146141,50.6979515 C62.6146141,56.8690803 58.1458656,62.4018165 50.2723564,62.4018165 L50.2723564,62.4018165 Z" id="Path" fill="#50AFCD"></path>
                <path d="M13.2455833,62.4018165 C5.37207406,62.4018165 0.903325585,56.8690803 0.903325585,50.6979515 C0.903325585,41.0156631 8.45763849,34.7381355 22.0766815,34.7381355 C23.9918594,34.7381355 26.1198349,34.8445343 28.3542091,34.950933 C28.4606079,37.1853073 28.5670066,39.3132827 28.5670066,41.2284607 C28.5670066,54.8475036 22.289479,62.4018165 13.2455833,62.4018165 L13.2455833,62.4018165 Z" id="Path" fill="#EFAA02"></path>
                <path d="M13.2455833,0.690528039 C22.289479,0.690528039 28.5670066,8.24484094 28.5670066,21.8638839 C28.5670066,23.7790618 28.4606079,25.9070373 28.3542091,28.1414115 C26.1198349,28.2478103 23.9918594,28.3542091 22.0766815,28.3542091 C8.45763849,28.3542091 0.903325585,22.0766815 0.903325585,12.3943931 C0.903325585,6.22326425 5.37207406,0.690528039 13.2455833,0.690528039 L13.2455833,0.690528039 Z" id="Path" fill="#D95423"></path>
            </g>
            <path d="M23.9349743,122.111412 L23.9349743,121.281297 C22.897331,121.281297 22.4130974,120.658711 22.4130974,119.067658 L22.4130974,77.2160412 C22.4130974,76.4551027 21.8596876,75.9016929 21.0987491,75.9016929 L15.2187698,75.9016929 C14.4578313,75.9016929 13.9044215,76.4551027 13.9044215,77.2160412 L13.9044215,94.3025691 C13.3510117,92.9882208 11.7599585,91.8814012 8.99290944,91.8814012 C3.11293019,91.8814012 0,96.5853846 0,108.829577 C0,121.073769 3.11293019,125.777752 8.99290944,125.777752 C11.4140774,125.777752 13.4893642,124.809285 14.3194789,123.149056 C15.0112411,125.016814 16.6022943,125.846928 18.8851098,125.846928 C23.0356834,125.846928 23.9349743,123.840818 23.9349743,122.111412 L23.9349743,122.111412 Z M13.9044215,118.998482 C13.3510117,119.275187 12.7284257,119.482716 11.8983109,119.482716 C9.96137661,119.482716 8.50867585,118.583425 8.50867585,108.829577 C8.50867585,99.0065525 9.96137661,98.1764378 11.8983109,98.1764378 C12.7284257,98.1764378 13.3510117,98.3839665 13.9044215,98.6606714 L13.9044215,118.998482 Z M48.6308872,122.111412 L48.6308872,121.281297 C47.5932438,121.281297 47.1090102,120.658711 47.1090102,119.067658 L47.1090102,101.635249 C47.1090102,94.8559789 43.5810227,91.812225 36.9401049,91.812225 C31.2676543,91.812225 26.8403759,94.7176265 26.8403759,101.289368 C26.8403759,102.53454 27.7396668,102.949597 28.5697815,102.949597 L32.8587076,102.949597 C33.8271747,102.949597 34.1730559,102.396188 34.1038796,101.081839 C34.0347034,99.6291386 34.3805845,97.8997329 36.5942238,97.8997329 C38.6003344,97.8997329 39.0845679,99.3524337 39.0845679,101.012663 L39.0845679,106.20088 C37.9777483,105.993351 36.7325762,105.785823 34.9339944,105.785823 C28.1547242,105.785823 25.66438,110.628159 25.66438,115.747199 C25.66438,121.073769 27.7396668,125.846928 33.3429411,125.846928 C36.3175189,125.846928 38.5311581,124.947637 39.4304491,123.079879 C39.9838589,125.016814 41.229031,125.846928 43.5118464,125.846928 C47.7315962,125.846928 48.6308872,123.840818 48.6308872,122.111412 L48.6308872,122.111412 Z M39.0845679,119.482716 C38.3236294,120.036125 37.4243385,120.451183 36.3175189,120.382006 C34.518937,120.243654 33.6888223,118.86013 33.6888223,115.816376 C33.6888223,112.634269 34.518937,110.697335 37.0784574,110.628159 C37.7010434,110.628159 38.3236294,110.628159 39.0845679,110.697335 L39.0845679,119.482716 Z M60.1141408,124.117523 L60.1141408,93.5416306 C60.1141408,92.7806921 59.560731,92.2272823 58.7997925,92.2272823 L52.9198132,92.2272823 C52.1588747,92.2272823 51.6054649,92.7806921 51.6054649,93.5416306 L51.6054649,124.117523 C51.6054649,124.878461 52.1588747,125.431871 52.9198132,125.431871 L58.7997925,125.431871 C59.560731,125.431871 60.1141408,124.878461 60.1141408,124.117523 L60.1141408,124.117523 Z M60.2524932,82.7501393 C60.2524932,80.2597952 58.3155589,78.3228608 55.8252147,78.3228608 C53.4040468,78.3228608 51.3979362,80.2597952 51.3979362,82.7501393 C51.3979362,85.1713072 53.4040468,87.1774178 55.8252147,87.1774178 C58.3155589,87.1774178 60.2524932,85.1713072 60.2524932,82.7501393 L60.2524932,82.7501393 Z M73.0500951,124.117523 L73.0500951,77.2160412 C73.0500951,76.4551027 72.4966853,75.9016929 71.7357468,75.9016929 L65.8557676,75.9016929 C65.0948291,75.9016929 64.5414193,76.4551027 64.5414193,77.2160412 L64.5414193,124.117523 C64.5414193,124.878461 65.0948291,125.431871 65.8557676,125.431871 L71.7357468,125.431871 C72.4966853,125.431871 73.0500951,124.878461 73.0500951,124.117523 L73.0500951,124.117523 Z M99.8212947,125.6394 L99.8212947,93.5416306 C99.8212947,92.7806921 99.2678849,92.2272823 98.5069464,92.2272823 L92.6269672,92.2272823 C91.8660287,92.2272823 91.3126189,92.7806921 91.3126189,93.5416306 L91.3126189,118.583425 C90.2749755,119.136834 89.0298034,119.413539 88.1305125,119.413539 C86.6778117,119.413539 85.9168732,118.721777 85.9168732,116.992371 L85.9168732,93.5416306 C85.9168732,92.7806921 85.3634634,92.2272823 84.6025249,92.2272823 L78.7225457,92.2272823 C77.9616072,92.2272823 77.4081974,92.7806921 77.4081974,93.5416306 L77.4081974,117.1999 C77.4081974,122.803174 79.7601891,125.846928 84.8792298,125.846928 C87.7154551,125.846928 89.9982706,124.601756 91.3126189,123.356584 L91.3126189,125.985281 C91.3126189,131.31185 90.0674468,133.733018 85.9168732,133.733018 C84.8100536,133.733018 83.5648815,133.456313 82.6655906,133.110432 C82.0430046,132.833727 81.4204185,132.626199 81.0053612,132.626199 C80.3827751,132.626199 80.036894,132.97208 80.036894,133.663842 L80.036894,138.506178 C80.036894,140.028055 84.4641725,140.85817 86.8853404,140.85817 C95.9474261,140.85817 99.8212947,135.739129 99.8212947,125.6394 L99.8212947,125.6394 Z M126.661671,124.117523 L126.661671,100.459253 C126.661671,94.8559789 124.309679,91.812225 119.259814,91.812225 C116.285237,91.812225 113.933245,93.334102 112.757249,94.6484503 L112.757249,77.2160412 C112.757249,76.4551027 112.203839,75.9016929 111.442901,75.9016929 L105.562922,75.9016929 C104.801983,75.9016929 104.248573,76.4551027 104.248573,77.2160412 L104.248573,124.117523 C104.248573,124.878461 104.801983,125.431871 105.562922,125.431871 L111.442901,125.431871 C112.203839,125.431871 112.757249,124.878461 112.757249,124.117523 L112.757249,99.0757288 C113.864069,98.5223189 115.109241,98.245614 116.008532,98.245614 C117.461232,98.245614 118.152995,98.9373763 118.152995,100.666782 L118.152995,124.117523 C118.152995,124.878461 118.706405,125.431871 119.467343,125.431871 L125.347322,125.431871 C126.108261,125.431871 126.661671,124.878461 126.661671,124.117523 L126.661671,124.117523 Z M154.885571,122.111412 L154.885571,121.281297 C153.847928,121.281297 153.363694,120.658711 153.363694,119.067658 L153.363694,93.5416306 C153.363694,92.7806921 152.810284,92.2272823 152.049346,92.2272823 L146.169366,92.2272823 C145.408428,92.2272823 144.855018,92.7806921 144.855018,93.5416306 L144.855018,118.583425 C143.817375,119.136834 142.572203,119.413539 141.672912,119.413539 C140.220211,119.413539 139.459272,118.721777 139.459272,116.992371 L139.459272,93.5416306 C139.459272,92.7806921 138.905863,92.2272823 138.144924,92.2272823 L132.264945,92.2272823 C131.504006,92.2272823 130.950597,92.7806921 130.950597,93.5416306 L130.950597,117.1999 C130.950597,122.803174 133.302588,125.846928 138.421629,125.846928 C141.534559,125.846928 143.886551,124.394228 145.200899,123.010703 C145.892662,124.947637 147.483715,125.846928 149.835706,125.846928 C153.98628,125.846928 154.885571,123.840818 154.885571,122.111412 L154.885571,122.111412 Z M180.273246,124.117523 L180.273246,100.459253 C180.273246,94.8559789 177.921254,91.812225 172.87139,91.812225 C169.689283,91.812225 167.475644,93.2649257 166.161296,94.579274 C165.677062,92.9882208 164.224362,92.2272823 162.564132,92.2272823 L159.174497,92.2272823 C158.413559,92.2272823 157.860149,92.7806921 157.860149,93.5416306 L157.860149,124.117523 C157.860149,124.878461 158.413559,125.431871 159.174497,125.431871 L165.054476,125.431871 C165.815415,125.431871 166.368825,124.878461 166.368825,124.117523 L166.368825,99.0757288 C167.475644,98.5223189 168.720816,98.245614 169.620107,98.245614 C171.072808,98.245614 171.76457,98.9373763 171.76457,100.666782 L171.76457,124.117523 C171.76457,124.878461 172.31798,125.431871 173.078919,125.431871 L178.958898,125.431871 C179.719836,125.431871 180.273246,124.878461 180.273246,124.117523 L180.273246,124.117523 Z M194.661901,97.8997329 L198.189889,97.8997329 C198.950827,97.8997329 199.504237,97.3463231 199.504237,96.5853846 L199.504237,93.5416306 C199.504237,92.7806921 198.950827,92.2272823 198.189889,92.2272823 L194.661901,92.2272823 L194.661901,85.5171884 C194.661901,84.7562499 194.108491,84.2028401 193.347553,84.2028401 L187.467574,84.2028401 C186.706635,84.2028401 186.153225,84.7562499 186.153225,85.5171884 L186.153225,92.2272823 L183.801234,92.2272823 C183.040295,92.2272823 182.486885,92.7806921 182.486885,93.5416306 L182.486885,96.5853846 C182.486885,97.3463231 183.040295,97.8997329 183.801234,97.8997329 L186.153225,97.8997329 L186.153225,119.482716 C186.153225,123.771642 188.366865,125.916105 192.517438,125.916105 C195.146135,125.916105 196.87554,125.501047 198.743299,124.325051 C199.504237,123.840818 199.919294,123.079879 199.919294,121.627179 L199.919294,120.243654 C199.919294,119.413539 199.573413,119.136834 199.020003,119.136834 C198.674122,119.136834 198.397417,119.275187 197.98236,119.413539 C197.290598,119.621068 196.944717,119.75942 196.322131,119.75942 C195.076959,119.75942 194.661901,119.067658 194.661901,117.476605 L194.661901,97.8997329 Z" id="dailyhunt-copy" fill="#3C3C3C"></path>
        </g>
    </g>
</svg>