<?xml version="1.0" encoding="UTF-8"?>
<svg width="32px" height="32px" viewBox="0 0 32 32" version="1.1" xmlns="http://www.w3.org/2000/svg" xmlns:xlink="http://www.w3.org/1999/xlink">
    <!-- Generator: Sketch 43 (38999) - http://www.bohemiancoding.com/sketch -->
    <title>Group 4</title>
    <desc>Created with Sketch.</desc>
    <defs></defs>
    <g id="Page-1" stroke="none" stroke-width="1" fill="none" fill-rule="evenodd">
        <g id="Petal-logo-Copy" transform="translate(-0.028708, 0.000000)">
            <g id="Group-4">
                <path d="M25.0356335,0.343882963 C28.9566411,0.343882963 31.1820778,3.0991856 31.1820778,6.17240776 C31.1820778,10.9941874 27.42003,14.1203961 20.6377466,14.1203961 C19.683988,14.1203961 18.6242562,14.0674095 17.5115378,14.0144229 C17.4585512,12.9017046 17.4055647,11.8419728 17.4055647,10.8882142 C17.4055647,4.10593079 20.5317734,0.343882963 25.0356335,0.343882963 L25.0356335,0.343882963 Z" id="Path" fill="#87D447"></path>
                <path d="M25.0356335,31.0761046 C20.5317734,31.0761046 17.4055647,27.3140568 17.4055647,20.5317734 C17.4055647,19.5780148 17.4585512,18.518283 17.5115378,17.4055647 C18.6242562,17.3525781 19.683988,17.2995915 20.6377466,17.2995915 C27.42003,17.2995915 31.1820778,20.4258002 31.1820778,25.2475798 C31.1820778,28.320802 28.9566411,31.0761046 25.0356335,31.0761046 L25.0356335,31.0761046 Z" id="Path" fill="#50AFCD"></path>
                <path d="M6.59630048,31.0761046 C2.67529288,31.0761046 0.449856141,28.320802 0.449856141,25.2475798 C0.449856141,20.4258002 4.21190397,17.2995915 10.9941874,17.2995915 C11.947946,17.2995915 13.0076778,17.3525781 14.1203961,17.4055647 C14.1733827,18.518283 14.2263693,19.5780148 14.2263693,20.5317734 C14.2263693,27.3140568 11.1001605,31.0761046 6.59630048,31.0761046 L6.59630048,31.0761046 Z" id="Path" fill="#EFAA02"></path>
                <path d="M6.59630048,0.343882963 C11.1001605,0.343882963 14.2263693,4.10593079 14.2263693,10.8882142 C14.2263693,11.8419728 14.1733827,12.9017046 14.1203961,14.0144229 C13.0076778,14.0674095 11.947946,14.1203961 10.9941874,14.1203961 C4.21190397,14.1203961 0.449856141,10.9941874 0.449856141,6.17240776 C0.449856141,3.0991856 2.67529288,0.343882963 6.59630048,0.343882963 L6.59630048,0.343882963 Z" id="Path" fill="#D95423"></path>
            </g>
        </g>
    </g>
</svg>