<?xml version="1.0" encoding="UTF-8"?>
<svg width="420px" height="512px" viewBox="0 0 420 512" version="1.1" xmlns="http://www.w3.org/2000/svg" xmlns:xlink="http://www.w3.org/1999/xlink" xmlns:sketch="http://www.bohemiancoding.com/sketch/ns">
    <!-- Generator: Sketch 3.4.4 (17249) - http://www.bohemiancoding.com/sketch -->
    <title>Group</title>
    <desc>Created with Sketch.</desc>
    <defs></defs>
    <g id="Page-1" stroke="none" stroke-width="1" fill="none" fill-rule="evenodd" sketch:type="MSPage">
        <g id="Group" sketch:type="MSLayerGroup" fill="#FFFFFF">
            <path d="M210,512 C207.2,512 204.5,510.9 202.4,508.8 L3.6,303 C-0.4,298.8 -0.3,292.1 3.9,288.1 C8.1,284.1 14.8,284.2 18.8,288.4 L217.6,494.2 C221.6,498.4 221.5,505.1 217.3,509.1 C215.3,511 212.6,512 210,512 L210,512 Z" id="Shape" sketch:type="MSShapeGroup"></path>
            <path d="M210,512 C208.7,512 207.3,511.7 206.1,511.2 C202.1,509.6 199.5,505.7 199.5,501.4 L199.5,10.5 C199.5,4.7 204.2,0 210,0 C215.8,0 220.5,4.7 220.5,10.5 L220.5,475.3 L401.2,288.3 C405.2,284.1 411.9,284 416.1,288 C420.3,292 420.4,298.7 416.4,302.9 L217.6,508.8 C215.6,510.9 212.8,512 210,512 L210,512 Z" id="Shape" sketch:type="MSShapeGroup"></path>
        </g>
    </g>
</svg>