<?xml version="1.0" encoding="UTF-8"?>
<svg width="80px" height="80px" viewBox="0 0 80 80" version="1.1" xmlns="http://www.w3.org/2000/svg" xmlns:xlink="http://www.w3.org/1999/xlink">
    <!-- Generator: Sketch 52.4 (67378) - http://www.bohemiancoding.com/sketch -->
    <title>mdpi/Group 2</title>
    <desc>Created with Sketch.</desc>
    <g id="Page-1" stroke="none" stroke-width="1" fill="none" fill-rule="evenodd">
        <g id="Group-2">
            <circle id="Oval" fill="#69C900" fill-rule="nonzero" cx="40" cy="40" r="40"></circle>
            <g id="download" transform="translate(22.000000, 18.000000)" fill="#FFFFFF">
                <path d="M16.830313,37.0401652 C17.1273356,37.3742049 17.5530045,37.5653163 18,37.5653163 C18.4469955,37.5653163 18.8726644,37.3742049 19.169687,37.0401652 L31.6914261,22.9532087 C32.1010925,22.4925652 32.202224,21.8343614 31.9497429,21.2719804 C31.6972619,20.7095995 31.1381959,20.3477914 30.5217391,20.3478261 L24.2608696,20.3478261 L24.2608696,1.56521739 C24.2608696,0.700771696 23.5600979,0 22.6956522,0 L13.3043478,0 C12.4399021,0 11.7391304,0.700771696 11.7391304,1.56521739 L11.7391304,20.3478261 L5.47826087,20.3478261 C4.86180407,20.3477914 4.30273808,20.7095995 4.05025706,21.2719804 C3.79777605,21.8343614 3.89890754,22.4925652 4.30857391,22.9532087 L16.830313,37.0401652 Z M13.3043478,23.4782609 C14.1687935,23.4782609 14.8695652,22.7774892 14.8695652,21.9130435 L14.8695652,3.13043478 L21.1304348,3.13043478 L21.1304348,21.9130435 C21.1304348,22.7774892 21.8312065,23.4782609 22.6956522,23.4782609 L27.036313,23.4782609 L18,33.6438 L8.96368696,23.4782609 L13.3043478,23.4782609 Z" id="Shape" fill-rule="nonzero"></path>
                <path d="M34.4347826,29.7391304 C33.5703369,29.7391304 32.8695652,30.4399021 32.8695652,31.3043478 L32.8695652,39.1304348 C32.8685733,39.9944693 32.1683823,40.6946602 31.3043478,40.6956522 L4.69565217,40.6956522 C3.83161768,40.6946602 3.13142671,39.9944693 3.13043478,39.1304348 L3.13043478,31.3043478 C3.13043478,30.4399021 2.42966309,29.7391304 1.56521739,29.7391304 C0.700771696,29.7391304 0,30.4399021 0,31.3043478 L0,39.1304348 C0.0028466783,41.7225918 2.10349514,43.8232403 4.69565217,43.826087 L31.3043478,43.826087 C33.8965049,43.8232403 35.9971533,41.7225918 36,39.1304348 L36,31.3043478 C36,30.4399021 35.2992283,29.7391304 34.4347826,29.7391304 Z" id="Path"></path>
            </g>
        </g>
    </g>
</svg>