<?xml version="1.0" encoding="UTF-8"?>
<svg width="13px" height="13px" viewBox="0 0 13 13" version="1.1" xmlns="http://www.w3.org/2000/svg" xmlns:xlink="http://www.w3.org/1999/xlink">
    <!-- Generator: Sketch 51.3 (57544) - http://www.bohemiancoding.com/sketch -->
    <title>download-3</title>
    <desc>Created with Sketch.</desc>
    <defs></defs>
    <g id="Page-1" stroke="none" stroke-width="1" fill="none" fill-rule="evenodd">
        <g id="Artboard" transform="translate(-292.000000, -605.000000)" fill="#000000" fill-rule="nonzero">
            <g id="Group">
                <g id="ad1" transform="translate(0.000000, 581.000000)">
                    <g id="logo-vertical" transform="translate(8.000000, 10.000000)">
                        <g id="download-3" transform="translate(284.000000, 14.000000)">
                            <path d="M9.96072934,6.0775 C9.88985383,5.92833333 9.73410269,5.83333333 9.56260144,5.83333333 L7.8125887,5.83333333 L7.8125887,0.416666667 C7.8125887,0.186666667 7.61658727,0 7.37508551,0 L5.62507277,0 C5.38357101,0 5.18756958,0.186666667 5.18756958,0.416666667 L5.18756958,5.83333333 L3.43755683,5.83333333 C3.26605558,5.83333333 3.11030445,5.92916667 3.03942893,6.0775 C2.96767841,6.22666667 2.99567861,6.40083333 3.10855444,6.52416667 L6.17107674,9.8575 C6.25420235,9.94833333 6.37407822,10 6.50007914,10 C6.62608006,10 6.74595593,9.9475 6.82908153,9.8575 L9.89160384,6.52416667 C10.0053547,6.40166667 10.0316049,6.22666667 9.96072934,6.0775 Z" id="Shape"></path>
                            <path d="M11.4,9 L11.4,11.4 L1.6,11.4 L1.6,9 L0,9 L0,12.2 C0,12.6424 0.3584,13 0.8,13 L12.2,13 C12.6424,13 13,12.6424 13,12.2 L13,9 L11.4,9 Z" id="Shape"></path>
                        </g>
                    </g>
                </g>
            </g>
        </g>
    </g>
</svg>