<?xml version="1.0" encoding="UTF-8"?>
<svg width="16px" height="21px" viewBox="0 0 16 21" version="1.1" xmlns="http://www.w3.org/2000/svg" xmlns:xlink="http://www.w3.org/1999/xlink">
    <!-- Generator: Sketch 48.2 (47327) - http://www.bohemiancoding.com/sketch -->
    <title>Combined Shape</title>
    <desc>Created with Sketch.</desc>
    <defs></defs>
    <g id="Menu-v2" stroke="none" stroke-width="1" fill="none" fill-rule="evenodd" transform="translate(-40.000000, -507.000000)">
        <g id="Menu" transform="translate(2.000000, 18.000000)" fill="#589EF3">
            <g id="Notifications-Copy" transform="translate(28.000000, 0.000000)">
                <g id="Notification" transform="translate(10.000000, 489.000000)">
                    <path d="M2,0 L14,0 C15.1045695,-2.02906125e-16 16,0.8954305 16,2 L16,19 C16,20.1045695 15.1045695,21 14,21 L2,21 C0.8954305,21 1.3527075e-16,20.1045695 0,19 L0,2 C-1.3527075e-16,0.8954305 0.8954305,2.02906125e-16 2,0 Z M8,15.75 L12.4444444,10.5 L3.55555556,10.5 L8,15.75 Z M7.11111111,5.25 L7.11111111,10.5 L8.88888889,10.5 L8.88888889,5.25 L7.11111111,5.25 Z" id="Combined-Shape"></path>
                </g>
            </g>
        </g>
    </g>
</svg>