<?xml version="1.0" encoding="UTF-8"?>
<svg width="36px" height="36px" viewBox="0 0 36 36" version="1.1" xmlns="http://www.w3.org/2000/svg" xmlns:xlink="http://www.w3.org/1999/xlink">
    <!-- Generator: Sketch 43 (38999) - http://www.bohemiancoding.com/sketch -->
    <title>whatsapp</title>
    <desc>Created with Sketch.</desc>
    <defs></defs>
    <g id="Page-1" stroke="none" stroke-width="1" fill="none" fill-rule="evenodd">
        <g id="share_sprite" transform="translate(0.000000, -66.000000)" fill-rule="nonzero">
            <g id="whatsapp" transform="translate(0.000000, 66.000000)">
                <circle id="Oval" fill="#1BD741" cx="17.6607246" cy="17.6607246" r="17.6607246"></circle>
                <g id="Group" transform="translate(8.660725, 7.660725)" fill="#FFFFFF">
                    <path d="M0.0300076088,19.4022881 L1.38599921,14.5862491 C0.514016975,13.1048816 0.0549127092,11.4194138 0.0549127092,9.68796258 C0.0549127092,4.35675248 4.39216632,0.0194988713 9.72337642,0.0194988713 C15.0545865,0.0194988713 19.3917794,4.35675248 19.3917794,9.68796258 C19.3917794,15.0191727 15.0545865,19.3564263 9.72337642,19.3564263 C8.06220622,19.3564263 6.43559944,18.9312173 4.99663133,18.123806 L0.0300076088,19.4022881 Z M5.25054187,16.3648378 L5.54648735,16.5455516 C6.80109697,17.3114746 8.24547131,17.7163343 9.72337642,17.7163343 C14.1502276,17.7163343 17.7516874,14.1148138 17.7516874,9.68796258 C17.7516874,5.26111135 14.1502276,1.65959085 9.72337642,1.65959085 C5.29652519,1.65959085 1.69500469,5.26111135 1.69500469,9.68796258 C1.69500469,11.2304387 2.1333952,12.7283286 2.9626743,14.0196885 L3.16197585,14.3300303 L2.38110983,17.1034866 L5.25054187,16.3648378 Z" id="Shape"></path>
                    <path d="M7.0073841,5.1879754 L6.38001854,5.15377644 C6.18296453,5.14302473 5.98967665,5.20887138 5.840732,5.33825642 C5.53658606,5.60237197 5.05026841,6.11298727 4.90089856,6.77837866 C4.67814977,7.77051282 5.02238685,8.98539577 5.91332126,10.2002787 C6.80425567,11.4151617 8.46457545,13.3589744 11.4005223,14.1891646 C12.3466124,14.4566819 13.0908497,14.2763325 13.6650641,13.9090126 C14.1198556,13.6181089 14.4333561,13.1511687 14.5463402,12.623302 L14.6465073,12.1554506 C14.6783373,12.0067489 14.6028323,11.8558605 14.4647001,11.7922006 L12.3444256,10.814888 C12.2067794,10.7514711 12.0435599,10.7915622 11.9509858,10.9115319 L11.1186087,11.990591 C11.0557385,12.0721096 10.9480999,12.1044255 10.8509093,12.0702873 C10.2808862,11.8699531 8.37145467,11.0702564 7.32373962,9.05209284 C7.278303,8.96456053 7.28960141,8.85831901 7.35405095,8.78366446 L8.1495563,7.86339062 C8.23083197,7.76941943 8.25136349,7.63730091 8.2025252,7.52310191 L7.28856876,5.38484718 C7.23991269,5.27101265 7.13087695,5.194718 7.0073841,5.1879754 Z" id="Shape"></path>
                </g>
            </g>
        </g>
    </g>
</svg>