<?xml version="1.0" encoding="UTF-8"?>
<svg width="36px" height="36px" viewBox="0 0 36 36" version="1.1" xmlns="http://www.w3.org/2000/svg" xmlns:xlink="http://www.w3.org/1999/xlink">
    <!-- Generator: Sketch 43 (38999) - http://www.bohemiancoding.com/sketch -->
    <title>link</title>
    <desc>Created with Sketch.</desc>
    <defs></defs>
    <g id="Page-1" stroke="none" stroke-width="1" fill="none" fill-rule="evenodd">
        <g id="share_sprite" transform="translate(0.000000, -132.000000)" fill-rule="nonzero" fill="#5375A1">
            <g id="link" transform="translate(0.000000, 132.000000)">
                <path d="M17.9610081,0 C8.04159724,0 0.000119743247,8.04207621 0.000119743247,17.9611278 C0.000119743247,27.8801794 8.04159724,35.9229741 17.9610081,35.9229741 C27.8804189,35.9229741 35.9228543,27.8806584 35.9228543,17.9611278 C35.9228543,8.04159724 27.8804189,0 17.9610081,0 Z M26.9856974,14.7645818 L22.5927966,19.1574826 C22.1163382,19.633941 21.4828965,19.8962984 20.8092209,19.8962984 C20.1356652,19.8962984 19.5021037,19.6338212 19.0256453,19.1577221 L18.8535742,18.985651 L18.3858571,19.4533682 L18.5575689,19.62508 C19.54114,20.608651 19.54114,22.2090195 18.5575689,23.1925905 L14.1652669,27.5854913 C13.6888085,28.0619497 13.0553667,28.3243071 12.381332,28.3243071 C11.707417,28.3243071 11.0738555,28.0618299 10.5971576,27.5851321 L8.93691749,25.924413 C7.95334646,24.9414407 7.95334646,23.3411919 8.93655826,22.3572616 L13.3298183,17.9646004 C13.8062766,17.488142 14.4397184,17.2257845 15.1137531,17.2257845 C15.7877879,17.2257845 16.4208704,17.4882617 16.897688,17.9646004 L17.0691604,18.1360727 L17.5368775,17.6683556 L17.3654052,17.4968832 C16.3818341,16.5136714 16.3818341,14.913303 17.3648064,13.9297319 L21.7580664,9.53683116 C22.2347643,9.0601333 22.8683258,8.7976561 23.5420013,8.7976561 C24.2156768,8.7976561 24.8491186,9.0601333 25.3259362,9.53647193 L26.9865356,11.19767 C27.9692684,12.1806423 27.9692684,13.7812503 26.9856974,14.7645818 Z" id="Shape"></path>
                <path d="M17.0680827,20.7705439 L16.2187438,21.6198827 L14.9013286,20.3028268 L15.7506675,19.4534879 L15.5791951,19.2820156 C15.4546622,19.1578418 15.289177,19.0891092 15.1133939,19.0891092 C14.9372516,19.0891092 14.7717664,19.1577221 14.6472335,19.2820156 L10.2543327,23.6743176 C9.99748343,23.9314064 9.99748343,24.34943 10.2543327,24.6062793 L11.9151715,26.2674774 C12.1645967,26.5169026 12.598666,26.5165433 12.8474925,26.2678366 L17.2397945,21.8749358 C17.497003,21.6178471 17.497003,21.1994642 17.2397945,20.9422557 L17.0680827,20.7705439 Z" id="Shape"></path>
                <path d="M24.0076828,10.8538871 C23.8831498,10.7293542 23.7173054,10.6607413 23.5411631,10.6607413 C23.3650208,10.6607413 23.1991764,10.7293542 23.0746434,10.8542464 L18.6817427,15.2469076 C18.4252526,15.5039964 18.4252526,15.9220201 18.6821019,16.1792286 L18.8538137,16.3507009 L20.1566202,15.0475351 L21.4740355,16.3649503 L20.1712289,17.6681161 L20.3429407,17.8398279 C20.5923659,18.0885346 21.0258365,18.0888939 21.2752617,17.8394687 L25.6679229,13.4471666 C25.9247722,13.1900779 25.9247722,12.7720542 25.6679229,12.5148457 L24.0076828,10.8538871 Z" id="Shape"></path>
            </g>
        </g>
    </g>
</svg>