<?xml version="1.0" encoding="UTF-8"?>
<svg width="36px" height="36px" viewBox="0 0 36 36" version="1.1" xmlns="http://www.w3.org/2000/svg" xmlns:xlink="http://www.w3.org/1999/xlink">
    <!-- Generator: Sketch 43 (38999) - http://www.bohemiancoding.com/sketch -->
    <title>001-email</title>
    <desc>Created with Sketch.</desc>
    <defs></defs>
    <g id="Page-1" stroke="none" stroke-width="1" fill="none" fill-rule="evenodd">
        <g id="share_sprite" fill-rule="nonzero" fill="#E46C6C">
            <g id="001-email">
                <path d="M17.99952,0 C8.05884,0 0.00012,8.05896 0.00012,17.99964 C0.00012,27.94008 8.05884,35.99964 17.99952,35.99964 C27.9402,35.99964 35.99952,27.94008 35.99952,17.99964 C35.99952,8.05896 27.9402,0 17.99952,0 Z M17.99988,6.32232 L28.65144,12.96432 L7.34832,12.96432 L17.99988,6.32232 Z M28.78416,23.57076 L28.78308,23.57076 C28.78308,24.63612 27.91968,25.4994 26.85444,25.4994 L9.14532,25.4994 C8.07996,25.4994 7.21668,24.636 7.21668,23.57076 L7.21668,13.38696 C7.21668,13.27428 7.2282,13.16472 7.24692,13.05708 L17.42388,19.40304 C17.43636,19.41084 17.44968,19.41612 17.46252,19.42332 C17.47596,19.43076 17.48964,19.43796 17.50332,19.4448 C17.5752,19.48188 17.64924,19.51176 17.72496,19.53132 C17.73276,19.53348 17.74056,19.53444 17.74836,19.53624 C17.8314,19.5558 17.91552,19.56804 17.99952,19.56804 L18.00012,19.56804 L18.00132,19.56804 C18.08532,19.56804 18.16944,19.55616 18.25248,19.53624 C18.26028,19.53432 18.26808,19.53348 18.27588,19.53132 C18.35148,19.51176 18.42528,19.48188 18.49752,19.4448 C18.5112,19.43796 18.52488,19.43076 18.53832,19.42332 C18.55104,19.41612 18.56448,19.41084 18.57696,19.40304 L28.75392,13.05708 C28.77264,13.16472 28.78416,13.27404 28.78416,13.38696 L28.78416,23.57076 Z" id="Shape"></path>
            </g>
        </g>
    </g>
</svg>