<svg xmlns="http://www.w3.org/2000/svg" viewBox="0 0 31.4 39.2"><defs><style>.cls-1{fill:#d41e49;}</style></defs><title>icn_notifications</title><g id="Layer_2" data-name="Layer 2"><g id="Layer_1-2" data-name="Layer 1"><path class="cls-1" d="M30.53,27.78l-2.35-2.65V14.69c0-8.5-6.77-11.78-11.48-12.51V1a1,1,0,0,0-2,0V2.17c-4.64.71-11.48,4-11.48,12.52V25.13L.88,27.78a3.36,3.36,0,0,0-.82,2.85A2.61,2.61,0,0,0,2.85,32.8h7.82a1,1,0,0,0-.51.85,5.54,5.54,0,1,0,11.08,0,1,1,0,0,0-.51-.85h7.82a2.61,2.61,0,0,0,2.79-2.17A3.36,3.36,0,0,0,30.53,27.78ZM19.24,33.66a3.54,3.54,0,1,1-7.08,0,1,1,0,0,0-.51-.85h8.1A1,1,0,0,0,19.24,33.66Zm10.14-3.42c-.06.31-.17.57-.83.57H2.85c-.67,0-.77-.26-.83-.57a1.35,1.35,0,0,1,.35-1.13L5,26.17a1,1,0,0,0,.25-.66V14.69c0-9.26,9.12-10.5,10.48-10.63,1.36.13,10.48,1.37,10.48,10.63V25.51a1,1,0,0,0,.25.66L29,29.1A1.35,1.35,0,0,1,29.38,30.24Z"/></g></g></svg>