<?xml version="1.0" encoding="UTF-8"?>
<svg width="20px" height="20px" viewBox="0 0 20 20" version="1.1" xmlns="http://www.w3.org/2000/svg" xmlns:xlink="http://www.w3.org/1999/xlink">
    <!-- Generator: Sketch 48.2 (47327) - http://www.bohemiancoding.com/sketch -->
    <title>image-gallery</title>
    <desc>Created with Sketch.</desc>
    <defs></defs>
    <g id="News-Detail" stroke="none" stroke-width="1" fill="none" fill-rule="evenodd" transform="translate(-175.000000, -346.000000)">
        <g id="Group-2" transform="translate(165.000000, 340.000000)" fill="#FFFFFF" fill-rule="nonzero">
            <g id="image-gallery" transform="translate(10.000000, 6.000000)">
                <path d="M3.07434783,13.406087 L3.07434783,4.80956522 L1.7573913,4.80956522 C0.783913043,4.80956522 0,5.60565217 0,6.57826087 L0,18.2008696 C0,19.1747826 0.783913043,19.9621739 1.7573913,19.9621739 L13.3804348,19.9621739 C14.3534783,19.9621739 15.1526087,19.1747826 15.1526087,18.2008696 L15.1526087,16.9313043 L6.59956522,16.9313043 C4.66652174,16.9317391 3.07434783,15.3395652 3.07434783,13.406087 Z" id="Shape"></path>
                <path d="M18.2230435,0.0217391304 L6.59956522,0.0217391304 C5.62652174,0.0217391304 4.83173913,0.81 4.83173913,1.78304348 L4.83173913,13.406087 C4.83173913,14.3804348 5.62695652,15.1743478 6.59956522,15.1743478 L18.2230435,15.1743478 C19.1956522,15.1743478 19.9843478,14.3804348 19.9843478,13.406087 L19.9843478,1.78347826 C19.9843478,0.809565217 19.1956522,0.0217391304 18.2230435,0.0217391304 Z M17.983913,12.43 C17.8869565,12.6091304 17.7004348,12.7152174 17.4969565,12.7152174 L7.5373913,12.7152174 C7.36217391,12.7152174 7.1973913,12.6369565 7.09304348,12.4969565 C6.98869565,12.356087 6.95695652,12.1769565 7.0073913,12.0086957 L8.43217391,7.29608696 C8.52608696,6.98608696 8.78782609,6.75695652 9.10782609,6.70434783 C9.42782609,6.65217391 9.74956522,6.78695652 9.9373913,7.05086957 L11.9295652,9.84956522 C12.1978261,10.2265217 12.7173913,10.32 13.0986957,10.06 L14.9330435,8.81434783 C15.1217391,8.68608696 15.3534783,8.63956522 15.5765217,8.68434783 C15.8004348,8.72869565 15.9965217,8.86173913 16.1213043,9.05304348 L17.96,11.8669565 C18.0713043,12.0378261 18.0804348,12.2517391 17.983913,12.43 Z" id="Shape"></path>
            </g>
        </g>
    </g>
</svg>