<?xml version="1.0" encoding="UTF-8" standalone="no"?>
<svg width="120px" height="36px" viewBox="0 0 120 36" version="1.1" xmlns="http://www.w3.org/2000/svg" xmlns:xlink="http://www.w3.org/1999/xlink">
    <!-- Generator: Sketch 40 (33762) - http://www.bohemiancoding.com/sketch -->
    <title>Group 4 Copy</title>
    <desc>Created with Sketch.</desc>
    <defs></defs>
    <g id="Page-1" stroke="none" stroke-width="1" fill="none" fill-rule="evenodd">
        <g id="Group-4-Copy">
            <rect id="Rectangle-4-Copy" fill="#000000" x="0" y="0" width="120" height="36" rx="4"></rect>
            <path d="M41.1513672,12.2182617 L39.2783203,12.2182617 L38.8339844,13.5 L38.1469727,13.5 L39.9414062,8.5234375 L40.519043,8.5234375 L42.2758789,13.5 L41.5888672,13.5 L41.1513672,12.2182617 Z M39.4731445,11.6542969 L40.9599609,11.6542969 L40.2353516,9.51806641 L40.2148438,9.51806641 L39.4731445,11.6542969 Z M44.5180664,12.1943359 L44.6308594,12.6079102 L44.6513672,12.6079102 L44.7641602,12.1943359 L46.0493164,8.5234375 L46.7773438,8.5234375 L44.9282227,13.5 L44.3505859,13.5 L42.5014648,8.5234375 L43.2329102,8.5234375 L44.5180664,12.1943359 Z M50.0039062,12.2182617 L48.1308594,12.2182617 L47.6865234,13.5 L46.9995117,13.5 L48.7939453,8.5234375 L49.371582,8.5234375 L51.128418,13.5 L50.4414062,13.5 L50.0039062,12.2182617 Z M48.3256836,11.6542969 L49.8125,11.6542969 L49.0878906,9.51806641 L49.0673828,9.51806641 L48.3256836,11.6542969 Z M52.6049805,13.5 L51.9282227,13.5 L51.9282227,8.5234375 L52.6049805,8.5234375 L52.6049805,13.5 Z M54.512207,12.9736328 L56.9389648,12.9736328 L56.9389648,13.5 L53.8388672,13.5 L53.8388672,8.5234375 L54.512207,8.5234375 L54.512207,12.9736328 Z M60.2578125,12.2182617 L58.3847656,12.2182617 L57.9404297,13.5 L57.253418,13.5 L59.0478516,8.5234375 L59.6254883,8.5234375 L61.3823242,13.5 L60.6953125,13.5 L60.2578125,12.2182617 Z M58.5795898,11.6542969 L60.0664062,11.6542969 L59.3417969,9.51806641 L59.3212891,9.51806641 L58.5795898,11.6542969 Z M62.1137695,13.5 L62.1137695,8.5234375 L63.7373047,8.5234375 C64.2568385,8.5234375 64.6635727,8.63565969 64.9575195,8.86010742 C65.2514663,9.08455516 65.3984375,9.42122171 65.3984375,9.87011719 C65.3984375,10.084311 65.3323574,10.276285 65.2001953,10.4460449 C65.0680332,10.6158049 64.8925792,10.7451167 64.6738281,10.8339844 C64.9996761,10.8795575 65.2577302,11.0208321 65.447998,11.2578125 C65.6382659,11.4947929 65.7333984,11.7739242 65.7333984,12.0952148 C65.7333984,12.5509463 65.5852879,12.899006 65.2890625,13.1394043 C64.9928371,13.3798026 64.5917994,13.5 64.0859375,13.5 L62.1137695,13.5 Z M62.7871094,11.1655273 L62.7871094,12.9736328 L64.0859375,12.9736328 C64.3935562,12.9736328 64.632242,12.8978686 64.802002,12.7463379 C64.9717619,12.5948072 65.0566406,12.380047 65.0566406,12.1020508 C65.0566406,11.8263333 64.9700529,11.6041675 64.796875,11.4355469 C64.6236971,11.2669262 64.3901382,11.1769206 64.0961914,11.1655273 L64.0517578,11.1655273 L62.7871094,11.1655273 Z M62.7871094,10.6391602 L63.8774414,10.6391602 C64.1280937,10.6391602 64.3320305,10.5702318 64.4892578,10.432373 C64.6464852,10.2945143 64.7250977,10.1025403 64.7250977,9.85644531 C64.7250977,9.58756376 64.6402189,9.38647528 64.470459,9.25317383 C64.300699,9.11987238 64.0563167,9.05322266 63.7373047,9.05322266 L62.7871094,9.05322266 L62.7871094,10.6391602 Z M67.2373047,12.9736328 L69.6640625,12.9736328 L69.6640625,13.5 L66.5639648,13.5 L66.5639648,8.5234375 L67.2373047,8.5234375 L67.2373047,12.9736328 Z M73.1298828,11.1928711 L71.0859375,11.1928711 L71.0859375,12.9736328 L73.4785156,12.9736328 L73.4785156,13.5 L70.4125977,13.5 L70.4125977,8.5234375 L73.440918,8.5234375 L73.440918,9.05322266 L71.0859375,9.05322266 L71.0859375,10.6630859 L73.1298828,10.6630859 L73.1298828,11.1928711 Z M79.8154297,11.4560547 C79.8154297,12.0644562 79.6268736,12.5691712 79.2497559,12.9702148 C78.8726381,13.3712585 78.3833038,13.5717773 77.7817383,13.5717773 C77.2006807,13.5717773 76.7284361,13.3712585 76.3649902,12.9702148 C76.0015444,12.5691712 75.8198242,12.0644562 75.8198242,11.4560547 L75.8198242,10.5708008 C75.8198242,9.96467796 76.0015444,9.45996295 76.3649902,9.05664062 C76.7284361,8.6533183 77.2006807,8.45166016 77.7817383,8.45166016 C78.3833038,8.45166016 78.8726381,8.65274864 79.2497559,9.05493164 C79.6268736,9.45711464 79.8154297,9.9623993 79.8154297,10.5708008 L79.8154297,11.4560547 Z M79.1420898,10.5639648 C79.1420898,10.1082334 79.0190442,9.73453922 78.7729492,9.44287109 C78.5268542,9.15120297 78.1964539,9.00537109 77.7817383,9.00537109 C77.3898092,9.00537109 77.0770682,9.15120297 76.8435059,9.44287109 C76.6099435,9.73453922 76.4931641,10.1082334 76.4931641,10.5639648 L76.4931641,11.4560547 C76.4931641,11.9163434 76.6099435,12.2923162 76.8435059,12.5839844 C77.0770682,12.8756525 77.3898092,13.0214844 77.7817383,13.0214844 C78.1987326,13.0214844 78.5297026,12.8762222 78.7746582,12.5856934 C79.0196139,12.2951646 79.1420898,11.9186221 79.1420898,11.4560547 L79.1420898,10.5639648 Z M84.5493164,13.5 L83.8759766,13.5 L81.4799805,9.69921875 L81.4594727,9.70605469 L81.4594727,13.5 L80.7861328,13.5 L80.7861328,8.5234375 L81.4594727,8.5234375 L83.8554688,12.3208008 L83.8759766,12.3139648 L83.8759766,8.5234375 L84.5493164,8.5234375 L84.5493164,13.5 Z M90.934082,9.05322266 L89.293457,9.05322266 L89.293457,13.5 L88.6201172,13.5 L88.6201172,9.05322266 L87,9.05322266 L87,8.5234375 L90.934082,8.5234375 L90.934082,9.05322266 Z M95.4047852,13.5 L94.7314453,13.5 L94.7314453,11.3022461 L92.3149414,11.3022461 L92.3149414,13.5 L91.6416016,13.5 L91.6416016,8.5234375 L92.3149414,8.5234375 L92.3149414,10.7724609 L94.7314453,10.7724609 L94.7314453,8.5234375 L95.4047852,8.5234375 L95.4047852,13.5 Z M99.2841797,11.1928711 L97.2402344,11.1928711 L97.2402344,12.9736328 L99.6328125,12.9736328 L99.6328125,13.5 L96.5668945,13.5 L96.5668945,8.5234375 L99.5952148,8.5234375 L99.5952148,9.05322266 L97.2402344,9.05322266 L97.2402344,10.6630859 L99.2841797,10.6630859 L99.2841797,11.1928711 Z" id="AVAILABLE-ON-THE" fill="#FFFFFF"></path>
            <path d="M43.3378906,24.5078125 L40.3144531,24.5078125 L39.6582031,26.5 L38.1875,26.5 L41.1640625,17.96875 L42.5175781,17.96875 L45.4589844,26.5 L43.9882812,26.5 L43.3378906,24.5078125 Z M40.7070312,23.3183594 L42.9511719,23.3183594 L41.8554688,19.9550781 L41.8203125,19.9550781 L40.7070312,23.3183594 Z M51.640625,23.5410156 C51.640625,24.4628952 51.4238303,25.2070284 50.9902344,25.7734375 C50.5566385,26.3398466 49.9531289,26.6230469 49.1796875,26.6230469 C48.8203107,26.6230469 48.5019545,26.5585944 48.2246094,26.4296875 C47.9472642,26.3007806 47.7089854,26.1113294 47.5097656,25.8613281 L47.5097656,28.9375 L46.0859375,28.9375 L46.0859375,20.1601562 L47.2871094,20.1601562 L47.4277344,20.9570312 C47.6308604,20.6601548 47.8759751,20.4335945 48.1630859,20.2773438 C48.4501967,20.121093 48.7832012,20.0429688 49.1621094,20.0429688 C49.9433633,20.0429688 50.5517556,20.352536 50.9873047,20.9716797 C51.4228537,21.5908234 51.640625,22.4062449 51.640625,23.4179688 L51.640625,23.5410156 Z M50.2226562,23.4179688 C50.2226562,22.769528 50.1005872,22.2392599 49.8564453,21.8271484 C49.6123035,21.415037 49.2480493,21.2089844 48.7636719,21.2089844 C48.4667954,21.2089844 48.2148448,21.2724603 48.0078125,21.3994141 C47.8007802,21.5263678 47.6347662,21.7031239 47.5097656,21.9296875 L47.5097656,24.7949219 C47.6347662,25.0175792 47.8007802,25.188476 48.0078125,25.3076172 C48.2148448,25.4267584 48.4707016,25.4863281 48.7753906,25.4863281 C49.259768,25.4863281 49.6220691,25.307619 49.8623047,24.9501953 C50.1025403,24.5927717 50.2226562,24.1230498 50.2226562,23.5410156 L50.2226562,23.4179688 Z M58.4375,23.5410156 C58.4375,24.4628952 58.2207053,25.2070284 57.7871094,25.7734375 C57.3535135,26.3398466 56.7500039,26.6230469 55.9765625,26.6230469 C55.6171857,26.6230469 55.2988295,26.5585944 55.0214844,26.4296875 C54.7441392,26.3007806 54.5058604,26.1113294 54.3066406,25.8613281 L54.3066406,28.9375 L52.8828125,28.9375 L52.8828125,20.1601562 L54.0839844,20.1601562 L54.2246094,20.9570312 C54.4277354,20.6601548 54.6728501,20.4335945 54.9599609,20.2773438 C55.2470717,20.121093 55.5800762,20.0429688 55.9589844,20.0429688 C56.7402383,20.0429688 57.3486306,20.352536 57.7841797,20.9716797 C58.2197287,21.5908234 58.4375,22.4062449 58.4375,23.4179688 L58.4375,23.5410156 Z M57.0195312,23.4179688 C57.0195312,22.769528 56.8974622,22.2392599 56.6533203,21.8271484 C56.4091785,21.415037 56.0449243,21.2089844 55.5605469,21.2089844 C55.2636704,21.2089844 55.0117198,21.2724603 54.8046875,21.3994141 C54.5976552,21.5263678 54.4316412,21.7031239 54.3066406,21.9296875 L54.3066406,24.7949219 C54.4316412,25.0175792 54.5976552,25.188476 54.8046875,25.3076172 C55.0117198,25.4267584 55.2675766,25.4863281 55.5722656,25.4863281 C56.056643,25.4863281 56.4189441,25.307619 56.6591797,24.9501953 C56.8994153,24.5927717 57.0195312,24.1230498 57.0195312,23.5410156 L57.0195312,23.4179688 Z M66.9306641,23.4355469 C66.6787097,23.2089832 66.2324251,23.0058603 65.5917969,22.8261719 C64.6738235,22.5722644 63.9658228,22.2392599 63.4677734,21.8271484 C62.9697241,21.415037 62.7207031,20.8769564 62.7207031,20.2128906 C62.7207031,19.5253872 62.9941379,18.9589866 63.5410156,18.5136719 C64.0878934,18.0683571 64.7910113,17.8457031 65.6503906,17.8457031 C66.5722702,17.8457031 67.3095675,18.092771 67.8623047,18.5869141 C68.4150418,19.0810572 68.6816407,19.6914026 68.6621094,20.4179688 L68.6503906,20.453125 L67.2792969,20.453125 C67.2792969,20.003904 67.1298843,19.6464857 66.8310547,19.3808594 C66.5322251,19.115233 66.1347681,18.9824219 65.6386719,18.9824219 C65.1582007,18.9824219 64.7880872,19.095702 64.5283203,19.3222656 C64.2685534,19.5488293 64.1386719,19.8417951 64.1386719,20.2011719 C64.1386719,20.5292985 64.2812486,20.7998036 64.5664062,21.0126953 C64.8515639,21.225587 65.3242154,21.4277334 65.984375,21.6191406 C66.8789107,21.8691419 67.5605445,22.2099588 68.0292969,22.6416016 C68.4980492,23.0732443 68.7324219,23.6249966 68.7324219,24.296875 C68.7324219,25.0039098 68.4550809,25.5683573 67.9003906,25.9902344 C67.3457004,26.4121115 66.617192,26.6230469 65.7148438,26.6230469 C64.8476519,26.6230469 64.0918001,26.3925804 63.4472656,25.9316406 C62.8027312,25.4707008 62.4902343,24.8203167 62.5097656,23.9804688 L62.5214844,23.9453125 L63.8925781,23.9453125 C63.8925781,24.4570338 64.0693342,24.8427721 64.4228516,25.1025391 C64.776369,25.362306 65.2070287,25.4921875 65.7148438,25.4921875 C66.2187525,25.4921875 66.6103502,25.3857433 66.8896484,25.1728516 C67.1689467,24.9599599 67.3085938,24.6718768 67.3085938,24.3085938 C67.3085938,23.9531232 67.1826184,23.6621105 66.9306641,23.4355469 Z M71.8671875,18.6191406 L71.8671875,20.1601562 L73.0039062,20.1601562 L73.0039062,21.2148438 L71.8671875,21.2148438 L71.8671875,24.71875 C71.8671875,24.9804701 71.9238276,25.1669916 72.0371094,25.2783203 C72.1503912,25.389649 72.3007803,25.4453125 72.4882812,25.4453125 C72.5664066,25.4453125 72.6425778,25.4384766 72.7167969,25.4248047 C72.791016,25.4111327 72.8613278,25.3925782 72.9277344,25.3691406 L73.0800781,26.4121094 C72.9589838,26.478516 72.8154305,26.5302733 72.6494141,26.5673828 C72.4833976,26.6044924 72.3105478,26.6230469 72.1308594,26.6230469 C71.6074193,26.6230469 71.1962906,26.4697281 70.8974609,26.1630859 C70.5986313,25.8564438 70.4492188,25.3750033 70.4492188,24.71875 L70.4492188,21.2148438 L69.4824219,21.2148438 L69.4824219,20.1601562 L70.4492188,20.1601562 L70.4492188,18.6191406 L71.8671875,18.6191406 Z M73.8886719,23.2714844 C73.8886719,22.3261671 74.1474583,21.5517608 74.6650391,20.9482422 C75.1826198,20.3447235 75.8906205,20.0429688 76.7890625,20.0429688 C77.6992233,20.0429688 78.4130833,20.3447235 78.9306641,20.9482422 C79.4482448,21.5517608 79.7070312,22.3261671 79.7070312,23.2714844 L79.7070312,23.3945312 C79.7070312,24.347661 79.4482448,25.1240204 78.9306641,25.7236328 C78.4130833,26.3232452 77.7031295,26.6230469 76.8007812,26.6230469 C75.8945267,26.6230469 75.1826198,26.3222686 74.6650391,25.7207031 C74.1474583,25.1191376 73.8886719,24.3437547 73.8886719,23.3945312 L73.8886719,23.2714844 Z M75.3125,23.3945312 C75.3125,24.0156281 75.4335925,24.5195293 75.6757812,24.90625 C75.91797,25.2929707 76.2929662,25.4863281 76.8007812,25.4863281 C77.2968775,25.4863281 77.6689441,25.2919941 77.9169922,24.9033203 C78.1650403,24.5146465 78.2890625,24.0117218 78.2890625,23.3945312 L78.2890625,23.2714844 C78.2890625,22.6660126 78.1650403,22.1669942 77.9169922,21.7744141 C77.6689441,21.381834 77.2929713,21.1855469 76.7890625,21.1855469 C76.2929663,21.1855469 75.9228528,21.381834 75.6787109,21.7744141 C75.4345691,22.1669942 75.3125,22.6660126 75.3125,23.2714844 L75.3125,23.3945312 Z M84.1074219,21.4433594 L83.4980469,21.4199219 C83.2207017,21.4199219 82.9892587,21.478515 82.8037109,21.5957031 C82.6181631,21.7128912 82.4746099,21.8789052 82.3730469,22.09375 L82.3730469,26.5 L80.9492188,26.5 L80.9492188,20.1601562 L82.25,20.1601562 L82.34375,21.0800781 C82.5039071,20.7558578 82.7099597,20.501954 82.9619141,20.3183594 C83.2138684,20.1347647 83.5039046,20.0429688 83.8320312,20.0429688 C83.9179692,20.0429688 83.9980465,20.0498046 84.0722656,20.0634766 C84.1464847,20.0771485 84.2148434,20.0937499 84.2773438,20.1132812 L84.1074219,21.4433594 Z M87.7402344,26.6230469 C86.8144485,26.6230469 86.0908229,26.3310576 85.5693359,25.7470703 C85.047849,25.163083 84.7871094,24.4062546 84.7871094,23.4765625 L84.7871094,23.2421875 C84.7871094,22.3124954 85.047849,21.5459015 85.5693359,20.9423828 C86.0908229,20.3388642 86.7636678,20.0390625 87.5878906,20.0429687 C88.4394574,20.0429687 89.0839822,20.3056614 89.5214844,20.8310547 C89.9589866,21.3564479 90.1777344,22.0585894 90.1777344,22.9375 L90.1777344,23.7050781 L86.2578125,23.7050781 L86.2460938,23.734375 C86.2617188,24.2539088 86.3984362,24.6757796 86.65625,25 C86.9140638,25.3242204 87.3027318,25.4863281 87.8222656,25.4863281 C88.2089863,25.4863281 88.5439439,25.4394536 88.8271484,25.3457031 C89.110353,25.2519527 89.3730457,25.1171884 89.6152344,24.9414062 L90.078125,25.8730469 C89.8359363,26.0839854 89.515627,26.261718 89.1171875,26.40625 C88.718748,26.550782 88.2597682,26.6230469 87.7402344,26.6230469 L87.7402344,26.6230469 Z M87.5878906,21.1855469 C87.216795,21.1855469 86.919923,21.3193346 86.6972656,21.5869141 C86.4746083,21.8544935 86.3359378,22.2031229 86.28125,22.6328125 L86.2929688,22.6621094 L88.7714844,22.6621094 L88.7714844,22.5507812 C88.7714844,22.1445292 88.6767588,21.8154309 88.4873047,21.5634766 C88.2978506,21.3115222 87.9980489,21.1855469 87.5878906,21.1855469 L87.5878906,21.1855469 Z" id="App-Store" fill="#FFFFFF"></path>
            <path d="M24.2675731,11.2468746 C24.9166588,10.4048745 25.4087076,9.21478502 25.2307325,8 C24.1698613,8.0740866 22.9298518,8.7561537 22.206319,9.64519288 C21.5467642,10.4507376 21.0046962,11.649059 21.2164052,12.812101 C22.3761515,12.8485563 23.5731213,12.1500255 24.2675731,11.2468746 L24.2675731,11.2468746 Z M30,22.6738504 C29.5358688,23.7134148 29.3125275,24.177926 28.7146243,25.0987166 C27.8805841,26.3840602 26.7045525,27.984566 25.2458546,27.9963257 C23.951173,28.0104375 23.6173242,27.1437419 21.8596747,27.1543257 C20.1020251,27.1637335 19.7356058,28.0127894 18.4385977,27.9998537 C16.981063,27.9869179 15.866683,26.5428172 15.0326428,25.2574736 C12.6991914,21.6660375 12.4537486,17.4501572 13.8926715,15.2075677 C14.9163192,13.6152938 16.5308907,12.6839194 18.0477504,12.6839194 C19.5913645,12.6839194 20.5626666,13.5400312 21.8410629,13.5400312 C23.0810724,13.5400312 23.8360126,12.6815674 25.6215798,12.6815674 C26.97326,12.6815674 28.4052035,13.4259614 29.4241982,14.7101291 C26.0833845,16.5611181 26.6242892,21.3838028 30,22.6738504 L30,22.6738504 Z" id="Apple" fill="#F8F8F8"></path>
        </g>
    </g>
</svg>