<?xml version="1.0" encoding="UTF-8"?>
<svg width="31px" height="15px" viewBox="0 0 31 15" version="1.1" xmlns="http://www.w3.org/2000/svg" xmlns:xlink="http://www.w3.org/1999/xlink">
    <!-- Generator: Sketch 44.1 (41455) - http://www.bohemiancoding.com/sketch -->
    <title>Group 2</title>
    <desc>Created with Sketch.</desc>
    <defs></defs>
    <g id="V1" stroke="none" stroke-width="1" fill="none" fill-rule="evenodd">
        <g id="Change-Language" transform="translate(-12.000000, -61.000000)">
            <g id="Group-2" transform="translate(12.000000, 61.000000)">
                <path d="M15.3062871,14.5 L10.6396204,0.5 L2,0.5 C1.17157288,0.5 0.5,1.17157288 0.5,2 L0.5,13 C0.5,13.8284271 1.17157288,14.5 2,14.5 L15.3062871,14.5 Z M12.6937129,0.5 L17.3603796,14.5 L29,14.5 C29.8284271,14.5 30.5,13.8284271 30.5,13 L30.5,2 C30.5,1.17157288 29.8284271,0.5 29,0.5 L12.6937129,0.5 Z" id="Combined-Shape" stroke="#B7B7B7" opacity="0.6"></path>
                <path d="M27.217,3.938 L23.873,3.938 L23.873,4.642 L25.05,4.642 L25.05,7.348 C24.852,7.469 24.544,7.579 24.104,7.579 C23.664,7.579 23.323,7.458 23.059,7.304 C22.861,7.128 22.63,7.007 22.41,6.952 L22.41,6.908 C22.762,6.732 23.191,6.248 23.191,5.566 C23.191,4.653 22.531,3.927 21.42,3.927 C20.694,3.927 20.155,4.246 19.858,4.631 L20.441,5.159 C20.628,4.895 20.925,4.675 21.398,4.675 C21.992,4.675 22.355,5.049 22.355,5.621 C22.355,6.281 21.893,6.688 21.211,6.688 L20.87,6.688 L20.87,7.425 L21.464,7.425 C22.245,7.425 22.674,7.788 22.674,8.404 C22.674,9.02 22.267,9.526 21.442,9.526 C20.76,9.526 20.298,9.163 20.034,8.855 L19.462,9.427 C19.814,9.79 20.485,10.263 21.442,10.263 C22.718,10.263 23.51,9.438 23.51,8.393 C23.51,8.294 23.499,8.206 23.488,8.118 C23.719,8.228 23.994,8.294 24.313,8.294 C24.632,8.294 24.874,8.217 25.05,8.14 L25.05,11 L25.886,11 L25.886,4.642 L27.217,4.642 L27.217,3.938 Z" id="अ" fill="#333333"></path>
                <path d="M9.17675781,11 L8.36035156,8.89868164 L5.66992188,8.89868164 L4.86279297,11 L4,11 L6.64868164,4.19042969 L7.41870117,4.19042969 L10.0627441,11 L9.17675781,11 Z M8.10522461,8.14257812 L7.34448242,6.08764648 L7.01977539,5.07177734 C6.92700149,5.44287295 6.82959035,5.78149261 6.72753906,6.08764648 L5.95751953,8.14257812 L8.10522461,8.14257812 Z" id="A" fill="#333333"></path>
            </g>
        </g>
    </g>
</svg>