<?xml version="1.0" encoding="UTF-8"?>
<svg width="40px" height="10px" viewBox="0 0 40 10" version="1.1" xmlns="http://www.w3.org/2000/svg" xmlns:xlink="http://www.w3.org/1999/xlink">
    <!-- Generator: Sketch 50 (54983) - http://www.bohemiancoding.com/sketch -->
    <title>logo vertical</title>
    <desc>Created with Sketch.</desc>
    <defs></defs>
    <g id="OEM-browser" stroke="none" stroke-width="1" fill="none" fill-rule="evenodd">
        <g id="Headlines" transform="translate(-66.000000, -94.000000)" fill="#FFFFFF">
            <g id="News-text-thumb-Copy-2" transform="translate(0.000000, 88.000000)">
                <g id="logo-vertical" transform="translate(66.000000, 6.000000)">
                    <g id="Petal-logo-Copy-3">
                        <path d="M6.20118354,0.0845547521 C7.17239474,0.0845547521 7.72362272,0.762035047 7.72362272,1.51768614 C7.72362272,2.70327666 6.79178495,3.47195622 5.11185205,3.47195622 C4.87561149,3.47195622 4.61312198,3.45892776 4.33750798,3.44589929 C4.32438351,3.17230148 4.31125903,2.91173213 4.31125903,2.67721973 C4.31125903,1.00957592 5.0856031,0.0845547521 6.20118354,0.0845547521 L6.20118354,0.0845547521 Z" id="Path"></path>
                        <path d="M6.20118354,7.64106573 C5.0856031,7.64106573 4.31125903,6.71604456 4.31125903,5.04840076 C4.31125903,4.81388835 4.32438351,4.553319 4.33750798,4.27972119 C4.61312198,4.26669272 4.87561149,4.25366426 5.11185205,4.25366426 C6.79178495,4.25366426 7.72362272,5.02234382 7.72362272,6.20793434 C7.72362272,6.96358543 7.17239474,7.64106573 6.20118354,7.64106573 L6.20118354,7.64106573 Z" id="Path"></path>
                        <path d="M1.63386598,7.64106573 C0.66265478,7.64106573 0.111426799,6.96358543 0.111426799,6.20793434 C0.111426799,5.02234382 1.04326458,4.25366426 2.72319747,4.25366426 C2.95943803,4.25366426 3.22192755,4.26669272 3.49754154,4.27972119 C3.51066601,4.553319 3.52379049,4.81388835 3.52379049,5.04840076 C3.52379049,6.71604456 2.74944642,7.64106573 1.63386598,7.64106573 L1.63386598,7.64106573 Z" id="Path"></path>
                        <path d="M1.63386598,0.0845547521 C2.74944642,0.0845547521 3.52379049,1.00957592 3.52379049,2.67721973 C3.52379049,2.91173213 3.51066601,3.17230148 3.49754154,3.44589929 C3.22192755,3.45892776 2.95943803,3.47195622 2.72319747,3.47195622 C1.04326458,3.47195622 0.111426799,2.70327666 0.111426799,1.51768614 C0.111426799,0.762035047 0.66265478,0.0845547521 1.63386598,0.0845547521 L1.63386598,0.0845547521 Z" id="Path"></path>
                    </g>
                    <path d="M12.3840259,7.07294118 L12.3840259,6.94588235 C12.2246358,6.94588235 12.1502537,6.85058824 12.1502537,6.60705882 L12.1502537,0.201176471 C12.1502537,0.0847058824 12.0652456,0 11.9483595,0 L11.0451485,0 C10.9282624,0 10.8432543,0.0847058824 10.8432543,0.201176471 L10.8432543,2.81647059 C10.7582462,2.61529412 10.5138479,2.44588235 10.0888075,2.44588235 C9.18559651,2.44588235 8.707426,3.16588235 8.707426,5.04 C8.707426,6.91411765 9.18559651,7.63411765 10.0888075,7.63411765 C10.4607179,7.63411765 10.7794982,7.48588235 10.9070104,7.23176471 C11.0132705,7.51764706 11.2576687,7.64470588 11.6083271,7.64470588 C12.2458878,7.64470588 12.3840259,7.33764706 12.3840259,7.07294118 L12.3840259,7.07294118 Z M10.8432543,6.59647059 C10.7582462,6.63882353 10.6626121,6.67058824 10.5351,6.67058824 C10.2375716,6.67058824 10.0144254,6.53294118 10.0144254,5.04 C10.0144254,3.53647059 10.2375716,3.40941176 10.5351,3.40941176 C10.6626121,3.40941176 10.7582462,3.44117647 10.8432543,3.48352941 L10.8432543,6.59647059 Z M16.177512,7.07294118 L16.177512,6.94588235 C16.0181218,6.94588235 15.9437397,6.85058824 15.9437397,6.60705882 L15.9437397,3.93882353 C15.9437397,2.90117647 15.4018132,2.43529412 14.3817161,2.43529412 C13.5103831,2.43529412 12.8303184,2.88 12.8303184,3.88588235 C12.8303184,4.07647059 12.9684566,4.14 13.0959687,4.14 L13.7547814,4.14 C13.9035456,4.14 13.9566756,4.05529412 13.9460496,3.85411765 C13.9354236,3.63176471 13.9885537,3.36705882 14.328586,3.36705882 C14.6367403,3.36705882 14.7111224,3.58941176 14.7111224,3.84352941 L14.7111224,4.63764706 C14.5411062,4.60588235 14.349838,4.57411765 14.0735617,4.57411765 C13.0322126,4.57411765 12.6496762,5.31529412 12.6496762,6.09882353 C12.6496762,6.91411765 12.9684566,7.64470588 13.8291635,7.64470588 C14.286082,7.64470588 14.6261143,7.50705882 14.7642525,7.22117647 C14.8492606,7.51764706 15.0405288,7.64470588 15.3911872,7.64470588 C16.0393739,7.64470588 16.177512,7.33764706 16.177512,7.07294118 L16.177512,7.07294118 Z M14.7111224,6.67058824 C14.5942363,6.75529412 14.4560982,6.81882353 14.286082,6.80823529 C14.0098057,6.78705882 13.8822935,6.57529412 13.8822935,6.10941176 C13.8822935,5.62235294 14.0098057,5.32588235 14.4029681,5.31529412 C14.4986022,5.31529412 14.5942363,5.31529412 14.7111224,5.32588235 L14.7111224,6.67058824 Z M17.9414299,7.38 L17.9414299,2.7 C17.9414299,2.58352941 17.8564218,2.49882353 17.7395357,2.49882353 L16.8363247,2.49882353 C16.7194386,2.49882353 16.6344305,2.58352941 16.6344305,2.7 L16.6344305,7.38 C16.6344305,7.49647059 16.7194386,7.58117647 16.8363247,7.58117647 L17.7395357,7.58117647 C17.8564218,7.58117647 17.9414299,7.49647059 17.9414299,7.38 L17.9414299,7.38 Z M17.9626819,1.04823529 C17.9626819,0.667058824 17.6651536,0.370588235 17.2826172,0.370588235 C16.9107068,0.370588235 16.6025525,0.667058824 16.6025525,1.04823529 C16.6025525,1.41882353 16.9107068,1.72588235 17.2826172,1.72588235 C17.6651536,1.72588235 17.9626819,1.41882353 17.9626819,1.04823529 L17.9626819,1.04823529 Z M19.928494,7.38 L19.928494,0.201176471 C19.928494,0.0847058824 19.8434859,0 19.7265998,0 L18.8233888,0 C18.7065027,0 18.6214946,0.0847058824 18.6214946,0.201176471 L18.6214946,7.38 C18.6214946,7.49647059 18.7065027,7.58117647 18.8233888,7.58117647 L19.7265998,7.58117647 C19.8434859,7.58117647 19.928494,7.49647059 19.928494,7.38 L19.928494,7.38 Z M24.0407604,7.61294118 L24.0407604,2.7 C24.0407604,2.58352941 23.9557523,2.49882353 23.8388662,2.49882353 L22.9356552,2.49882353 C22.8187691,2.49882353 22.733761,2.58352941 22.733761,2.7 L22.733761,6.53294118 C22.5743709,6.61764706 22.3831026,6.66 22.2449645,6.66 C22.0218183,6.66 21.9049321,6.55411765 21.9049321,6.28941176 L21.9049321,2.7 C21.9049321,2.58352941 21.819924,2.49882353 21.7030379,2.49882353 L20.799827,2.49882353 C20.6829408,2.49882353 20.5979327,2.58352941 20.5979327,2.7 L20.5979327,6.32117647 C20.5979327,7.17882353 20.9592171,7.64470588 21.745542,7.64470588 C22.1812084,7.64470588 22.5318668,7.45411765 22.733761,7.26352941 L22.733761,7.66588235 C22.733761,8.48117647 22.5424928,8.85176471 21.9049321,8.85176471 C21.734916,8.85176471 21.5436477,8.80941176 21.4055096,8.75647059 C21.3098755,8.71411765 21.2142414,8.68235294 21.1504853,8.68235294 C21.0548512,8.68235294 21.0017212,8.73529412 21.0017212,8.84117647 L21.0017212,9.58235294 C21.0017212,9.81529412 21.6817859,9.94235294 22.0536963,9.94235294 C23.4457038,9.94235294 24.0407604,9.15882353 24.0407604,7.61294118 L24.0407604,7.61294118 Z M28.1636528,7.38 L28.1636528,3.75882353 C28.1636528,2.90117647 27.8023685,2.43529412 27.0266696,2.43529412 C26.5697511,2.43529412 26.2084667,2.66823529 26.0278246,2.86941176 L26.0278246,0.201176471 C26.0278246,0.0847058824 25.9428165,0 25.8259303,0 L24.9227194,0 C24.8058332,0 24.7208252,0.0847058824 24.7208252,0.201176471 L24.7208252,7.38 C24.7208252,7.49647059 24.8058332,7.58117647 24.9227194,7.58117647 L25.8259303,7.58117647 C25.9428165,7.58117647 26.0278246,7.49647059 26.0278246,7.38 L26.0278246,3.54705882 C26.1978407,3.46235294 26.3891089,3.42 26.5272471,3.42 C26.7503933,3.42 26.8566534,3.52588235 26.8566534,3.79058824 L26.8566534,7.38 C26.8566534,7.49647059 26.9416615,7.58117647 27.0585477,7.58117647 L27.9617586,7.58117647 C28.0786448,7.58117647 28.1636528,7.49647059 28.1636528,7.38 L28.1636528,7.38 Z M32.4990655,7.07294118 L32.4990655,6.94588235 C32.3396753,6.94588235 32.2652932,6.85058824 32.2652932,6.60705882 L32.2652932,2.7 C32.2652932,2.58352941 32.1802851,2.49882353 32.063399,2.49882353 L31.1601881,2.49882353 C31.0433019,2.49882353 30.9582938,2.58352941 30.9582938,2.7 L30.9582938,6.53294118 C30.7989037,6.61764706 30.6076355,6.66 30.4694973,6.66 C30.2463511,6.66 30.1294649,6.55411765 30.1294649,6.28941176 L30.1294649,2.7 C30.1294649,2.58352941 30.0444569,2.49882353 29.9275707,2.49882353 L29.0243598,2.49882353 C28.9074736,2.49882353 28.8224655,2.58352941 28.8224655,2.7 L28.8224655,6.32117647 C28.8224655,7.17882353 29.1837499,7.64470588 29.9700748,7.64470588 C30.4482453,7.64470588 30.8095297,7.42235294 31.0114239,7.21058824 C31.117684,7.50705882 31.3620823,7.64470588 31.7233667,7.64470588 C32.3609273,7.64470588 32.4990655,7.33764706 32.4990655,7.07294118 L32.4990655,7.07294118 Z M36.3988117,7.38 L36.3988117,3.75882353 C36.3988117,2.90117647 36.0375273,2.43529412 35.2618284,2.43529412 C34.7730319,2.43529412 34.4329996,2.65764706 34.2311053,2.85882353 C34.1567233,2.61529412 33.933577,2.49882353 33.6785528,2.49882353 L33.1578782,2.49882353 C33.0409921,2.49882353 32.955984,2.58352941 32.955984,2.7 L32.955984,7.38 C32.955984,7.49647059 33.0409921,7.58117647 33.1578782,7.58117647 L34.0610892,7.58117647 C34.1779753,7.58117647 34.2629834,7.49647059 34.2629834,7.38 L34.2629834,3.54705882 C34.4329996,3.46235294 34.6242678,3.42 34.7624059,3.42 C34.9855522,3.42 35.0918123,3.52588235 35.0918123,3.79058824 L35.0918123,7.38 C35.0918123,7.49647059 35.1768204,7.58117647 35.2937065,7.58117647 L36.1969174,7.58117647 C36.3138036,7.58117647 36.3988117,7.49647059 36.3988117,7.38 L36.3988117,7.38 Z M38.609022,3.36705882 L39.1509486,3.36705882 C39.2678347,3.36705882 39.3528428,3.28235294 39.3528428,3.16588235 L39.3528428,2.7 C39.3528428,2.58352941 39.2678347,2.49882353 39.1509486,2.49882353 L38.609022,2.49882353 L38.609022,1.47176471 C38.609022,1.35529412 38.5240139,1.27058824 38.4071278,1.27058824 L37.5039168,1.27058824 C37.3870307,1.27058824 37.3020226,1.35529412 37.3020226,1.47176471 L37.3020226,2.49882353 L36.9407382,2.49882353 C36.8238521,2.49882353 36.738844,2.58352941 36.738844,2.7 L36.738844,3.16588235 C36.738844,3.28235294 36.8238521,3.36705882 36.9407382,3.36705882 L37.3020226,3.36705882 L37.3020226,6.67058824 C37.3020226,7.32705882 37.642055,7.65529412 38.2796157,7.65529412 C38.6834041,7.65529412 38.9490544,7.59176471 39.2359567,7.41176471 C39.3528428,7.33764706 39.4165989,7.22117647 39.4165989,6.99882353 L39.4165989,6.78705882 C39.4165989,6.66 39.3634688,6.61764706 39.2784608,6.61764706 C39.2253307,6.61764706 39.1828266,6.63882353 39.1190706,6.66 C39.0128105,6.69176471 38.9596804,6.71294118 38.8640463,6.71294118 C38.6727781,6.71294118 38.609022,6.60705882 38.609022,6.36352941 L38.609022,3.36705882 Z" id="dailyhunt-copy-3"></path>
                </g>
            </g>
        </g>
    </g>
</svg>