<svg xmlns="http://www.w3.org/2000/svg" width="15" height="18" viewBox="0 0 15 18">
  <g fill="none" fill-rule="evenodd" transform="translate(-1 1)">
    <polygon points="0 0 16 0 16 16 0 16"/>
    <path fill="#979797" fill-rule="nonzero" stroke="#F2F2F2" stroke-width=".5" d="M8.56410256,16 C9.46666667,16 10.2051282,15.2615385 10.2051282,14.3589744 L6.92307692,14.3589744 C6.92307692,15.2615385 7.66153846,16 8.56410256,16 Z M13.4871795,11.0769231 L13.4871795,6.97435897 C13.4871795,4.45538462 12.1497436,2.34666667 9.79487179,1.78871795 L9.79487179,1.23076923 C9.79487179,0.54974359 9.24512821,0 8.56410256,0 C7.88307692,0 7.33333333,0.54974359 7.33333333,1.23076923 L7.33333333,1.78871795 C4.98666667,2.34666667 3.64102564,4.44717949 3.64102564,6.97435897 L3.64102564,11.0769231 L2,12.7179487 L2,13.5384615 L15.1282051,13.5384615 L15.1282051,12.7179487 L13.4871795,11.0769231 Z M11.8461538,11.8974359 L5.28205128,11.8974359 L5.28205128,6.97435897 C5.28205128,4.93948718 6.52102564,3.28205128 8.56410256,3.28205128 C10.6071795,3.28205128 11.8461538,4.93948718 11.8461538,6.97435897 L11.8461538,11.8974359 Z"/>
  </g>
</svg>
