<?xml version="1.0" encoding="UTF-8"?>
<svg width="34px" height="34px" viewBox="0 0 34 34" version="1.1" xmlns="http://www.w3.org/2000/svg" xmlns:xlink="http://www.w3.org/1999/xlink">
    <!-- Generator: Sketch 50 (54983) - http://www.bohemiancoding.com/sketch -->
    <title>mdpi/Group 13</title>
    <desc>Created with Sketch.</desc>
    <defs></defs>
    <g id="4-Jul" stroke="none" stroke-width="1" fill="none" fill-rule="evenodd">
        <g id="Group-13" transform="translate(1.000000, 1.000000)">
            <path d="M16,0 C7.1635625,0 0,7.1634375 0,16 C0,24.8365625 7.1635625,32 16,32 C24.8364375,32 32,24.8365625 32,16 C32,7.1634375 24.8364375,0 16,0 Z" id="Shape" stroke="#FFFFFF" stroke-width="2" fill-opacity="0.800000012" fill="#FD1D1D" fill-rule="nonzero"></path>
            <path d="M21.53,16.8485834 L13.53,21.8485834 C13.368125,21.9496459 13.1840625,22.0004584 13,22.0004584 C12.83325,22.0004584 12.66625,21.9589584 12.515125,21.8749584 C12.19725,21.6987084 12,21.3642084 12,21.0004584 L12,11.0004584 C12,10.6367084 12.19725,10.3022084 12.515125,10.1259584 C12.833,9.94870839 13.2216875,9.95945839 13.53,10.1523334 L21.53,15.1523334 C21.82225,15.3354584 22,15.6557709 22,16.0004584 C22,16.3451459 21.82225,16.6655209 21.53,16.8485834 Z" id="Path" fill="#FFFFFF"></path>
        </g>
    </g>
</svg>