<?xml version="1.0" encoding="UTF-8"?>
<svg width="26px" height="40px" viewBox="0 0 26 40" version="1.1" xmlns="http://www.w3.org/2000/svg" xmlns:xlink="http://www.w3.org/1999/xlink">
    <!-- Generator: Sketch 52.6 (67491) - http://www.bohemiancoding.com/sketch -->
    <title>question mark</title>
    <desc>Created with Sketch.</desc>
    <defs>
        <linearGradient x1="0%" y1="0%" x2="100%" y2="100%" id="linearGradient-1">
            <stop stop-color="#F19AB7" offset="0%"></stop>
            <stop stop-color="#A1AFF3" offset="100%"></stop>
        </linearGradient>
    </defs>
    <g id="final" stroke="none" stroke-width="1" fill="none" fill-rule="evenodd">
        <g id="live-updates" transform="translate(-291.000000, -2004.000000)" fill="url(#linearGradient-1)">
            <g id="Group-31" transform="translate(16.000000, 1932.000000)">
                <g id="Group-32" transform="translate(275.000000, 72.000000)">
                    <path d="M11.5918983,0 L10.7170886,0.0878529257 C9.14761345,0.278835054 7.61894458,0.730653356 6.17298618,1.43421172 C4.31159872,2.30441974 2.6966444,3.64583757 1.46596454,5.35141322 C0.480848252,6.66688451 -0.0358724185,8.28830656 0.00193687865,9.98225666 C-0.000701644764,10.7155776 0.397136461,11.3887234 1.06202998,11.7419231 C1.44905878,11.9604468 1.8815333,12.0806438 2.32320043,12.0924383 L2.41728629,12.0984578 C3.12665249,12.1704038 3.83334147,11.9373941 4.31304619,11.5083356 C4.66671468,11.1499102 4.95743888,10.7316092 5.17927283,10.2574232 C5.28247662,10.0433552 5.36442347,9.86994558 5.54873177,9.47729269 C5.92916553,8.66681148 6.10400642,8.3041519 6.31814332,7.89525606 C7.09988745,6.23854376 8.54213738,5.00948289 10.2771988,4.52353933 C11.8039534,4.10089131 13.4090265,4.07263485 14.8892433,4.42849348 C16.1666215,4.67002569 17.3325418,5.33159373 18.2487247,6.35765204 C19.913067,8.39266012 20.2138774,11.2570165 18.9869133,13.6523021 C18.2975805,14.8851663 17.3757945,15.9649647 16.2963331,16.8118759 C16.0770604,16.9914247 15.8478714,17.1773067 15.5908058,17.384345 C15.4336775,17.5108948 15.2717326,17.6408638 15.0649299,17.8064931 C14.8031947,18.0160266 14.8031947,18.0160266 14.5428893,18.2244665 C13.7979391,18.8213211 13.3231697,19.2070459 12.8119751,19.6344827 C11.8677821,20.3792488 11.0441881,21.2722262 10.3601898,22.2972773 C9.61733693,23.3748426 9.32234706,24.7108859 9.54409592,26.0367066 C9.65650771,26.7949454 10.1245988,27.4483494 10.7594352,27.7671696 C11.2346178,27.9864815 11.7583757,28.0713974 12.2763585,28.0131055 L12.407409,28.0051972 C13.217024,27.9983445 13.9366131,27.4745981 14.2220734,26.6602456 C14.2854083,26.4932378 14.3366821,26.3617897 14.4520939,26.0686287 C14.6173693,25.6488075 14.68832,25.464785 14.7591253,25.2697479 C15.1484188,24.1111657 15.8417143,23.0850963 16.8005268,22.2735538 C16.9139128,22.1844938 17.0317181,22.0913085 17.1739233,21.9783171 C17.3610126,21.829504 17.3610126,21.829504 17.5493087,21.6796154 C18.3196994,21.0667806 18.7724955,20.7187248 19.3196622,20.3317231 C20.8060421,19.3109167 22.1913161,18.14323 23.4387035,16.8631011 C24.4559193,15.7793217 25.2119585,14.4666788 25.6422341,13.044229 C25.9882506,11.853185 26.0857517,10.60076 25.9239422,9.32915509 C25.7833108,7.89888498 25.3145072,6.52306703 24.566789,5.33133444 C23.5584629,3.77750527 22.1490758,2.54141873 20.4802888,1.75346388 C18.534161,0.802669879 16.4285784,0.242568422 14.2391508,0.100346807 L13.3572258,0.0166080103 L11.5918983,0 Z M12.4518782,40 L12.7733486,39.9329236 C14.5297138,39.6033006 15.7626497,37.9709026 15.6346223,36.1446185 C15.5065948,34.3183344 14.0586422,32.8835657 12.2743595,32.8149515 C10.4900768,32.7463374 8.94140226,34.0658715 8.68035136,35.8771937 C8.41930047,37.6885159 9.5295511,39.4110206 11.2734669,39.8791728 C11.3872541,39.9113616 11.4970682,39.9353692 11.7493125,39.9850505 C11.7784868,39.9907914 11.803233,39.9956695 11.8251162,40 L12.4518782,40 Z" id="question-mark"></path>
                </g>
            </g>
        </g>
    </g>
</svg>