<?xml version="1.0" encoding="UTF-8"?>
<svg width="20px" height="22px" viewBox="0 0 20 22" version="1.1" xmlns="http://www.w3.org/2000/svg" xmlns:xlink="http://www.w3.org/1999/xlink">
    <!-- Generator: Sketch 44.1 (41455) - http://www.bohemiancoding.com/sketch -->
    <title>reload</title>
    <desc>Created with Sketch.</desc>
    <defs></defs>
    <g id="V1" stroke="none" stroke-width="1" fill="none" fill-rule="evenodd">
        <g id="Headlines" transform="translate(-273.000000, -945.000000)" fill-rule="nonzero" fill="#FFFFFF">
            <g id="reload" transform="translate(283.000000, 956.000000) scale(-1, 1) translate(-283.000000, -956.000000) translate(273.000000, 945.000000)">
                <path d="M10.7091819,21.9383628 C15.1432538,21.4440136 18.6968329,17.9161581 19.2025519,13.502968 C19.8663081,7.7325648 15.3599906,2.82053151 9.71128993,2.75761434 L9.71128993,0.169022229 C9.71128993,0.0252115562 9.53067601,-0.0511878638 9.4087616,0.0386938067 L4.05355862,3.95304056 C3.96325166,4.02045181 3.96325166,4.15078023 4.05355862,4.21819149 L9.4087616,8.13253824 C9.53067601,8.22241991 9.71128993,8.1415264 9.71128993,8.00220981 L9.71128993,5.41811179 C13.680281,5.48102896 16.8590862,8.84260343 16.5881653,12.8603141 C16.3578825,16.3162643 13.5267592,19.1205725 10.0544564,19.3407825 C6.3744476,19.5744749 3.24531129,16.9589183 2.68540811,13.498474 C2.5815551,12.85582 2.01713657,12.3884353 1.36692643,12.3884353 C0.558679101,12.3884353 -0.0734696491,13.1029946 0.052960101,13.8984474 C0.838630691,18.828457 5.41267843,22.5270878 10.7091819,21.9383628 Z" id="Shape"></path>
            </g>
        </g>
    </g>
</svg>