<?xml version="1.0" encoding="UTF-8"?>
<svg width="28px" height="28px" viewBox="0 0 28 28" version="1.1" xmlns="http://www.w3.org/2000/svg" xmlns:xlink="http://www.w3.org/1999/xlink">
    <!-- Generator: Sketch 54.1 (76490) - https://sketchapp.com -->
    <title>refresh</title>
    <desc>Created with Sketch.</desc>
    <g id="Final" stroke="none" stroke-width="1" fill="none" fill-rule="evenodd">
        <g id="Results_Bottom-page_typ-3" transform="translate(-316.000000, -79.000000)">
            <g id="refresh" transform="translate(316.000000, 79.000000)">
                <rect id="Rectangle-Copy-13" stroke="#1F9EE1" fill="#1F9EE1" x="0.5" y="0.5" width="27" height="27" rx="4"></rect>
                <path d="M19.3079565,8.35249899 L19.413979,8.46109133 L20.5541038,7.2821026 C21.085902,6.73741666 22,7.12668391 22,7.89798828 L22,11.5559523 C22,12.0319536 21.6191411,12.4220441 21.1544046,12.4220441 L17.5830076,12.4220441 C16.831658,12.4220441 16.458647,11.4870209 16.9921513,10.940585 L18.2014307,9.70199389 L18.0968846,9.59392218 C16.9529335,8.41139405 15.4288718,7.73495924 13.7927506,7.73495924 C9.90953032,7.73495924 6.98556402,11.3968321 7.82722072,15.3787172 C8.30714984,17.7005715 10.1337938,19.589395 12.3976874,20.1011952 C15.3041121,20.7649579 18.1286821,19.2895406 19.3299213,16.6437308 C19.4598651,16.3692713 19.7513376,16.1920905 20.0700529,16.1920905 C20.6957042,16.1920905 21.1021036,16.858694 20.8307363,17.4406415 C19.5478103,20.2021421 16.8315826,22 13.7927506,22 C9.13454427,22 5.51969549,17.8695915 6.05211543,13.0608142 C6.45194468,9.39510642 9.39862695,6.4127874 12.98202,6.04276211 C15.3732331,5.79205948 17.6498711,6.65422326 19.3079565,8.35249899 Z" id="Path" fill="#FFFFFF" fill-rule="nonzero"></path>
            </g>
        </g>
    </g>
</svg>