<?xml version="1.0" encoding="UTF-8"?>
<svg width="15px" height="16px" viewBox="0 0 15 16" version="1.1" xmlns="http://www.w3.org/2000/svg" xmlns:xlink="http://www.w3.org/1999/xlink">
    <!-- Generator: Sketch 50 (54983) - http://www.bohemiancoding.com/sketch -->
    <title>reload</title>
    <desc>Created with Sketch.</desc>
    <defs></defs>
    <g id="OEM-browser" stroke="none" stroke-width="1" fill="none" fill-rule="evenodd">
        <g id="Headlines" transform="translate(-295.000000, -60.000000)" fill="#979797" fill-rule="nonzero">
            <g id="Title-bar" transform="translate(0.000000, 50.000000)">
                <g id="reload" transform="translate(302.428571, 18.000000) scale(-1, 1) translate(-302.428571, -18.000000) translate(295.000000, 10.000000)">
                    <path d="M7.80379026,15.9551818 C11.0285699,15.5956552 13.612991,13.029942 13.9807866,9.82034927 C14.4635184,5.62369237 11.1861966,2.05130452 7.07805065,2.00554657 L7.07805065,0.12293413 C7.07805065,0.0183445501 6.94669507,-0.0372186644 6.85803005,0.0281498233 L2.96333697,2.87494746 C2.89765918,2.92397383 2.89765918,3.01875813 2.96333697,3.0677845 L6.85803005,5.91458214 C6.94669507,5.97995062 7.07805065,5.92111898 7.07805065,5.81979783 L7.07805065,3.94045381 C9.96458962,3.98621175 12.2764479,6.43099319 12.0794145,9.35296458 C11.9119362,11.8663829 9.85293738,13.9058797 7.32762627,14.0660325 C4.65125623,14.2359906 2.37552073,12.3337676 1.96831842,9.81708085 C1.89278896,9.34969616 1.48230276,9.00978002 1.00942265,9.00978002 C0.421606412,9.00978002 -0.0381381333,9.5294595 0.0538107758,10.1079706 C0.625207568,13.6934322 3.95178774,16.3833454 7.80379026,15.9551818 Z" id="Shape"></path>
                </g>
            </g>
        </g>
    </g>
</svg>