<?xml version="1.0" encoding="UTF-8"?>
<svg width="24px" height="16px" viewBox="0 0 24 16" version="1.1" xmlns="http://www.w3.org/2000/svg" xmlns:xlink="http://www.w3.org/1999/xlink">
    <!-- Generator: Sketch 50 (54983) - http://www.bohemiancoding.com/sketch -->
    <title>menu-2</title>
    <desc>Created with Sketch.</desc>
    <defs></defs>
    <g id="OEM-browser" stroke="none" stroke-width="1" fill="none" fill-rule="evenodd">
        <g id="Headlines" transform="translate(-12.000000, -60.000000)" fill="#979797">
            <g id="Title-bar" transform="translate(0.000000, 50.000000)">
                <g id="menu-2" transform="translate(12.000000, 10.000000)">
                    <g id="Group">
                        <path d="M0.905660377,1.81132075 C0.405735849,1.81132075 0,1.40558491 0,0.905660377 C0,0.405735849 0.405735849,-8.8817842e-16 0.905660377,-8.8817842e-16 L23.0943396,-8.8817842e-16 C23.5942642,-8.8817842e-16 24,0.405735849 24,0.905660377 C24,1.40558491 23.5942642,1.81132075 23.0943396,1.81132075 L0.905660377,1.81132075 Z M0.905660377,8.60377358 C0.405735849,8.60377358 0,8.19803774 0,7.69811321 C0,7.19818868 0.405735849,6.79245283 0.905660377,6.79245283 L23.0943396,6.79245283 C23.5942642,6.79245283 24,7.19818868 24,7.69811321 C24,8.19803774 23.5942642,8.60377358 23.0943396,8.60377358 L0.905660377,8.60377358 Z M0.905660377,15.3962264 C0.405735849,15.3962264 0,14.9904906 0,14.490566 C0,13.9906415 0.405735849,13.5849057 0.905660377,13.5849057 L23.0943396,13.5849057 C23.5942642,13.5849057 24,13.9906415 24,14.490566 C24,14.9904906 23.5942642,15.3962264 23.0943396,15.3962264 L0.905660377,15.3962264 Z" id="Combined-Shape"></path>
                    </g>
                </g>
            </g>
        </g>
    </g>
</svg>