<?xml version="1.0" encoding="UTF-8"?>
<svg width="28px" height="28px" viewBox="0 0 28 28" version="1.1" xmlns="http://www.w3.org/2000/svg" xmlns:xlink="http://www.w3.org/1999/xlink">
    <!-- Generator: Sketch 52.6 (67491) - http://www.bohemiancoding.com/sketch -->
    <title>scroll down to</title>
    <desc>Created with Sketch.</desc>
    <g id="Elections" stroke="none" stroke-width="1" fill="none" fill-rule="evenodd">
        <g id="Topic-scrolled" transform="translate(-316.000000, -763.000000)">
            <g id="scroll-down-to" transform="translate(316.000000, 763.000000)">
                <circle id="Oval" fill="#F2F2F2" cx="14" cy="14" r="14"></circle>
                <g id="Group-8" transform="translate(10.000000, 9.000000)" fill="#565868" fill-rule="nonzero">
                    <g id="Group-7">
                        <path d="M4.50000135,8.4918187 L7.90317642,5.18299622 C8.15409568,4.93903216 8.56090801,4.93903216 8.81182768,5.18299663 C9.06272272,5.42696734 9.06272272,5.82249079 8.81183602,6.0664534 L4.95433729,9.81702665 C4.70341762,10.0609911 4.29660528,10.0609911 4.04568561,9.81702665 L0.188195219,6.06646151 C0.0661776551,5.94785551 0,5.78917606 0,5.62471844 C0,5.46026082 0.0661776551,5.30158138 0.188211894,5.18295916 C0.439114892,4.93901091 0.845927223,4.93901091 1.0968469,5.18297537 L4.50000135,8.4918187 Z" id="Path"></path>
                        <path d="M4.50000135,3.4918187 L7.90317642,0.182996222 C8.15409568,-0.0609678386 8.56090801,-0.0609678386 8.81182768,0.182996626 C9.06272272,0.426967343 9.06272272,0.822490794 8.81183602,1.0664534 L4.95433729,4.81702665 C4.70341762,5.06099112 4.29660528,5.06099112 4.04568561,4.81702665 L0.188195219,1.06646151 C0.0661776551,0.94785551 0,0.789176061 0,0.624718443 C0,0.460260825 0.0661776551,0.301581376 0.188211894,0.182959164 C0.439114892,-0.0609890897 0.845927223,-0.0609890897 1.0968469,0.182975375 L4.50000135,3.4918187 Z" id="Path-Copy" opacity="0.5"></path>
                    </g>
                </g>
            </g>
        </g>
    </g>
</svg>