<?xml version="1.0" encoding="UTF-8"?>
<svg width="36px" height="300px" viewBox="0 0 36 300" version="1.1" xmlns="http://www.w3.org/2000/svg" xmlns:xlink="http://www.w3.org/1999/xlink">
    <!-- Generator: Sketch 43 (38999) - http://www.bohemiancoding.com/sketch -->
    <title>Group 2</title>
    <desc>Created with Sketch.</desc>
    <defs></defs>
    <g id="Page-1" stroke="none" stroke-width="1" fill="none" fill-rule="evenodd">
        <g id="Group-2" fill-rule="nonzero">
            <g id="001-email" fill="#E46C6C">
                <path d="M17.99952,0 C8.05884,0 0.00012,8.05896 0.00012,17.99964 C0.00012,27.94008 8.05884,35.99964 17.99952,35.99964 C27.9402,35.99964 35.99952,27.94008 35.99952,17.99964 C35.99952,8.05896 27.9402,0 17.99952,0 Z M17.99988,6.32232 L28.65144,12.96432 L7.34832,12.96432 L17.99988,6.32232 Z M28.78416,23.57076 L28.78308,23.57076 C28.78308,24.63612 27.91968,25.4994 26.85444,25.4994 L9.14532,25.4994 C8.07996,25.4994 7.21668,24.636 7.21668,23.57076 L7.21668,13.38696 C7.21668,13.27428 7.2282,13.16472 7.24692,13.05708 L17.42388,19.40304 C17.43636,19.41084 17.44968,19.41612 17.46252,19.42332 C17.47596,19.43076 17.48964,19.43796 17.50332,19.4448 C17.5752,19.48188 17.64924,19.51176 17.72496,19.53132 C17.73276,19.53348 17.74056,19.53444 17.74836,19.53624 C17.8314,19.5558 17.91552,19.56804 17.99952,19.56804 L18.00012,19.56804 L18.00132,19.56804 C18.08532,19.56804 18.16944,19.55616 18.25248,19.53624 C18.26028,19.53432 18.26808,19.53348 18.27588,19.53132 C18.35148,19.51176 18.42528,19.48188 18.49752,19.4448 C18.5112,19.43796 18.52488,19.43076 18.53832,19.42332 C18.55104,19.41612 18.56448,19.41084 18.57696,19.40304 L28.75392,13.05708 C28.77264,13.16472 28.78416,13.27404 28.78416,13.38696 L28.78416,23.57076 Z" id="Shape"></path>
            </g>
            <g id="003-twitter" transform="translate(0.000000, 264.000000)">
                <circle id="Oval" fill="#55ACEE" cx="17.8722478" cy="17.8719292" r="17.8719292"></circle>
                <path d="M28.8194336,12.8440354 C28.0535575,13.183646 27.2296991,13.4133451 26.3656991,13.5159292 C27.2478584,12.9873982 27.9248496,12.151115 28.2443894,11.1529912 C27.4189381,11.6426549 26.5042832,11.9978761 25.531646,12.1893451 C24.7523894,11.3594336 23.6421239,10.8407788 22.412708,10.8407788 C20.0539115,10.8407788 18.1408142,12.7538761 18.1408142,15.1126726 C18.1408142,15.4475044 18.1787257,15.7734159 18.252,16.0862655 C14.7016991,15.908177 11.5537699,14.2075752 9.44665487,11.6222655 C9.07900885,12.2530619 8.86810619,12.9873982 8.86810619,13.7701593 C8.86810619,15.2518938 9.62283186,16.56 10.7684602,17.3258761 C10.068531,17.3038938 9.40938053,17.1117876 8.83369912,16.7909735 C8.83338053,16.8091327 8.83338053,16.827292 8.83338053,16.8451327 C8.83338053,18.9149735 10.3065133,20.6413805 12.2603894,21.0335575 C11.9023009,21.1316814 11.5241416,21.1836106 11.1351504,21.1836106 C10.8592566,21.1836106 10.5919646,21.1571681 10.3313628,21.107469 C10.8748673,22.8042478 12.452177,24.0393982 14.3219469,24.0741239 C12.859646,25.2200708 11.0179115,25.9027965 9.0159292,25.9027965 C8.67185841,25.9027965 8.33097345,25.8827257 7.99741593,25.8429027 C9.88693805,27.0554336 12.1329558,27.7623717 14.5452743,27.7623717 C22.4028319,27.7623717 26.6998938,21.2530619 26.6998938,15.6074336 C26.6998938,15.4223363 26.6957522,15.2378761 26.687469,15.0550088 C27.5227965,14.452885 28.2469381,13.700708 28.8194336,12.8440354 L28.8194336,12.8440354 Z" id="Shape" fill="#F1F2F2"></path>
            </g>
            <g id="004-facebook" transform="translate(0.000000, 198.000000)">
                <circle id="Oval" fill="#3B5998" cx="17.6607246" cy="17.6607246" r="17.6607246"></circle>
                <path d="M22.100619,18.3520674 L18.9492793,18.3520674 L18.9492793,29.8971152 L14.1747321,29.8971152 L14.1747321,18.3520674 L11.9039416,18.3520674 L11.9039416,14.2946782 L14.1747321,14.2946782 L14.1747321,11.6690865 C14.1747321,9.79150514 15.0666148,6.85140912 18.9917799,6.85140912 L22.5284582,6.86620562 L22.5284582,10.8045932 L19.9623673,10.8045932 C19.5414541,10.8045932 18.9495942,11.0148923 18.9495942,11.9105528 L18.9495942,14.2984561 L22.5177544,14.2984561 L22.100619,18.3520674 Z" id="Shape" fill="#FFFFFF"></path>
            </g>
            <g id="link" transform="translate(0.000000, 132.000000)" fill="#5375A1">
                <path d="M17.9610081,0 C8.04159724,0 0.000119743247,8.04207621 0.000119743247,17.9611278 C0.000119743247,27.8801794 8.04159724,35.9229741 17.9610081,35.9229741 C27.8804189,35.9229741 35.9228543,27.8806584 35.9228543,17.9611278 C35.9228543,8.04159724 27.8804189,0 17.9610081,0 Z M26.9856974,14.7645818 L22.5927966,19.1574826 C22.1163382,19.633941 21.4828965,19.8962984 20.8092209,19.8962984 C20.1356652,19.8962984 19.5021037,19.6338212 19.0256453,19.1577221 L18.8535742,18.985651 L18.3858571,19.4533682 L18.5575689,19.62508 C19.54114,20.608651 19.54114,22.2090195 18.5575689,23.1925905 L14.1652669,27.5854913 C13.6888085,28.0619497 13.0553667,28.3243071 12.381332,28.3243071 C11.707417,28.3243071 11.0738555,28.0618299 10.5971576,27.5851321 L8.93691749,25.924413 C7.95334646,24.9414407 7.95334646,23.3411919 8.93655826,22.3572616 L13.3298183,17.9646004 C13.8062766,17.488142 14.4397184,17.2257845 15.1137531,17.2257845 C15.7877879,17.2257845 16.4208704,17.4882617 16.897688,17.9646004 L17.0691604,18.1360727 L17.5368775,17.6683556 L17.3654052,17.4968832 C16.3818341,16.5136714 16.3818341,14.913303 17.3648064,13.9297319 L21.7580664,9.53683116 C22.2347643,9.0601333 22.8683258,8.7976561 23.5420013,8.7976561 C24.2156768,8.7976561 24.8491186,9.0601333 25.3259362,9.53647193 L26.9865356,11.19767 C27.9692684,12.1806423 27.9692684,13.7812503 26.9856974,14.7645818 Z" id="Shape"></path>
                <path d="M17.0680827,20.7705439 L16.2187438,21.6198827 L14.9013286,20.3028268 L15.7506675,19.4534879 L15.5791951,19.2820156 C15.4546622,19.1578418 15.289177,19.0891092 15.1133939,19.0891092 C14.9372516,19.0891092 14.7717664,19.1577221 14.6472335,19.2820156 L10.2543327,23.6743176 C9.99748343,23.9314064 9.99748343,24.34943 10.2543327,24.6062793 L11.9151715,26.2674774 C12.1645967,26.5169026 12.598666,26.5165433 12.8474925,26.2678366 L17.2397945,21.8749358 C17.497003,21.6178471 17.497003,21.1994642 17.2397945,20.9422557 L17.0680827,20.7705439 Z" id="Shape"></path>
                <path d="M24.0076828,10.8538871 C23.8831498,10.7293542 23.7173054,10.6607413 23.5411631,10.6607413 C23.3650208,10.6607413 23.1991764,10.7293542 23.0746434,10.8542464 L18.6817427,15.2469076 C18.4252526,15.5039964 18.4252526,15.9220201 18.6821019,16.1792286 L18.8538137,16.3507009 L20.1566202,15.0475351 L21.4740355,16.3649503 L20.1712289,17.6681161 L20.3429407,17.8398279 C20.5923659,18.0885346 21.0258365,18.0888939 21.2752617,17.8394687 L25.6679229,13.4471666 C25.9247722,13.1900779 25.9247722,12.7720542 25.6679229,12.5148457 L24.0076828,10.8538871 Z" id="Shape"></path>
            </g>
            <g id="whatsapp" transform="translate(0.000000, 66.000000)">
                <circle id="Oval" fill="#1BD741" cx="17.6607246" cy="17.6607246" r="17.6607246"></circle>
                <g id="Group" transform="translate(8.660725, 7.660725)" fill="#FFFFFF">
                    <path d="M0.0300076088,19.4022881 L1.38599921,14.5862491 C0.514016975,13.1048816 0.0549127092,11.4194138 0.0549127092,9.68796258 C0.0549127092,4.35675248 4.39216632,0.0194988713 9.72337642,0.0194988713 C15.0545865,0.0194988713 19.3917794,4.35675248 19.3917794,9.68796258 C19.3917794,15.0191727 15.0545865,19.3564263 9.72337642,19.3564263 C8.06220622,19.3564263 6.43559944,18.9312173 4.99663133,18.123806 L0.0300076088,19.4022881 Z M5.25054187,16.3648378 L5.54648735,16.5455516 C6.80109697,17.3114746 8.24547131,17.7163343 9.72337642,17.7163343 C14.1502276,17.7163343 17.7516874,14.1148138 17.7516874,9.68796258 C17.7516874,5.26111135 14.1502276,1.65959085 9.72337642,1.65959085 C5.29652519,1.65959085 1.69500469,5.26111135 1.69500469,9.68796258 C1.69500469,11.2304387 2.1333952,12.7283286 2.9626743,14.0196885 L3.16197585,14.3300303 L2.38110983,17.1034866 L5.25054187,16.3648378 Z" id="Shape"></path>
                    <path d="M7.0073841,5.1879754 L6.38001854,5.15377644 C6.18296453,5.14302473 5.98967665,5.20887138 5.840732,5.33825642 C5.53658606,5.60237197 5.05026841,6.11298727 4.90089856,6.77837866 C4.67814977,7.77051282 5.02238685,8.98539577 5.91332126,10.2002787 C6.80425567,11.4151617 8.46457545,13.3589744 11.4005223,14.1891646 C12.3466124,14.4566819 13.0908497,14.2763325 13.6650641,13.9090126 C14.1198556,13.6181089 14.4333561,13.1511687 14.5463402,12.623302 L14.6465073,12.1554506 C14.6783373,12.0067489 14.6028323,11.8558605 14.4647001,11.7922006 L12.3444256,10.814888 C12.2067794,10.7514711 12.0435599,10.7915622 11.9509858,10.9115319 L11.1186087,11.990591 C11.0557385,12.0721096 10.9480999,12.1044255 10.8509093,12.0702873 C10.2808862,11.8699531 8.37145467,11.0702564 7.32373962,9.05209284 C7.278303,8.96456053 7.28960141,8.85831901 7.35405095,8.78366446 L8.1495563,7.86339062 C8.23083197,7.76941943 8.25136349,7.63730091 8.2025252,7.52310191 L7.28856876,5.38484718 C7.23991269,5.27101265 7.13087695,5.194718 7.0073841,5.1879754 Z" id="Shape"></path>
                </g>
            </g>
        </g>
    </g>
</svg>