<?xml version="1.0" encoding="UTF-8"?>
<svg width="17px" height="19px" viewBox="0 0 17 19" version="1.1" xmlns="http://www.w3.org/2000/svg" xmlns:xlink="http://www.w3.org/1999/xlink">
    <!-- Generator: Sketch 52.6 (67491) - http://www.bohemiancoding.com/sketch -->
    <title>share</title>
    <desc>Created with Sketch.</desc>
    <g id="Page-1" stroke="none" stroke-width="1" fill="none" fill-rule="evenodd">
        <g id="Topic" transform="translate(-320.000000, -43.000000)" fill="#FFFFFF" fill-rule="nonzero">
            <g id="Group-23">
                <g id="Group-2" transform="translate(312.000000, 36.000000)">
                    <path d="M22.1666667,20.4297189 C21.4488889,20.4297189 20.8066667,20.7158635 20.3155556,21.1641566 L13.5816667,17.2058233 C13.6288889,16.9864458 13.6666667,16.7670683 13.6666667,16.5381526 C13.6666667,16.3092369 13.6288889,16.0898594 13.5816667,15.8704819 L20.24,11.9503012 C20.75,12.4272088 21.4205556,12.7228916 22.1666667,12.7228916 C23.7344444,12.7228916 25,11.4447791 25,9.86144578 C25,8.27811245 23.7344444,7 22.1666667,7 C20.5988889,7 19.3333333,8.27811245 19.3333333,9.86144578 C19.3333333,10.0903614 19.3711111,10.309739 19.4183333,10.5291165 L12.76,14.4492972 C12.25,13.9723896 11.5794444,13.6767068 10.8333333,13.6767068 C9.26555556,13.6767068 8,14.9548193 8,16.5381526 C8,18.1214859 9.26555556,19.3995984 10.8333333,19.3995984 C11.5794444,19.3995984 12.25,19.1039157 12.76,18.627008 L19.4844444,22.5948795 C19.4372222,22.7951807 19.4088889,23.0050201 19.4088889,23.2148594 C19.4088889,24.750502 20.6461111,26 22.1666667,26 C23.6872222,26 24.9244444,24.750502 24.9244444,23.2148594 C24.9244444,21.6792169 23.6872222,20.4297189 22.1666667,20.4297189 Z M22.1666667,8.90763052 C22.6861111,8.90763052 23.1111111,9.33684739 23.1111111,9.86144578 C23.1111111,10.3860442 22.6861111,10.815261 22.1666667,10.815261 C21.6472222,10.815261 21.2222222,10.3860442 21.2222222,9.86144578 C21.2222222,9.33684739 21.6472222,8.90763052 22.1666667,8.90763052 Z M10.8333333,17.4919679 C10.3138889,17.4919679 9.88888889,17.062751 9.88888889,16.5381526 C9.88888889,16.0135542 10.3138889,15.5843373 10.8333333,15.5843373 C11.3527778,15.5843373 11.7777778,16.0135542 11.7777778,16.5381526 C11.7777778,17.062751 11.3527778,17.4919679 10.8333333,17.4919679 Z M22.1666667,24.187751 C21.6472222,24.187751 21.2222222,23.7585341 21.2222222,23.2339357 C21.2222222,22.7093373 21.6472222,22.2801205 22.1666667,22.2801205 C22.6861111,22.2801205 23.1111111,22.7093373 23.1111111,23.2339357 C23.1111111,23.7585341 22.6861111,24.187751 22.1666667,24.187751 Z" id="share"></path>
                </g>
            </g>
        </g>
    </g>
</svg>