<?xml version="1.0" encoding="UTF-8"?>
<svg width="28px" height="28px" viewBox="0 0 28 28" version="1.1" xmlns="http://www.w3.org/2000/svg" xmlns:xlink="http://www.w3.org/1999/xlink">
    <!-- Generator: Sketch 52.6 (67491) - http://www.bohemiancoding.com/sketch -->
    <title>Share</title>
    <desc>Created with Sketch.</desc>
    <g id="Page-1" stroke="none" stroke-width="1" fill="none" fill-rule="evenodd">
        <g id="Results_No-sponsor" transform="translate(-316.000000, -34.000000)">
            <g id="App-Bar" transform="translate(0.000000, 24.000000)">
                <g id="Group-35" transform="translate(272.000000, 10.000000)">
                    <g id="Share" transform="translate(44.000000, 0.000000)">
                        <rect id="Rectangle-Copy-13" stroke="#1F9EE1" fill="#1F9EE1" x="0.5" y="0.5" width="27" height="27" rx="4"></rect>
                        <path d="M18.3333333,17.7228916 C17.6577778,17.7228916 17.0533333,17.9939759 16.5911111,18.4186747 L10.2533333,14.6686747 C10.2977778,14.4608434 10.3333333,14.253012 10.3333333,14.0361446 C10.3333333,13.8192771 10.2977778,13.6114458 10.2533333,13.4036145 L16.52,9.68975904 C17,10.1415663 17.6311111,10.4216867 18.3333333,10.4216867 C19.8088889,10.4216867 21,9.21084337 21,7.71084337 C21,6.21084337 19.8088889,5 18.3333333,5 C16.8577778,5 15.6666667,6.21084337 15.6666667,7.71084337 C15.6666667,7.92771084 15.7022222,8.13554217 15.7466667,8.34337349 L9.48,12.0572289 C9,11.6054217 8.36888889,11.3253012 7.66666667,11.3253012 C6.19111111,11.3253012 5,12.5361446 5,14.0361446 C5,15.5361446 6.19111111,16.746988 7.66666667,16.746988 C8.36888889,16.746988 9,16.4668675 9.48,16.0150602 L15.8088889,19.7740964 C15.7644444,19.9638554 15.7377778,20.1626506 15.7377778,20.3614458 C15.7377778,21.8162651 16.9022222,23 18.3333333,23 C19.7644444,23 20.9288889,21.8162651 20.9288889,20.3614458 C20.9288889,18.9066265 19.7644444,17.7228916 18.3333333,17.7228916 Z M18.3333333,6.80722892 C18.8222222,6.80722892 19.2222222,7.21385542 19.2222222,7.71084337 C19.2222222,8.20783133 18.8222222,8.61445783 18.3333333,8.61445783 C17.8444444,8.61445783 17.4444444,8.20783133 17.4444444,7.71084337 C17.4444444,7.21385542 17.8444444,6.80722892 18.3333333,6.80722892 Z M7.66666667,14.939759 C7.17777778,14.939759 6.77777778,14.5331325 6.77777778,14.0361446 C6.77777778,13.5391566 7.17777778,13.1325301 7.66666667,13.1325301 C8.15555556,13.1325301 8.55555556,13.5391566 8.55555556,14.0361446 C8.55555556,14.5331325 8.15555556,14.939759 7.66666667,14.939759 Z M18.3333333,21.2831325 C17.8444444,21.2831325 17.4444444,20.876506 17.4444444,20.3795181 C17.4444444,19.8825301 17.8444444,19.4759036 18.3333333,19.4759036 C18.8222222,19.4759036 19.2222222,19.8825301 19.2222222,20.3795181 C19.2222222,20.876506 18.8222222,21.2831325 18.3333333,21.2831325 Z" id="share" fill="#FFFFFF" fill-rule="nonzero"></path>
                    </g>
                </g>
            </g>
        </g>
    </g>
</svg>