<svg xmlns="http://www.w3.org/2000/svg" width="36" height="36" viewBox="0 0 36 36">
  <g fill="none" fill-rule="evenodd">
    <circle cx="18" cy="18" r="18" fill="#BF3D31"/>
    <path fill="#FBF7F7" fill-rule="nonzero" d="M15.9352781,17.6234916 C15.9352781,18.0347749 15.859765,18.427853 15.7284826,18.7942645 L21.2379869,21.4431189 C21.8717068,20.7497834 22.7811968,20.3122179 23.7946616,20.3122179 C25.7096676,20.3122179 27.2621083,21.8647869 27.2621083,23.7796646 C27.2621083,25.694927 25.7095394,27.247496 23.7946616,27.247496 C21.8793992,27.247496 20.3268303,25.694927 20.3268303,23.7796646 C20.3268303,23.5960743 20.3454201,23.4172276 20.3727278,23.2415861 L14.5091197,20.4222182 C13.9359129,20.8408093 13.2319363,21.0911947 12.4674467,21.0911947 C10.5524408,21.0911947 9,19.5390104 9,17.623748 C9,15.7084856 10.552569,14.1563013 12.4674467,14.1563013 C13.2319363,14.1563013 13.9361692,14.406302 14.5093762,14.8252778 L20.3733689,12.0061663 C20.3458046,11.8302684 20.3270866,11.6514217 20.3270866,11.4678314 C20.3270866,9.55256895 21.8796556,8 23.794918,8 C25.7099239,8 27.2623647,9.55256895 27.2623647,11.4678314 C27.2623647,13.3828373 25.7097957,14.9352781 23.794918,14.9352781 C22.7810687,14.9352781 21.8719633,14.4977126 21.2378587,13.8039924 L15.728739,16.4528469 C15.8601496,16.8191301 15.9352781,17.2122082 15.9352781,17.6234916 Z"/>
  </g>
</svg>
