<?xml version="1.0" encoding="UTF-8" standalone="no"?>
<svg width="50px" height="960px" viewBox="0 0 50 960" version="1.1" xmlns="http://www.w3.org/2000/svg" xmlns:xlink="http://www.w3.org/1999/xlink">
    <!-- Generator: Sketch 41.2 (35397) - http://www.bohemiancoding.com/sketch -->
    <title>Group</title>
    <desc>Created with Sketch.</desc>
    <defs></defs>
    <g id="Page-1" stroke="none" stroke-width="1" fill="none" fill-rule="evenodd">
        <g id="Group-2" transform="translate(-1.000000, -12.000000)">
            <g id="Group">
                <g id="ic_menu_black_24px">
                    <polygon id="Shape" points="0 0 50 0 50 50 0 50"></polygon>
                    <path d="M6.25,37.5 L43.75,37.5 L43.75,33.3333333 L6.25,33.3333333 L6.25,37.5 L6.25,37.5 Z M6.25,27.0833333 L43.75,27.0833333 L43.75,22.9166667 L6.25,22.9166667 L6.25,27.0833333 L6.25,27.0833333 Z M6.25,12.5 L6.25,16.6666667 L43.75,16.6666667 L43.75,12.5 L6.25,12.5 L6.25,12.5 Z" id="Shape" fill="#4A4A4A"></path>
                </g>
                <g id="share" transform="translate(1.000000, 319.000000)">
                    <g id="Page-1">
                        <g id="News-Details">
                            <g id="share">
                                <g id="share-copy">
                                    <g id="path-1-link" fill="#000000">
                                        <path d="M24.99975,0 C11.1935547,0 0,11.1930547 0,24.99975 C0,38.8059453 11.1935547,50 24.99975,50 C38.8067786,50 49.9995,38.8059453 49.9995,24.99975 C49.9995,11.1930547 38.8066119,0 24.99975,0 Z" id="path-1"></path>
                                    </g>
                                    <g id="path-1-link" fill="#BF3D31">
                                        <path d="M24.99975,0 C11.1935547,0 0,11.1930547 0,24.99975 C0,38.8059453 11.1935547,50 24.99975,50 C38.8067786,50 49.9995,38.8059453 49.9995,24.99975 C49.9995,11.1930547 38.8066119,0 24.99975,0 Z" id="path-1"></path>
                                    </g>
                                </g>
                                <path d="M23.2064211,24.9997336 C23.2064211,25.4270965 23.1279558,25.8355425 22.9915407,26.2162792 L28.7164457,28.9686938 C29.3749417,28.2482515 30.3199893,27.7935789 31.3730767,27.7935789 C33.3629521,27.7935789 34.9760874,29.4068474 34.9760874,31.3965896 C34.9760874,33.3867315 33.3628189,35 31.3730767,35 C29.3829348,35 27.7696663,33.3867315 27.7696663,31.3965896 C27.7696663,31.2058216 27.7889829,31.0199827 27.8173583,30.8374742 L21.7245054,27.9078798 C21.1288883,28.3428362 20.3973889,28.6030107 19.6030107,28.6030107 C17.6131353,28.6030107 16,26.9901419 16,25 C16,23.0098581 17.6132685,21.3969893 19.6030107,21.3969893 C20.3973889,21.3969893 21.1291547,21.6567641 21.7247719,22.0921202 L27.8180244,19.1627922 C27.7893825,18.9800173 27.7699327,18.7941784 27.7699327,18.6034104 C27.7699327,16.6132685 29.3832012,15 31.3733431,15 C33.3632185,15 34.9763538,16.6132685 34.9763538,18.6034104 C34.9763538,20.5932858 33.3630853,22.2064211 31.3733431,22.2064211 C30.3198561,22.2064211 29.3752082,21.7517485 28.7163125,21.0309065 L22.9918071,23.7833211 C23.1283554,24.1639246 23.2064211,24.5723706 23.2064211,24.9997336 Z" id="Path" fill="#FFFFFF"></path>
                            </g>
                        </g>
                    </g>
                </g>
                <g id="Whatsapp" transform="translate(1.000000, 470.000000)" fill="#67C15E">
                    <g id="Page-1">
                        <g id="News-Details">
                            <g id="Share-icons---color">
                                <path d="M24.9927432,4.4408921e-15 L24.9927432,0.000414789743 L25.0072568,0.000414789743 C38.7893212,0.000414789743 50,11.2142555 50,25.0002075 C50,38.7857445 38.7893212,50 25.0072568,50 C19.9233685,50 15.2068802,48.4864323 11.254634,45.8703533 L1.6454215,48.9414565 L4.7604435,39.6530698 C1.76318875,35.537526 0,30.4671363 0,24.9997926 C0,11.2138407 11.2106788,4.4408921e-15 24.9927432,4.4408921e-15 Z M18.0133857,12.698788 C17.5286332,11.5377915 17.161233,11.4938238 16.4268475,11.4639589 C16.1768,11.4494413 15.8981397,11.4349236 15.5892085,11.4349236 C14.6338025,11.4349236 13.6348557,11.7140771 13.0323363,12.3312843 C12.2979507,13.0808094 10.4758785,14.8295629 10.4758785,18.415835 C10.4758785,22.0021071 13.0912198,25.470579 13.4436915,25.955883 C13.8110917,26.4403575 18.542508,33.9065728 25.888851,36.9494702 C31.6337277,39.3303635 33.3384477,39.1096953 34.645911,38.8305418 C36.5558938,38.4190702 38.9510437,37.007541 39.5535632,35.3031698 C40.1560825,33.5979692 40.1560825,32.1428868 39.9794323,31.8342832 C39.8031962,31.5256797 39.3180292,31.3498087 38.5836438,30.9818902 C37.8492582,30.6143865 34.2785107,28.8507005 33.6025942,28.6155147 C32.941191,28.3658112 32.3096445,28.4541615 31.8103785,29.159719 C31.10502,30.1444297 30.4145898,31.144073 29.8560255,31.7463477 C29.4152285,32.2167192 28.6949417,32.2756195 28.092837,32.0255012 C27.2846398,31.6878625 25.022185,30.89354 22.2301932,28.409779 C20.0701628,26.48474 18.600977,24.0893291 18.175108,23.3692541 C17.7488245,22.6346615 18.1311528,22.2078428 18.4686963,21.8113038 C18.8360965,21.3554499 19.1885682,21.0323287 19.5559685,20.6059248 C19.9233685,20.1799358 20.1290463,19.9592676 20.3641658,19.459446 C20.6142133,18.9745568 20.4375627,18.4747351 20.2613267,18.1072314 C20.0850907,17.7397277 18.6159053,14.1534556 18.0133857,12.698788 Z" id="Whatsapp"></path>
                            </g>
                        </g>
                    </g>
                </g>
                <g id="Twitter" transform="translate(1.000000, 620.000000)" fill="#00AAEC">
                    <g id="Page-1">
                        <g id="News-Details">
                            <g id="Share-icons---color">
                                <path d="M44.1098785,6.5878175 C46.2287963,5.28770917 47.8546692,3.22619477 48.6206492,0.770434573 C46.6367319,1.97423859 44.4444444,2.85000602 42.1024829,3.31948958 C40.2359571,1.27603226 37.5682337,0 34.615836,0 C28.9546281,0 24.3616833,4.70988323 24.3616833,10.5182376 C24.3616833,11.3428434 24.4497271,12.1433731 24.6258144,12.9138076 C16.1002523,12.4744192 8.54317083,8.29120019 3.48065979,1.92006741 C2.59728833,3.47899363 2.09250458,5.28770917 2.09250458,7.2137956 C2.09250458,10.8613218 3.90326937,14.0814975 6.65610146,15.9684603 C4.97740208,15.9172987 3.39261604,15.4387866 2.00739562,14.656314 L2.00739562,14.7857229 C2.00739562,19.8838329 5.54381646,24.1362706 10.2394788,25.0993138 C9.37958563,25.3460938 8.47273583,25.4694835 7.53653812,25.4694835 C6.87621063,25.4694835 6.23055708,25.406284 5.60544688,25.282894 C6.91142812,29.460094 10.6973058,32.5027085 15.1875329,32.5839654 C11.6775254,35.4068858 7.25186354,37.0892019 2.44761396,37.0892019 C1.62000354,37.0892019 0.801197292,37.0410498 0,36.9447454 C4.54011854,39.9241604 9.93426063,41.6666667 15.7245994,41.6666667 C34.5952925,41.6666667 44.9110758,25.6410256 44.9110758,11.7400987 C44.9110758,11.2826532 44.9022715,10.8252076 44.8846627,10.3767907 C46.8891238,8.89310221 48.6294535,7.04225352 50,4.93258698 C48.1628221,5.76923077 46.1847744,6.33501867 44.1098785,6.5878175 Z" id="Twitter"></path>
                            </g>
                        </g>
                    </g>
                </g>
                <g id="Facebook" transform="translate(1.000000, 762.000000)" fill="#4460A0">
                    <g id="Page-1">
                        <g id="News-Details">
                            <g id="Share-icons---color">
                                <path d="M26.70662,50 L2.75961617,50 C1.23507568,50 0,48.7641577 0,47.2402113 L0,2.75959475 C0,1.23526011 1.23526969,0 2.75961617,0 L47.2405777,0 C48.7645362,0 50,1.23526011 50,2.75959475 L50,47.2402113 C50,48.7643518 48.7643422,50 47.2405777,50 L34.4992763,50 L34.4992763,30.6372445 L40.9984595,30.6372445 L41.97162,23.091235 L34.4992763,23.091235 L34.4992763,18.2735848 C34.4992763,16.0888409 35.1059495,14.6000101 38.2388435,14.6000101 L42.2346992,14.598264 L42.2346992,7.84905265 C41.5436312,7.75709202 39.1716495,7.5516357 36.4120333,7.5516357 C30.650869,7.5516357 26.70662,11.0682565 26.70662,17.5262592 L26.70662,23.091235 L20.1907519,23.091235 L20.1907519,30.6372445 L26.70662,30.6372445 L26.70662,50 L26.70662,50 Z" id="Facebook"></path>
                            </g>
                        </g>
                    </g>
                </g>
                <path d="M39.5561936,954.986054 L12.4438064,954.986054 L6.29122231,971.721083 L1,971.721083 L23.6004922,912 L28.3995078,912 L51,971.721083 L45.7497949,971.721083 L39.5561936,954.986054 Z M14.002461,950.679245 L37.9565217,950.679245 L25.9794914,918.152584 L14.002461,950.679245 Z" id="A" fill="#979797"></path>
                <g id="1496241488_basics-07" transform="translate(21.000000, 177.677419) scale(1, -1) rotate(-90.000000) translate(-21.000000, -177.677419) translate(-19.000000, 157.677419)" fill="#2D2D2D">
                    <polygon id="Shape" points="39.7354839 3.30645161 77.4290323 39.8096774 79.4129032 38.6193548 39.7354839 0.132258065 0.0580645161 38.6193548 2.17419355 39.8096774"></polygon>
                </g>
            </g>
        </g>
    </g>
</svg>