<?xml version="1.0" encoding="UTF-8" standalone="no"?>
<svg width="200px" height="134px" viewBox="0 0 200 134" version="1.1" xmlns="http://www.w3.org/2000/svg" xmlns:xlink="http://www.w3.org/1999/xlink">
    <!-- Generator: Sketch 41.2 (35397) - http://www.bohemiancoding.com/sketch -->
    <title>ind_flg</title>
    <desc>Created with Sketch.</desc>
    <defs></defs>
    <g id="Page-1" stroke="none" stroke-width="1" fill="none" fill-rule="evenodd">
        <g id="ind_flg">
            <g id="Group">
                <rect id="Rectangle-path" fill="#F89938" x="0" y="0.0369685767" width="199.778189" height="44.3622921"></rect>
                <rect id="Rectangle-path" x="0" y="0.0369685767" width="199.778189" height="133.086876"></rect>
                <rect id="Rectangle-path" fill="#FFFFFF" x="0" y="44.3622921" width="199.778189" height="44.3622921"></rect>
                <rect id="Rectangle-path" fill="#1C8943" x="0" y="88.7245841" width="199.778189" height="44.3622921"></rect>
                <g transform="translate(79.112754, 45.841035)">
                    <ellipse id="Oval" fill="#2C479E" cx="20.7763401" cy="20.9242144" rx="20.6654344" ry="20.6654344"></ellipse>
                    <path d="M34.5656192,32.9390018 C34.1219963,32.4953789 34.1219963,31.792976 34.5656192,31.349353 C34.9722736,30.9426987 35.6007394,30.9057301 36.0443623,31.2384473 C36.5249538,30.5360444 36.9316081,29.7966728 37.3382625,29.0203327 C37.3012939,29.0203327 37.2643253,28.9833641 37.2273567,28.9833641 C36.6728281,28.6876155 36.4879852,27.9852126 36.8207024,27.4306839 C37.116451,26.9500924 37.7079482,26.728281 38.2255083,26.9500924 C38.4842884,26.1737523 38.7060998,25.3604436 38.8909427,24.5101664 C38.336414,24.4362292 37.9297597,23.9556377 37.9297597,23.4011091 C37.9297597,22.7726433 38.4473198,22.2550832 39.0757856,22.2550832 L39.2236599,22.2550832 C39.2606285,21.8114603 39.2606285,21.3678373 39.2606285,20.9242144 C39.2606285,20.5175601 39.2606285,20.1109057 39.2236599,19.7042514 L39.0757856,19.7042514 C38.4473198,19.7042514 37.9297597,19.1866913 37.9297597,18.5582255 C37.9297597,17.9667283 38.3733826,17.5231054 38.9279113,17.4491682 C38.780037,16.5988909 38.5582255,15.7855823 38.2624769,14.9722736 C38.2255083,15.0092421 38.1515712,15.0092421 38.1146026,15.0092421 C37.5231054,15.1571165 36.8946396,14.8243993 36.7097967,14.1959335 C36.5619224,13.6414048 36.857671,13.0499076 37.3752311,12.8650647 C37.0055453,12.0887246 36.5619224,11.349353 36.1182994,10.6469501 C35.6746765,11.0166359 35.0092421,10.9796673 34.6025878,10.5730129 C34.1589649,10.12939 34.1589649,9.42698706 34.6025878,8.98336414 C34.6395564,8.94639556 34.676525,8.90942699 34.7134935,8.87245841 C34.1589649,8.24399261 33.5674677,7.6155268 32.9020333,7.06099815 C32.8650647,7.09796673 32.8280961,7.1349353 32.7911275,7.20887246 C32.3475046,7.65249538 31.6451017,7.65249538 31.2014787,7.20887246 C30.7948244,6.80221811 30.7578558,6.13678373 31.1275416,5.69316081 C30.4251386,5.21256932 29.6857671,4.7689464 28.909427,4.39926063 C28.8724584,4.47319778 28.8724584,4.51016636 28.8354898,4.58410351 C28.5397412,5.13863216 27.8373383,5.32347505 27.2828096,4.99075786 C26.7652495,4.69500924 26.5804067,4.06654344 26.8022181,3.54898336 C25.9889094,3.29020333 25.1756007,3.06839187 24.3253235,2.88354898 C24.2883549,3.47504621 23.8077634,3.91866913 23.1792976,3.91866913 C22.5508318,3.91866913 22.0332717,3.40110906 22.0332717,2.77264325 L22.0332717,2.58780037 C21.5896488,2.55083179 21.1829945,2.55083179 20.7393715,2.55083179 C20.2957486,2.55083179 19.8890943,2.55083179 19.4824399,2.58780037 C19.4824399,2.66173752 19.5194085,2.73567468 19.5194085,2.77264325 C19.5194085,3.40110906 19.0018484,3.91866913 18.3733826,3.91866913 C17.7818854,3.91866913 17.3012939,3.47504621 17.2273567,2.88354898 C16.3770795,3.03142329 15.5268022,3.29020333 14.7134935,3.54898336 C14.7504621,3.62292052 14.7504621,3.65988909 14.7874307,3.73382625 C14.935305,4.32532348 14.6025878,4.95378928 13.974122,5.13863216 C13.3826248,5.28650647 12.8280961,4.99075786 12.6062847,4.43622921 C11.8299445,4.80591497 11.1275416,5.24953789 10.4251386,5.69316081 C10.7948244,6.13678373 10.7948244,6.80221811 10.3512015,7.20887246 C9.90757856,7.65249538 9.2051756,7.65249538 8.76155268,7.20887246 C8.7245841,7.17190388 8.68761553,7.09796673 8.65064695,7.06099815 C8.02218115,7.6155268 7.39371534,8.24399261 6.83918669,8.87245841 C6.87615527,8.90942699 6.95009242,8.94639556 6.987061,8.98336414 C7.43068392,9.42698706 7.43068392,10.12939 6.987061,10.5730129 C6.58040665,10.9796673 5.91497227,11.0166359 5.47134935,10.6469501 C4.99075786,11.349353 4.54713494,12.0887246 4.17744917,12.8650647 C4.25138632,12.9020333 4.2883549,12.9020333 4.36229205,12.9390018 C4.9168207,13.2347505 5.10166359,13.9371534 4.7689464,14.4916821 C4.47319778,15.0092421 3.84473198,15.194085 3.3271719,14.9722736 C3.06839187,15.7855823 2.84658041,16.5988909 2.66173752,17.4121996 C3.21626617,17.4861368 3.69685767,17.9667283 3.69685767,18.5212569 C3.69685767,19.1497227 3.1792976,19.6672828 2.55083179,19.6672828 L2.36598891,19.6672828 C2.32902033,20.0739372 2.32902033,20.4805915 2.32902033,20.8872458 C2.32902033,21.3308688 2.32902033,21.7744917 2.36598891,22.2181146 L2.55083179,22.2181146 C3.1792976,22.2181146 3.69685767,22.7356747 3.69685767,23.3641405 C3.69685767,23.9556377 3.25323475,24.4362292 2.6987061,24.4731978 C2.88354898,25.323475 3.10536044,26.1367837 3.36414048,26.9500924 C3.40110906,26.9131238 3.47504621,26.9131238 3.51201479,26.9131238 C4.10351201,26.7652495 4.73197782,27.0979667 4.9168207,27.7264325 C5.06469501,28.2809612 4.7689464,28.8724584 4.25138632,29.0573013 C4.62107209,29.8336414 5.06469501,30.5360444 5.54528651,31.2384473 C5.98890943,30.9057301 6.61737523,30.9426987 7.02402957,31.349353 C7.4676525,31.792976 7.4676525,32.4953789 7.02402957,32.9390018 C6.987061,32.9759704 6.95009242,33.012939 6.91312384,33.012939 C7.4676525,33.6414048 8.05914972,34.2698706 8.7245841,34.8243993 C8.76155268,34.7874307 8.79852126,34.7504621 8.79852126,34.7134935 C9.24214418,34.2698706 9.94454713,34.2698706 10.3881701,34.7134935 C10.7948244,35.1201479 10.831793,35.7486137 10.4990758,36.1922366 C11.2014787,36.6728281 11.9408503,37.0794824 12.7171904,37.4491682 C12.7171904,37.4121996 12.754159,37.3752311 12.7911275,37.3382625 C13.0868762,36.7837338 13.7892791,36.5988909 14.3438078,36.9316081 C14.8243993,37.2273567 15.0462107,37.818854 14.8243993,38.336414 C15.6007394,38.5951941 16.4510166,38.8170055 17.2643253,39.0018484 C17.3382625,38.4473198 17.818854,38.0406654 18.3733826,38.0406654 C19.0018484,38.0406654 19.5194085,38.5582255 19.5194085,39.1866913 L19.5194085,39.297597 C19.9260628,39.3345656 20.3696858,39.3345656 20.7763401,39.3345656 C21.219963,39.3345656 21.6266174,39.3345656 22.0702403,39.297597 L22.0702403,39.1866913 C22.0702403,38.5582255 22.5878004,38.0406654 23.2162662,38.0406654 C23.7707948,38.0406654 24.2513863,38.4473198 24.3253235,39.0018484 C25.1756007,38.8539741 25.9889094,38.6321627 26.8022181,38.336414 C26.8022181,38.2994455 26.7652495,38.2624769 26.7652495,38.2255083 C26.6173752,37.6340111 26.9500924,37.0055453 27.5785582,36.8207024 C28.1330869,36.6728281 28.6876155,36.9316081 28.909427,37.4491682 C29.6487985,37.0794824 30.3881701,36.6728281 31.090573,36.1922366 C30.7578558,35.7486137 30.831793,35.1201479 31.2014787,34.7504621 C31.6451017,34.3068392 32.3475046,34.3068392 32.7911275,34.7504621 C32.8280961,34.7874307 32.8280961,34.7874307 32.8650647,34.8243993 C33.4935305,34.2698706 34.1219963,33.6783734 34.676525,33.012939 C34.6025878,32.9759704 34.5656192,32.9759704 34.5656192,32.9390018 Z" id="Shape" fill="#FFFFFF"></path>
                    <g transform="translate(2.218115, 2.218115)" id="Shape" fill="#2C479E">
                        <g>
                            <g>
                                <g transform="translate(17.744917, 0.000000)">
                                    <path d="M0.813308688,0.295748614 L0.0739371534,10.8687616 C0.0739371534,10.8687616 0.813308688,14.7504621 0.813308688,18.6691312 C0.813308688,14.7134935 1.51571165,10.8687616 1.51571165,10.8687616 L0.813308688,0.295748614 Z"></path>
                                    <path d="M0.813308688,37.0794824 L0.0739371534,26.5064695 C0.0739371534,26.5064695 0.813308688,22.6247689 0.813308688,18.7060998 C0.813308688,22.6617375 1.51571165,26.5064695 1.51571165,26.5064695 L0.813308688,37.0794824 Z"></path>
                                </g>
                                <g transform="translate(0.000000, 17.744917)">
                                    <path d="M36.9316081,0.961182994 L26.3585952,0.22181146 C26.3585952,0.22181146 22.4768946,0.961182994 18.5582255,0.961182994 C22.5138632,0.961182994 26.3585952,1.66358595 26.3585952,1.66358595 L36.9316081,0.961182994 Z"></path>
                                    <path d="M0.147874307,0.961182994 L10.7208872,0.22181146 C10.7208872,0.22181146 14.6025878,0.961182994 18.5212569,0.961182994 C14.5656192,0.961182994 10.7208872,1.66358595 10.7208872,1.66358595 L0.147874307,0.961182994 Z"></path>
                                </g>
                            </g>
                            <g transform="translate(5.175601, 5.545287)">
                                <g transform="translate(0.369686, 0.000000)">
                                    <path d="M26.025878,0.147874307 L18.0406654,7.09796673 C18.0406654,7.09796673 15.8225508,10.3512015 13.012939,13.1238447 C15.7855823,10.3512015 19.038817,8.0961183 19.038817,8.0961183 L26.025878,0.147874307 Z"></path>
                                    <path d="M0,26.1737523 L6.95009242,18.1885397 C6.95009242,18.1885397 10.2033272,15.9704251 12.9759704,13.1608133 C10.2033272,15.9334566 7.94824399,19.1866913 7.94824399,19.1866913 L0,26.1737523 Z"></path>
                                </g>
                                <g>
                                    <path d="M26.3585952,26.1737523 L19.4085028,18.1885397 C19.4085028,18.1885397 16.155268,15.9704251 13.3826248,13.1608133 C16.155268,15.9334566 18.4103512,19.1866913 18.4103512,19.1866913 L26.3585952,26.1737523 Z"></path>
                                    <path d="M0.33271719,0.147874307 L8.31792976,7.09796673 C8.31792976,7.09796673 10.5360444,10.3512015 13.3456562,13.1238447 C10.5730129,10.3512015 7.31977819,8.0961183 7.31977819,8.0961183 L0.33271719,0.147874307 Z"></path>
                                </g>
                            </g>
                        </g>
                        <g transform="translate(0.739372, 0.739372)">
                            <g>
                                <g transform="translate(12.939002, 0.000000)">
                                    <path d="M9.72273567,0.22181146 L6.24768946,10.2402957 C6.24768946,10.2402957 5.91497227,14.1589649 4.87985213,17.9667283 C5.91497227,14.1589649 7.6155268,10.6099815 7.6155268,10.6099815 L9.72273567,0.22181146 Z"></path>
                                    <path d="M0.0369685767,35.7116451 L2.10720887,25.323475 C2.10720887,25.323475 3.84473198,21.7744917 4.87985213,17.9667283 C3.84473198,21.7744917 3.51201479,25.6931608 3.51201479,25.6931608 L0.0369685767,35.7116451 Z"></path>
                                </g>
                                <g transform="translate(0.000000, 12.939002)">
                                    <path d="M35.5637708,9.87060998 L25.5452865,6.39556377 C25.5452865,6.39556377 21.6266174,6.06284658 17.818854,5.02772643 C21.6266174,6.06284658 25.1756007,7.76340111 25.1756007,7.76340111 L35.5637708,9.87060998 Z"></path>
                                    <path d="M0.0369685767,0.184842884 L10.4251386,2.25508318 C10.4251386,2.25508318 13.974122,3.99260628 17.7818854,5.02772643 C13.974122,3.99260628 10.0554529,3.65988909 10.0554529,3.65988909 L0.0369685767,0.184842884 Z"></path>
                                </g>
                            </g>
                            <g transform="translate(1.848429, 1.848429)">
                                <g transform="translate(0.000000, 6.654344)">
                                    <path d="M31.9408503,0.33271719 L22.4029575,4.95378928 C22.4029575,4.95378928 19.4085028,7.50462107 15.9704251,9.46395564 C19.4085028,7.50462107 23.1053604,6.21072089 23.1053604,6.21072089 L31.9408503,0.33271719 Z"></path>
                                    <path d="M0,18.5951941 L8.83548983,12.7171904 C8.83548983,12.7171904 12.5693161,11.4232902 15.9704251,9.46395564 C12.5323475,11.4232902 9.53789279,13.9371534 9.53789279,13.9371534 L0,18.5951941 Z"></path>
                                </g>
                                <g transform="translate(6.654344, 0.000000)">
                                    <path d="M18.4103512,32.0887246 L13.7892791,22.5508318 C13.7892791,22.5508318 11.2384473,19.5563771 9.27911275,16.1182994 C11.2384473,19.5563771 12.5323475,23.2532348 12.5323475,23.2532348 L18.4103512,32.0887246 Z"></path>
                                    <path d="M0.147874307,0.147874307 L6.025878,8.98336414 C6.025878,8.98336414 7.31977819,12.7171904 9.27911275,16.1182994 C7.31977819,12.6802218 4.80591497,9.6857671 4.80591497,9.6857671 L0.147874307,0.147874307 Z"></path>
                                </g>
                            </g>
                        </g>
                        <g transform="translate(0.739372, 0.739372)">
                            <g transform="translate(1.848429, 1.848429)">
                                <g transform="translate(6.654344, 0.000000)">
                                    <path d="M18.5212569,0.184842884 L12.6062847,8.98336414 C12.6062847,8.98336414 11.3123845,12.7171904 9.31608133,16.1182994 C11.2754159,12.7171904 13.8262477,9.6857671 13.8262477,9.6857671 L18.5212569,0.184842884 Z"></path>
                                    <path d="M0.11090573,32.051756 L4.7689464,22.5508318 C4.7689464,22.5508318 7.31977819,19.5563771 9.31608133,16.155268 C7.35674677,19.5563771 6.025878,23.2532348 6.025878,23.2532348 L0.11090573,32.051756 Z"></path>
                                </g>
                                <g transform="translate(0.000000, 6.654344)">
                                    <path d="M31.8669131,18.6691312 L23.0683919,12.754159 C23.0683919,12.754159 19.3345656,11.4602588 15.9334566,9.46395564 C19.3345656,11.4232902 22.3659889,13.974122 22.3659889,13.974122 L31.8669131,18.6691312 Z"></path>
                                    <path d="M0.0369685767,0.258780037 L9.53789279,4.9168207 C9.53789279,4.9168207 12.5323475,7.4676525 15.9334566,9.46395564 C12.5323475,7.50462107 8.83548983,6.17375231 8.83548983,6.17375231 L0.0369685767,0.258780037 Z"></path>
                                </g>
                            </g>
                            <g>
                                <g transform="translate(0.000000, 12.939002)">
                                    <path d="M35.5637708,0.295748614 L25.1756007,2.32902033 C25.1756007,2.32902033 21.6266174,4.02957486 17.818854,5.06469501 C21.6266174,4.02957486 25.5452865,3.73382625 25.5452865,3.73382625 L35.5637708,0.295748614 Z"></path>
                                    <path d="M0.0369685767,9.79667283 L10.0554529,6.35859519 C10.0554529,6.35859519 13.974122,6.06284658 17.7818854,5.02772643 C13.974122,6.06284658 10.4251386,7.72643253 10.4251386,7.72643253 L0.0369685767,9.79667283 Z"></path>
                                </g>
                                <g transform="translate(12.939002, 0.000000)">
                                    <path d="M9.61182994,35.7486137 L7.57855823,25.3604436 C7.57855823,25.3604436 5.8780037,21.8114603 4.84288355,18.0036969 C5.8780037,21.8114603 6.17375231,25.7301294 6.17375231,25.7301294 L9.61182994,35.7486137 Z"></path>
                                    <path d="M0.11090573,0.184842884 L3.54898336,10.2033272 C3.54898336,10.2033272 3.84473198,14.1219963 4.87985213,17.9297597 C3.84473198,14.1219963 2.18114603,10.5730129 2.18114603,10.5730129 L0.11090573,0.184842884 Z"></path>
                                </g>
                            </g>
                        </g>
                    </g>
                </g>
            </g>
        </g>
    </g>
</svg>