<?xml version="1.0" encoding="UTF-8" standalone="no"?>
<svg width="52px" height="2759px" viewBox="0 0 52 2759" version="1.1" xmlns="http://www.w3.org/2000/svg" xmlns:xlink="http://www.w3.org/1999/xlink">
    <!-- Generator: Sketch 43 (38999) - http://www.bohemiancoding.com/sketch -->
    <title>Group 3</title>
    <desc>Created with Sketch.</desc>
    <defs></defs>
    <g id="Page-1" stroke="none" stroke-width="1" fill="none" fill-rule="evenodd">
        <g id="Group-3" transform="translate(0.000000, -12.000000)">
            <g id="Group-4">
                <g id="Group-2">
                    <g id="Group">
                        <g id="ic_menu_black_24px">
                            <polygon id="Shape" points="0 0 50 0 50 50 0 50"></polygon>
                            <path d="M6.25,37.5 L43.75,37.5 L43.75,33.3333333 L6.25,33.3333333 L6.25,37.5 L6.25,37.5 Z M6.25,27.0833333 L43.75,27.0833333 L43.75,22.9166667 L6.25,22.9166667 L6.25,27.0833333 L6.25,27.0833333 Z M6.25,12.5 L6.25,16.6666667 L43.75,16.6666667 L43.75,12.5 L6.25,12.5 L6.25,12.5 Z" id="Shape" fill="#4A4A4A"></path>
                        </g>
                        <g id="share" transform="translate(1.000000, 319.000000)">
                            <g id="Page-1">
                                <g id="News-Details">
                                    <g id="share">
                                        <g id="share-copy" fill="#BF3D31">
                                            <g id="path-1-link">
                                                <path d="M24.99975,0 C11.1935547,0 0,11.1930547 0,24.99975 C0,38.8059453 11.1935547,50 24.99975,50 C38.8067786,50 49.9995,38.8059453 49.9995,24.99975 C49.9995,11.1930547 38.8066119,0 24.99975,0 Z" id="path-1"></path>
                                            </g>
                                        </g>
                                        <path d="M23.2064211,24.9997336 C23.2064211,25.4270965 23.1279558,25.8355425 22.9915407,26.2162792 L28.7164457,28.9686938 C29.3749417,28.2482515 30.3199893,27.7935789 31.3730767,27.7935789 C33.3629521,27.7935789 34.9760874,29.4068474 34.9760874,31.3965896 C34.9760874,33.3867315 33.3628189,35 31.3730767,35 C29.3829348,35 27.7696663,33.3867315 27.7696663,31.3965896 C27.7696663,31.2058216 27.7889829,31.0199827 27.8173583,30.8374742 L21.7245054,27.9078798 C21.1288883,28.3428362 20.3973889,28.6030107 19.6030107,28.6030107 C17.6131353,28.6030107 16,26.9901419 16,25 C16,23.0098581 17.6132685,21.3969893 19.6030107,21.3969893 C20.3973889,21.3969893 21.1291547,21.6567641 21.7247719,22.0921202 L27.8180244,19.1627922 C27.7893825,18.9800173 27.7699327,18.7941784 27.7699327,18.6034104 C27.7699327,16.6132685 29.3832012,15 31.3733431,15 C33.3632185,15 34.9763538,16.6132685 34.9763538,18.6034104 C34.9763538,20.5932858 33.3630853,22.2064211 31.3733431,22.2064211 C30.3198561,22.2064211 29.3752082,21.7517485 28.7163125,21.0309065 L22.9918071,23.7833211 C23.1283554,24.1639246 23.2064211,24.5723706 23.2064211,24.9997336 Z" id="Path" fill="#FFFFFF"></path>
                                    </g>
                                </g>
                            </g>
                        </g>
                        <g id="Whatsapp" transform="translate(1.000000, 470.000000)" fill="#67C15E">
                            <g id="Page-1">
                                <g id="News-Details">
                                    <g id="Share-icons---color">
                                        <path d="M24.9927432,4.4408921e-15 L24.9927432,0.000414789743 L25.0072568,0.000414789743 C38.7893212,0.000414789743 50,11.2142555 50,25.0002075 C50,38.7857445 38.7893212,50 25.0072568,50 C19.9233685,50 15.2068802,48.4864323 11.254634,45.8703533 L1.6454215,48.9414565 L4.7604435,39.6530698 C1.76318875,35.537526 0,30.4671363 0,24.9997926 C0,11.2138407 11.2106788,4.4408921e-15 24.9927432,4.4408921e-15 Z M18.0133857,12.698788 C17.5286332,11.5377915 17.161233,11.4938238 16.4268475,11.4639589 C16.1768,11.4494413 15.8981397,11.4349236 15.5892085,11.4349236 C14.6338025,11.4349236 13.6348557,11.7140771 13.0323363,12.3312843 C12.2979507,13.0808094 10.4758785,14.8295629 10.4758785,18.415835 C10.4758785,22.0021071 13.0912197,25.470579 13.4436915,25.955883 C13.8110917,26.4403575 18.542508,33.9065728 25.888851,36.9494702 C31.6337277,39.3303635 33.3384477,39.1096953 34.645911,38.8305418 C36.5558938,38.4190702 38.9510437,37.007541 39.5535632,35.3031698 C40.1560825,33.5979692 40.1560825,32.1428868 39.9794322,31.8342832 C39.8031962,31.5256798 39.3180292,31.3498087 38.5836438,30.9818903 C37.8492582,30.6143865 34.2785107,28.8507005 33.6025942,28.6155148 C32.941191,28.3658112 32.3096445,28.4541615 31.8103785,29.159719 C31.10502,30.1444298 30.4145898,31.144073 29.8560255,31.7463478 C29.4152285,32.2167193 28.6949417,32.2756195 28.092837,32.0255013 C27.2846398,31.6878625 25.022185,30.89354 22.2301932,28.409779 C20.0701628,26.48474 18.600977,24.0893291 18.175108,23.3692541 C17.7488245,22.6346615 18.1311528,22.2078429 18.4686962,21.8113039 C18.8360965,21.3554499 19.1885682,21.0323287 19.5559685,20.6059249 C19.9233685,20.1799358 20.1290463,19.9592677 20.3641657,19.459446 C20.6142133,18.9745568 20.4375627,18.4747352 20.2613267,18.1072315 C20.0850907,17.7397277 18.6159052,14.1534556 18.0133857,12.698788 Z" id="Whatsapp"></path>
                                    </g>
                                </g>
                            </g>
                        </g>
                        <g id="Twitter" transform="translate(1.000000, 620.000000)" fill="#00AAEC">
                            <g id="Page-1">
                                <g id="News-Details">
                                    <g id="Share-icons---color">
                                        <path d="M44.1098785,6.5878175 C46.2287963,5.28770917 47.8546692,3.22619477 48.6206492,0.770434573 C46.6367319,1.97423859 44.4444444,2.85000602 42.1024829,3.31948958 C40.2359571,1.27603226 37.5682337,0 34.615836,0 C28.9546281,0 24.3616833,4.70988323 24.3616833,10.5182376 C24.3616833,11.3428434 24.4497271,12.1433731 24.6258144,12.9138076 C16.1002523,12.4744192 8.54317083,8.29120019 3.48065979,1.92006741 C2.59728833,3.47899363 2.09250458,5.28770917 2.09250458,7.2137956 C2.09250458,10.8613218 3.90326937,14.0814975 6.65610146,15.9684603 C4.97740208,15.9172987 3.39261604,15.4387866 2.00739562,14.656314 L2.00739562,14.7857229 C2.00739562,19.8838329 5.54381646,24.1362706 10.2394788,25.0993138 C9.37958563,25.3460938 8.47273583,25.4694835 7.53653812,25.4694835 C6.87621063,25.4694835 6.23055708,25.406284 5.60544688,25.282894 C6.91142812,29.460094 10.6973058,32.5027085 15.1875329,32.5839654 C11.6775254,35.4068858 7.25186354,37.0892019 2.44761396,37.0892019 C1.62000354,37.0892019 0.801197292,37.0410498 0,36.9447454 C4.54011854,39.9241604 9.93426063,41.6666667 15.7245994,41.6666667 C34.5952925,41.6666667 44.9110758,25.6410256 44.9110758,11.7400987 C44.9110758,11.2826532 44.9022715,10.8252076 44.8846627,10.3767907 C46.8891238,8.89310221 48.6294535,7.04225352 50,4.93258698 C48.1628221,5.76923077 46.1847744,6.33501867 44.1098785,6.5878175 Z" id="Twitter"></path>
                                    </g>
                                </g>
                            </g>
                        </g>
                        <g id="Facebook" transform="translate(1.000000, 762.000000)" fill="#4460A0">
                            <g id="Page-1">
                                <g id="News-Details">
                                    <g id="Share-icons---color">
                                        <path d="M26.70662,50 L2.75961617,50 C1.23507568,50 0,48.7641577 0,47.2402113 L0,2.75959475 C0,1.23526011 1.23526969,0 2.75961617,0 L47.2405777,0 C48.7645362,0 50,1.23526011 50,2.75959475 L50,47.2402113 C50,48.7643518 48.7643422,50 47.2405777,50 L34.4992763,50 L34.4992763,30.6372445 L40.9984595,30.6372445 L41.97162,23.091235 L34.4992763,23.091235 L34.4992763,18.2735848 C34.4992763,16.0888409 35.1059495,14.6000101 38.2388435,14.6000101 L42.2346992,14.598264 L42.2346992,7.84905265 C41.5436312,7.75709202 39.1716495,7.5516357 36.4120333,7.5516357 C30.650869,7.5516357 26.70662,11.0682565 26.70662,17.5262592 L26.70662,23.091235 L20.1907519,23.091235 L20.1907519,30.6372445 L26.70662,30.6372445 L26.70662,50 L26.70662,50 Z" id="Facebook"></path>
                                    </g>
                                </g>
                            </g>
                        </g>
                        <path d="M39.5561936,954.986054 L12.4438064,954.986054 L6.29122231,971.721083 L1,971.721083 L23.6004922,912 L28.3995078,912 L51,971.721083 L45.7497949,971.721083 L39.5561936,954.986054 Z M14.002461,950.679245 L37.9565217,950.679245 L25.9794914,918.152584 L14.002461,950.679245 Z" id="A" fill="#979797"></path>
                        <g id="1496241488_basics-07" transform="translate(21.000000, 177.677419) scale(1, -1) rotate(-90.000000) translate(-21.000000, -177.677419) translate(-19.000000, 157.677419)" fill="#2D2D2D">
                            <polygon id="Shape" points="39.7354839 3.30645161 77.4290323 39.8096774 79.4129032 38.6193548 39.7354839 0.132258065 0.0580645161 38.6193548 2.17419355 39.8096774"></polygon>
                        </g>
                    </g>
                </g>
                <path d="M49.1866667,1577.07284 L43.4066666,1577.07284 L43.4066666,1573.82394 C43.4066666,1572.85497 42.5566667,1572 41.5366667,1572 L1.75666669,1572 C0.793333305,1572 0,1572.85497 0,1573.82394 L0,1608.64986 C0,1611.72776 2.55,1614.29268 5.61,1614.29268 L45.39,1614.29268 C48.45,1614.23568 51,1611.78476 51,1608.64986 L51,1578.83979 C51,1577.87082 50.2066667,1577.07284 49.1866667,1577.07284 L49.1866667,1577.07284 L49.1866667,1577.07284 Z M3.68333322,1608.64986 L3.68333322,1575.70488 L39.78,1575.70488 L39.78,1608.64986 C39.78,1609.27684 39.8933332,1609.96082 40.1199999,1610.5878 L5.61,1610.5878 C4.53333339,1610.5878 3.68333322,1609.73282 3.68333322,1608.64986 Z M47.3166668,1608.64986 C47.3166668,1609.73282 46.4666666,1610.5878 45.3333334,1610.5878 C44.2566668,1610.5878 43.35,1609.73282 43.35,1608.64986 L43.35,1580.72073 L47.3166668,1580.72073 L47.3166668,1608.64986 L47.3166668,1608.64986 Z M22.95,1595.82526 L36.0966668,1595.82526 L36.0966668,1592.57636 L22.95,1592.57636 L22.95,1595.82526 L22.95,1595.82526 Z M22.95,1604.261 L36.0966668,1604.261 L36.0966668,1601.0121 L22.95,1601.0121 L22.95,1604.261 L22.95,1604.261 Z M7.25333322,1580.94872 L7.25333322,1587.44652 L36.0966668,1587.44652 L36.0966668,1580.94872 L7.25333322,1580.94872 L7.25333322,1580.94872 Z M7.25333322,1604.261 L19.4366666,1604.261 L19.4366666,1592.63336 L7.25333322,1592.63336 L7.25333322,1604.261 L7.25333322,1604.261 Z" id="Shape" fill="#BF3D31" fill-rule="nonzero"></path>
                <g id="ic_menu_black_24px" transform="translate(1.000000, 1255.000000)">
                    <polygon id="Shape" points="0 0 50 0 50 50 0 50"></polygon>
                    <path d="M6.25,37.5 L43.75,37.5 L43.75,33.3333333 L6.25,33.3333333 L6.25,37.5 L6.25,37.5 Z M6.25,27.0833333 L43.75,27.0833333 L43.75,22.9166667 L6.25,22.9166667 L6.25,27.0833333 L6.25,27.0833333 Z M6.25,12.5 L6.25,16.6666667 L43.75,16.6666667 L43.75,12.5 L6.25,12.5 L6.25,12.5 Z" id="Shape" fill="#8B8B8B"></path>
                </g>
                <g id="1496241488_basics-07" transform="translate(26.000000, 1420.000000) scale(1, -1) rotate(-90.000000) translate(-26.000000, -1420.000000) translate(-14.000000, 1400.000000)" fill="#8B8B8B">
                    <polygon id="Shape" points="39.7354839 3.30645161 77.4290323 39.8096774 79.4129032 38.6193548 39.7354839 0.132258065 0.0580645161 38.6193548 2.17419355 39.8096774"></polygon>
                </g>
                <g id="video" transform="translate(0.000000, 1072.000000)">
                    <g id="Path">
                        <g id="path-1-link" transform="translate(1.923077, 1.923077)" fill-opacity="0.600000024" fill="#D0011B">
                            <path d="M23.0769231,46.1538462 C10.3846154,46.1538462 0,35.7692308 0,23.0769231 C0,10.3846154 10.3846154,0 23.0769231,0 C35.7692308,0 46.1538462,10.3846154 46.1538462,23.0769231 C46.1538462,35.7692308 35.7692308,46.1538462 23.0769231,46.1538462 L23.0769231,46.1538462 Z" id="path-1"></path>
                        </g>
                        <path d="M25,49.0384615 C11.7766493,49.0384615 0.961538462,38.2233508 0.961538462,25 C0.961538462,11.7766493 11.7766493,0.961538462 25,0.961538462 C38.2233508,0.961538462 49.0384615,11.7766493 49.0384615,25 C49.0384615,38.2233508 38.2233508,49.0384615 25,49.0384615 Z" id="Shape" stroke="#FFFFFF"></path>
                    </g>
                    <polygon id="Path" fill="#FCFCFC" fill-rule="nonzero" points="36.2820513 25.2564102 20.8974359 13.7179487 20.8974359 36.7948717"></polygon>
                </g>
                <path d="M49.1866667,1770.07284 L43.4066666,1770.07284 L43.4066666,1766.82394 C43.4066666,1765.85497 42.5566667,1765 41.5366667,1765 L1.75666669,1765 C0.793333305,1765 0,1765.85497 0,1766.82394 L0,1801.64986 C0,1804.72776 2.55,1807.29268 5.61,1807.29268 L45.39,1807.29268 C48.45,1807.23568 51,1804.78476 51,1801.64986 L51,1771.83979 C51,1770.87082 50.2066667,1770.07284 49.1866667,1770.07284 L49.1866667,1770.07284 L49.1866667,1770.07284 Z M3.68333322,1801.64986 L3.68333322,1768.70488 L39.78,1768.70488 L39.78,1801.64986 C39.78,1802.27684 39.8933332,1802.96082 40.1199999,1803.5878 L5.61,1803.5878 C4.53333339,1803.5878 3.68333322,1802.73282 3.68333322,1801.64986 Z M47.3166668,1801.64986 C47.3166668,1802.73282 46.4666666,1803.5878 45.3333334,1803.5878 C44.2566668,1803.5878 43.35,1802.73282 43.35,1801.64986 L43.35,1773.72073 L47.3166668,1773.72073 L47.3166668,1801.64986 L47.3166668,1801.64986 Z M22.95,1788.82526 L36.0966668,1788.82526 L36.0966668,1785.57636 L22.95,1785.57636 L22.95,1788.82526 L22.95,1788.82526 Z M22.95,1797.261 L36.0966668,1797.261 L36.0966668,1794.0121 L22.95,1794.0121 L22.95,1797.261 L22.95,1797.261 Z M7.25333322,1773.94872 L7.25333322,1780.44652 L36.0966668,1780.44652 L36.0966668,1773.94872 L7.25333322,1773.94872 L7.25333322,1773.94872 Z M7.25333322,1797.261 L19.4366666,1797.261 L19.4366666,1785.63336 L7.25333322,1785.63336 L7.25333322,1797.261 L7.25333322,1797.261 Z" id="Shape" fill="#8C8C8C" fill-rule="nonzero"></path>
                <path d="M14.7182331,1960.90523 L5.57274435,1960.90523 C3.04728738,1960.90523 1,1959.00774 1,1956.66707 L1,1931.23815 C1,1928.88598 3.05773496,1927 5.57274435,1927 L47.0540682,1927 C49.5795252,1927 51.6268126,1928.89749 51.6268126,1931.23815 L51.6268126,1956.66707 C51.6268126,1959.00774 49.5795252,1960.90523 47.0540682,1960.90523 L28.2078288,1960.90523 L17.0046053,1969.38153 L14.7182331,1960.90523 Z M27.3709867,1958.4122 L47.0540682,1958.4122 C48.2431992,1958.4122 49.1337811,1957.58678 49.1337811,1956.66707 L49.1337811,1931.23815 C49.1337811,1930.31845 48.2431992,1929.49303 47.0540682,1929.49303 L5.57274435,1929.49303 C4.38440003,1929.49303 3.49303136,1930.31633 3.49303136,1931.23815 L3.49303136,1956.66707 C3.49303136,1957.58678 4.38361339,1958.4122 5.57274435,1958.4122 L16.6279037,1958.4122 L18.4487653,1965.16271 L27.3709867,1958.4122 Z M20.9603921,1952.62499 L20.9603921,1934.39006 L32.4771028,1943.50777 L20.9603921,1952.62499 Z" id="Buzz_night_selected" fill="#BF3D31" fill-rule="nonzero"></path>
                <path d="M14.7182331,2153.90523 L5.57274435,2153.90523 C3.04728738,2153.90523 1,2152.00774 1,2149.66707 L1,2124.23815 C1,2121.88598 3.05773496,2120 5.57274435,2120 L47.0540682,2120 C49.5795252,2120 51.6268126,2121.89749 51.6268126,2124.23815 L51.6268126,2149.66707 C51.6268126,2152.00774 49.5795252,2153.90523 47.0540682,2153.90523 L28.2078288,2153.90523 L17.0046053,2162.38153 L14.7182331,2153.90523 Z M27.3709867,2151.4122 L47.0540682,2151.4122 C48.2431992,2151.4122 49.1337811,2150.58678 49.1337811,2149.66707 L49.1337811,2124.23815 C49.1337811,2123.31845 48.2431992,2122.49303 47.0540682,2122.49303 L5.57274435,2122.49303 C4.38440003,2122.49303 3.49303136,2123.31633 3.49303136,2124.23815 L3.49303136,2149.66707 C3.49303136,2150.58678 4.38361339,2151.4122 5.57274435,2151.4122 L16.6279037,2151.4122 L18.4487653,2158.16271 L27.3709867,2151.4122 Z M20.9603921,2145.62499 L20.9603921,2127.39006 L32.4771028,2136.50777 L20.9603921,2145.62499 Z" id="Buzz_night_selected" fill="#8C8C8C" fill-rule="nonzero"></path>
                <path d="M45.8538462,2325.18141 L45.8538462,2313.47187 C45.8538462,2312.65416 45.1999999,2312 44.3826923,2312 C43.5653847,2312 42.9115384,2312.65416 42.9115384,2313.47187 L42.9115384,2325.18141 C39.5006411,2325.86828 36.9179488,2328.88834 36.9179488,2332.50805 C36.9179488,2336.12775 39.5006411,2339.14781 42.9115384,2339.83468 L42.9115384,2362.89397 C42.9115384,2363.71168 43.5653847,2364.36584 44.3826923,2364.36584 C45.1999999,2364.36584 45.8538462,2363.71168 45.8538462,2362.89397 L45.8538462,2339.82378 C49.2647436,2339.13691 51.8474358,2336.11685 51.8474358,2332.49714 C51.8474358,2328.87744 49.275641,2325.86828 45.8538462,2325.18141 L45.8538462,2325.18141 Z M44.3826923,2337.03268 C41.8871794,2337.03268 39.8602563,2335.00477 39.8602563,2332.50805 C39.8602563,2330.01132 41.8871794,2327.98341 44.3826923,2327.98341 C46.8782052,2327.98341 48.9051283,2330.01132 48.9051283,2332.50805 C48.9051283,2335.00477 46.8782052,2337.03268 44.3826923,2337.03268 L44.3826923,2337.03268 Z M9.93589743,2325.18141 L9.93589743,2313.47187 C9.93589743,2312.65416 9.28205127,2312 8.46474358,2312 C7.64743589,2312 6.99358975,2312.65416 6.99358975,2313.47187 L6.99358975,2325.18141 C3.58269231,2325.86828 1,2328.88834 1,2332.50805 C1,2336.12775 3.58269231,2339.14781 6.99358975,2339.83468 L6.99358975,2362.88307 C6.99358975,2363.70077 7.64743589,2364.35494 8.46474358,2364.35494 C9.28205127,2364.35494 9.93589743,2363.70077 9.93589743,2362.88307 L9.93589743,2339.82378 C13.3467949,2339.13691 15.9294872,2336.11685 15.9294872,2332.49714 C15.9294872,2328.87744 13.3467949,2325.86828 9.93589743,2325.18141 L9.93589743,2325.18141 Z M8.46474358,2337.03268 C5.96923078,2337.03268 3.94230769,2335.00477 3.94230769,2332.50805 C3.94230769,2330.01132 5.96923078,2327.98341 8.46474358,2327.98341 C10.9602564,2327.98341 12.9871795,2330.01132 12.9871795,2332.50805 C12.9871795,2335.00477 10.949359,2337.03268 8.46474358,2337.03268 L8.46474358,2337.03268 Z M27.9493591,2337.5233 L27.9493591,2313.47187 C27.9493591,2312.65416 27.2955128,2312 26.4782052,2312 C25.6608974,2312 25.0070513,2312.65416 25.0070513,2313.47187 L25.0070513,2337.5233 C21.5961538,2338.21018 19.0134615,2341.23023 19.0134615,2344.84994 C19.0134615,2348.46965 21.5961538,2351.48971 25.0070513,2352.17658 L25.0070513,2362.88307 C25.0070513,2363.70077 25.6608974,2364.35494 26.4782052,2364.35494 C27.2955128,2364.35494 27.9493591,2363.70077 27.9493591,2362.88307 L27.9493591,2352.17658 C31.3602564,2351.48971 33.9429487,2348.46965 33.9429487,2344.84994 C33.9429487,2341.24114 31.3711539,2338.21018 27.9493591,2337.5233 L27.9493591,2337.5233 Z M26.4782052,2349.37458 C23.9826923,2349.37458 21.9557692,2347.34667 21.9557692,2344.84994 C21.9557692,2342.35322 23.9826923,2340.32531 26.4782052,2340.32531 C28.9737181,2340.32531 31.0006411,2342.35322 31.0006411,2344.84994 C31.0006411,2347.34667 28.9737181,2349.37458 26.4782052,2349.37458 L26.4782052,2349.37458 Z" id="Shape" fill="#BF3D31" fill-rule="nonzero"></path>
                <path d="M44.9464744,2530.18141 L44.9464744,2518.47187 C44.9464744,2517.65416 44.2926282,2517 43.4753205,2517 C42.6580129,2517 42.0041666,2517.65416 42.0041666,2518.47187 L42.0041666,2530.18141 C38.5932693,2530.86828 36.010577,2533.88834 36.010577,2537.50805 C36.010577,2541.12775 38.5932693,2544.14781 42.0041666,2544.83468 L42.0041666,2567.89397 C42.0041666,2568.71168 42.6580129,2569.36584 43.4753205,2569.36584 C44.2926282,2569.36584 44.9464744,2568.71168 44.9464744,2567.89397 L44.9464744,2544.82378 C48.3573718,2544.13691 50.940064,2541.11685 50.940064,2537.49714 C50.940064,2533.87744 48.3682692,2530.86828 44.9464744,2530.18141 L44.9464744,2530.18141 Z M43.4753205,2542.03268 C40.9798076,2542.03268 38.9528846,2540.00477 38.9528846,2537.50805 C38.9528846,2535.01132 40.9798076,2532.98341 43.4753205,2532.98341 C45.9708334,2532.98341 47.9977565,2535.01132 47.9977565,2537.50805 C47.9977565,2540.00477 45.9708334,2542.03268 43.4753205,2542.03268 L43.4753205,2542.03268 Z M27.0419873,2542.5233 L27.0419873,2518.47187 C27.0419873,2517.65416 26.388141,2517 25.5708334,2517 C24.7535256,2517 24.0996795,2517.65416 24.0996795,2518.47187 L24.0996795,2542.5233 C20.688782,2543.21018 18.1060897,2546.23023 18.1060897,2549.84994 C18.1060897,2553.46965 20.688782,2556.48971 24.0996795,2557.17658 L24.0996795,2567.88307 C24.0996795,2568.70077 24.7535256,2569.35494 25.5708334,2569.35494 C26.388141,2569.35494 27.0419873,2568.70077 27.0419873,2567.88307 L27.0419873,2557.17658 C30.4528846,2556.48971 33.0355769,2553.46965 33.0355769,2549.84994 C33.0355769,2546.24114 30.4637821,2543.21018 27.0419873,2542.5233 L27.0419873,2542.5233 Z M25.5708334,2554.37458 C23.0753205,2554.37458 21.0483974,2552.34667 21.0483974,2549.84994 C21.0483974,2547.35322 23.0753205,2545.32531 25.5708334,2545.32531 C28.0663463,2545.32531 30.0932694,2547.35322 30.0932694,2549.84994 C30.0932694,2552.34667 28.0663463,2554.37458 25.5708334,2554.37458 L25.5708334,2554.37458 Z M9.02852564,2530.18141 L9.02852564,2518.47187 C9.02852564,2517.65416 8.37467948,2517 7.55737179,2517 C6.74006409,2517 6.08621796,2517.65416 6.08621796,2518.47187 L6.08621796,2530.18141 C2.67532052,2530.86828 0.0926282051,2533.88834 0.0926282051,2537.50805 C0.0926282051,2541.12775 2.67532052,2544.14781 6.08621796,2544.83468 L6.08621796,2567.88307 C6.08621796,2568.70077 6.74006409,2569.35494 7.55737179,2569.35494 C8.37467948,2569.35494 9.02852564,2568.70077 9.02852564,2567.88307 L9.02852564,2544.82378 C12.4394231,2544.13691 15.0221154,2541.11685 15.0221154,2537.49714 C15.0221154,2533.87744 12.4394231,2530.86828 9.02852564,2530.18141 L9.02852564,2530.18141 Z M7.55737179,2542.03268 C5.06185899,2542.03268 3.0349359,2540.00477 3.0349359,2537.50805 C3.0349359,2535.01132 5.06185899,2532.98341 7.55737179,2532.98341 C10.0528846,2532.98341 12.0798077,2535.01132 12.0798077,2537.50805 C12.0798077,2540.00477 10.0419872,2542.03268 7.55737179,2542.03268 L7.55737179,2542.03268 Z" id="Shape" fill="#8C8C8C" fill-rule="nonzero"></path>
                <g id="Gallery" transform="translate(1.000000, 2720.000000)">
                    <g id="Path">
                        <g id="path-1-link" transform="translate(1.961538, 1.961538)" fill-opacity="0.600000024" fill="#D0011B">
                            <path d="M23.5384615,47.0769231 C10.5923077,47.0769231 0,36.4846154 0,23.5384615 C0,10.5923077 10.5923077,0 23.5384615,0 C36.4846154,0 47.0769231,10.5923077 47.0769231,23.5384615 C47.0769231,36.4846154 36.4846154,47.0769231 23.5384615,47.0769231 L23.5384615,47.0769231 Z" id="path-1"></path>
                        </g>
                        <path d="M25.5,50.0192308 C12.0121823,50.0192308 0.980769231,38.9878178 0.980769231,25.5 C0.980769231,12.0121823 12.0121823,0.980769231 25.5,0.980769231 C38.9878178,0.980769231 50.0192308,12.0121823 50.0192308,25.5 C50.0192308,38.9878178 38.9878178,50.0192308 25.5,50.0192308 Z" id="Shape" stroke="#FFFFFF"></path>
                    </g>
                    <path d="M35.1623062,34.2169273 L33.3561751,23.9738481 L36.9304882,23.9738481 L36.9304882,14.6619582 L18.3067083,14.6619582 L18.3067083,17.9862082 L17.3755193,18.1504019 L17.3755193,14.7115385 C17.3755193,14.1698746 17.8146247,13.7307692 18.3562885,13.7307692 L18.3562885,13.7307692 L36.8809079,13.7307692 L36.8809079,13.7307692 C37.4225719,13.7307692 37.8616772,14.1698746 37.8616772,14.7115385 L37.8616772,33.236158 C37.8616772,33.7778218 37.4225719,34.2169273 36.8809079,34.2169273 L35.1623062,34.2169273 Z M12.7070845,20.5052754 L29.7199389,17.5054502 C30.2533736,17.4113912 30.7620578,17.7675757 30.8561167,18.3010105 L33.8148246,35.0806768 C33.9088835,35.6141117 33.5526991,36.1227959 33.0192642,36.2168548 L16.00641,39.2166801 C15.4729752,39.310739 14.964291,38.9545544 14.8702321,38.4211197 L11.9115241,21.6414534 L11.9115241,21.6414534 C11.8174652,21.1080185 12.1736497,20.5993343 12.7070845,20.5052754 L12.7070845,20.5052754 Z M12.8209523,21.3909798 L14.3070075,29.8188177 L31.5293644,26.7820515 L30.0433093,18.3542136 L12.8209523,21.3909798 Z" id="Combined-Shape" fill="#FFFFFF" fill-rule="nonzero"></path>
                </g>
            </g>
        </g>
    </g>
</svg>