<?xml version="1.0" encoding="UTF-8"?>
<svg width="93px" height="13px" viewBox="0 0 93 13" version="1.1" xmlns="http://www.w3.org/2000/svg" xmlns:xlink="http://www.w3.org/1999/xlink">
    <!-- Generator: Sketch 43 (38999) - http://www.bohemiancoding.com/sketch -->
    <title>Group</title>
    <desc>Created with Sketch.</desc>
    <defs>
        <path d="M9.252746,3.897616 C9.183436,3.892072 9.122443,3.850495 9.097491,3.78397 L7.833269,0.70721 C7.658607,0.28312 7.264924,0.01979 6.804702,0.01979 C6.344481,0.01979 5.953571,0.28312 5.776136,0.70998 L4.509142,3.789514 C4.481417,3.853267 4.423197,3.897616 4.353886,3.90316 L1.040848,4.141539 C0.5917169,4.166486 0.2091234,4.460303 0.0621853,4.892712 C-0.08752519,5.330665 0.03723355,5.790793 0.3921029,6.092925 L2.956588,8.210623 C3.009264,8.254972 3.034216,8.327041 3.017581,8.393565 L2.23576,11.592286 C2.14427,11.924908 2.208036,12.2686183 2.410422,12.5374883 C2.618353,12.8091301 2.942726,12.9726695 3.283733,12.9726695 C3.494437,12.9726695 3.699596,12.9089168 3.868713,12.7952708 L6.671626,11.051774 C6.729847,11.01574 6.804702,11.01574 6.862923,11.051774 L9.693561,12.7897271 C9.870995,12.9089168 10.07615,12.9726695 10.28409,12.9726695 C10.60291,12.9726695 10.91897,12.8202175 11.12413,12.562435 C11.3376,12.2963369 11.41523,11.949855 11.3376,11.603373 L10.55301,8.396337 C10.53638,8.327041 10.56133,8.254972 10.614,8.210623 L13.2173,6.087382 C13.56663,5.788021 13.69139,5.327893 13.54445,4.88994 C13.40028,4.457531 13.01492,4.160942 12.57133,4.135996 L9.252746,3.897616 Z" id="path-1"></path>
        <path d="M9.252746,3.897616 C9.183436,3.892072 9.122443,3.850495 9.097491,3.78397 L7.833269,0.70721 C7.658607,0.28312 7.264924,0.01979 6.804702,0.01979 C6.344481,0.01979 5.953571,0.28312 5.776136,0.70998 L4.509142,3.789514 C4.481417,3.853267 4.423197,3.897616 4.353886,3.90316 L1.040848,4.141539 C0.5917169,4.166486 0.2091234,4.460303 0.0621853,4.892712 C-0.08752519,5.330665 0.03723355,5.790793 0.3921029,6.092925 L2.956588,8.210623 C3.009264,8.254972 3.034216,8.327041 3.017581,8.393565 L2.23576,11.592286 C2.14427,11.924908 2.208036,12.2686183 2.410422,12.5374883 C2.618353,12.8091301 2.942726,12.9726695 3.283733,12.9726695 C3.494437,12.9726695 3.699596,12.9089168 3.868713,12.7952708 L6.671626,11.051774 C6.729847,11.01574 6.804702,11.01574 6.862923,11.051774 L9.693561,12.7897271 C9.870995,12.9089168 10.07615,12.9726695 10.28409,12.9726695 C10.60291,12.9726695 10.91897,12.8202175 11.12413,12.562435 C11.3376,12.2963369 11.41523,11.949855 11.3376,11.603373 L10.55301,8.396337 C10.53638,8.327041 10.56133,8.254972 10.614,8.210623 L13.2173,6.087382 C13.56663,5.788021 13.69139,5.327893 13.54445,4.88994 C13.40028,4.457531 13.01492,4.160942 12.57133,4.135996 L9.252746,3.897616 Z" id="path-3"></path>
        <path d="M9.252746,3.897616 C9.183436,3.892072 9.122443,3.850495 9.097491,3.78397 L7.833269,0.70721 C7.658607,0.28312 7.264924,0.01979 6.804702,0.01979 C6.344481,0.01979 5.953571,0.28312 5.776136,0.70998 L4.509142,3.789514 C4.481417,3.853267 4.423197,3.897616 4.353886,3.90316 L1.040848,4.141539 C0.5917169,4.166486 0.2091234,4.460303 0.0621853,4.892712 C-0.08752519,5.330665 0.03723355,5.790793 0.3921029,6.092925 L2.956588,8.210623 C3.009264,8.254972 3.034216,8.327041 3.017581,8.393565 L2.23576,11.592286 C2.14427,11.924908 2.208036,12.2686183 2.410422,12.5374883 C2.618353,12.8091301 2.942726,12.9726695 3.283733,12.9726695 C3.494437,12.9726695 3.699596,12.9089168 3.868713,12.7952708 L6.671626,11.051774 C6.729847,11.01574 6.804702,11.01574 6.862923,11.051774 L9.693561,12.7897271 C9.870995,12.9089168 10.07615,12.9726695 10.28409,12.9726695 C10.60291,12.9726695 10.91897,12.8202175 11.12413,12.562435 C11.3376,12.2963369 11.41523,11.949855 11.3376,11.603373 L10.55301,8.396337 C10.53638,8.327041 10.56133,8.254972 10.614,8.210623 L13.2173,6.087382 C13.56663,5.788021 13.69139,5.327893 13.54445,4.88994 C13.40028,4.457531 13.01492,4.160942 12.57133,4.135996 L9.252746,3.897616 Z" id="path-5"></path>
        <path d="M9.252746,3.897616 C9.183436,3.892072 9.122443,3.850495 9.097491,3.78397 L7.833269,0.70721 C7.658607,0.28312 7.264924,0.01979 6.804702,0.01979 C6.344481,0.01979 5.953571,0.28312 5.776136,0.70998 L4.509142,3.789514 C4.481417,3.853267 4.423197,3.897616 4.353886,3.90316 L1.040848,4.141539 C0.5917169,4.166486 0.2091234,4.460303 0.0621853,4.892712 C-0.08752519,5.330665 0.03723355,5.790793 0.3921029,6.092925 L2.956588,8.210623 C3.009264,8.254972 3.034216,8.327041 3.017581,8.393565 L2.23576,11.592286 C2.14427,11.924908 2.208036,12.2686183 2.410422,12.5374883 C2.618353,12.8091301 2.942726,12.9726695 3.283733,12.9726695 C3.494437,12.9726695 3.699596,12.9089168 3.868713,12.7952708 L6.671626,11.051774 C6.729847,11.01574 6.804702,11.01574 6.862923,11.051774 L9.693561,12.7897271 C9.870995,12.9089168 10.07615,12.9726695 10.28409,12.9726695 C10.60291,12.9726695 10.91897,12.8202175 11.12413,12.562435 C11.3376,12.2963369 11.41523,11.949855 11.3376,11.603373 L10.55301,8.396337 C10.53638,8.327041 10.56133,8.254972 10.614,8.210623 L13.2173,6.087382 C13.56663,5.788021 13.69139,5.327893 13.54445,4.88994 C13.40028,4.457531 13.01492,4.160942 12.57133,4.135996 L9.252746,3.897616 Z" id="path-7"></path>
        <path d="M12.57594,4.13012 L9.256137,3.892079 C9.186802,3.886543 9.125786,3.845025 9.100825,3.778595 L7.83614,0.70621 C7.661414,0.28272 7.267586,0.01976 6.807196,0.01976 C6.346807,0.01976 5.955753,0.28272 5.778253,0.70897 L4.510794,3.784131 C4.48306,3.847793 4.424818,3.892079 4.355482,3.897615 L1.04123,4.135656 C0.5919337,4.160567 0.2092,4.453967 0.0622081,4.885762 C-0.08755727,5.323093 0.0372472,5.782567 0.3922466,6.08427 L2.957672,8.198959 C3.010367,8.243245 3.035328,8.315211 3.018687,8.381641 L2.236579,11.575818 C2.145056,11.907968 2.208845,12.2511897 2.411306,12.5196777 C2.619313,12.7909336 2.943805,12.9542407 3.284937,12.9542407 C3.495718,12.9542407 3.700952,12.8905786 3.870131,12.777094 L6.674072,11.036074 C6.732314,11.000091 6.807196,11.000091 6.865438,11.036074 L9.697113,12.7715581 C9.874613,12.8905786 10.07985,12.9542407 10.28785,12.9542407 C10.6068,12.9542407 10.92297,12.8020052 11.1282,12.5445889 C11.34176,12.2788688 11.41942,11.932879 11.34176,11.586889 L10.55688,8.384409 C10.54024,8.315211 10.5652,8.243245 10.61789,8.198959 L13.22215,6.078734 C13.5716,5.779799 13.6964,5.320325 13.54941,4.882994 C13.40519,4.451199 13.01969,4.155031 12.57594,4.13012 Z" id="path-9"></path>
        <path d="M6.807187,0 C6.807187,0 6.002199,0 5.778244,0.68921 L4.510785,3.764368 C4.483051,3.82803 4.424809,3.872316 4.355473,3.877852 L1.041221,4.115893 C0.5919246,4.140804 0.2091909,4.434204 0.06219896,4.865999 C-0.08756641,5.30333 0.03723806,5.762804 0.3922374,6.064507 L2.957663,8.179196 C3.010358,8.223482 3.035319,8.295448 3.018678,8.361878 L2.23657,11.556055 C2.145047,11.888205 2.208836,12.2314267 2.411296,12.4999147 C2.619304,12.7711706 2.943796,12.9344778 3.284928,12.9344778 C3.495709,12.9344778 3.700943,12.8708157 3.870122,12.757331 L6.674062,11.016311 C6.732305,10.980328 6.865429,11.016311 6.865429,11.016311 L6.807187,0 Z" id="path-11"></path>
    </defs>
    <g id="Page-1" stroke="none" stroke-width="1" fill="none" fill-rule="evenodd">
        <g id="Group">
            <g id="Page-1">
                <mask id="mask-2" fill="white">
                    <use xlink:href="#path-1"></use>
                </mask>
                <g id="Clip-2"></g>
                <polygon id="Fill-1" fill="#F5A623" mask="url(#mask-2)" points="-4.999991 17.97267 18.605009 17.97267 18.605009 -4.98021 -4.999991 -4.98021"></polygon>
            </g>
            <g id="Page-1-Copy" transform="translate(19.000000, 0.000000)">
                <mask id="mask-4" fill="white">
                    <use xlink:href="#path-3"></use>
                </mask>
                <g id="Clip-2"></g>
                <polygon id="Fill-1" fill="#F5A623" mask="url(#mask-4)" points="-4.999991 17.97267 18.605009 17.97267 18.605009 -4.98021 -4.999991 -4.98021"></polygon>
            </g>
            <g id="Page-1-Copy-2" transform="translate(39.000000, 0.000000)">
                <mask id="mask-6" fill="white">
                    <use xlink:href="#path-5"></use>
                </mask>
                <g id="Clip-2"></g>
                <polygon id="Fill-1" fill="#F5A623" mask="url(#mask-6)" points="-4.999991 17.97267 18.605009 17.97267 18.605009 -4.98021 -4.999991 -4.98021"></polygon>
            </g>
            <g id="Page-1-Copy-3" transform="translate(59.000000, 0.000000)">
                <mask id="mask-8" fill="white">
                    <use xlink:href="#path-7"></use>
                </mask>
                <g id="Clip-2"></g>
                <polygon id="Fill-1" fill="#F5A623" mask="url(#mask-8)" points="-4.999991 17.97267 18.605009 17.97267 18.605009 -4.98021 -4.999991 -4.98021"></polygon>
            </g>
            <g id="Page-1" transform="translate(79.000000, 0.000000)">
                <g id="Group-3">
                    <mask id="mask-10" fill="white">
                        <use xlink:href="#path-9"></use>
                    </mask>
                    <g id="Clip-2"></g>
                    <polygon id="Fill-1" fill="#D8D8D5" mask="url(#mask-10)" points="-4.999991 17.954241 18.609999 17.954241 18.609999 -4.980239 -4.999991 -4.980239"></polygon>
                </g>
                <g id="Group-6">
                    <mask id="mask-12" fill="white">
                        <use xlink:href="#path-11"></use>
                    </mask>
                    <g id="Clip-5"></g>
                    <polygon id="Fill-4" fill="#F5A623" mask="url(#mask-12)" points="-5 17.934478 11.86543 17.934478 11.86543 -5.000002 -5 -5.000002"></polygon>
                </g>
            </g>
        </g>
    </g>
</svg>