<?xml version="1.0" encoding="UTF-8"?>
<svg width="16px" height="16px" viewBox="0 0 16 16" version="1.1" xmlns="http://www.w3.org/2000/svg" xmlns:xlink="http://www.w3.org/1999/xlink">
    <!-- Generator: Sketch 44.1 (41455) - http://www.bohemiancoding.com/sketch -->
    <title>Group</title>
    <desc>Created with Sketch.</desc>
    <defs></defs>
    <g id="V1" stroke="none" stroke-width="1" fill="none" fill-rule="evenodd">
        <g id="Language-selection-v2" transform="translate(-292.000000, -127.000000)">
            <g id="Language---Call-Out" transform="translate(4.000000, 79.000000)">
                <g id="Group" transform="translate(288.000000, 48.000000)">
                    <path d="M0,8 C0,12.4112 3.58852,16 7.99984,16 C12.41116,16 16,12.4112 16,8 C16,3.5888 12.41116,0 7.99984,0 C3.58852,0 0,3.5888 0,8 Z" id="Shape" fill="#28B257"></path>
                    <path d="M10.7775925,5.48075167 L6.82159313,9.43655925 L5.22244585,7.8377572 C5.02593282,7.64147433 4.7075917,7.64135925 4.51107867,7.83787228 C4.31448893,8.03446202 4.31448893,8.35284151 4.51107867,8.54935453 L6.46596708,10.5039361 C6.56420441,10.6020583 6.69289877,10.6511578 6.82159313,10.6511578 C6.95028749,10.6511578 7.07932708,10.6020583 7.17752605,10.5037826 C7.17783292,10.5033607 7.17806308,10.5029387 7.17856174,10.5024401 L11.4889213,6.19211885 C11.6855111,5.9957209 11.6855111,5.67711126 11.4889213,5.48071331 C11.2924467,5.28420028 10.9738754,5.28420028 10.7775925,5.48075167 L10.7775925,5.48075167 Z" id="Shape" fill="#FFFFFF"></path>
                </g>
            </g>
        </g>
    </g>
</svg>