<?xml version="1.0" encoding="UTF-8" standalone="no"?>
<svg width="24px" height="20px" viewBox="0 0 24 20" version="1.1" xmlns="http://www.w3.org/2000/svg" xmlns:xlink="http://www.w3.org/1999/xlink">
    <!-- Generator: Sketch 44 (41411) - http://www.bohemiancoding.com/sketch -->
    <title>Twitter</title>
    <desc>Created with Sketch.</desc>
    <defs></defs>
    <g id="Page-1" stroke="none" stroke-width="1" fill="none" fill-rule="evenodd">
        <g id="News-Details" transform="translate(-244.000000, -397.000000)" fill="#00AAEC">
            <g id="Share-icons---color" transform="translate(204.000000, 397.000000)">
                <path d="M61.1727417,3.1621524 C62.1898222,2.5381004 62.9702412,1.54857349 63.3379116,0.369808595 C62.3856313,0.947634525 61.3333333,1.36800289 60.2091918,1.593355 C59.3132594,0.612495486 58.0327522,0 56.6156013,0 C53.8982215,0 51.693608,2.26074395 51.693608,5.04875406 C51.693608,5.44456482 51.735869,5.82881907 51.8203909,6.19862766 C47.7281211,5.9877212 44.100722,3.97977609 41.6707167,0.921632358 C41.2466984,1.66991694 41.0044022,2.5381004 41.0044022,3.46262189 C41.0044022,5.21343445 41.8735693,6.75911882 43.1949287,7.66486096 C42.389153,7.64030336 41.6284557,7.41061755 40.9635499,7.0350307 L40.9635499,7.09714698 C40.9635499,9.5442398 42.6610319,11.5854099 44.9149498,12.0476706 C44.5022011,12.166125 44.0669132,12.2253521 43.6175383,12.2253521 C43.3005811,12.2253521 42.9906674,12.1950163 42.6906145,12.1357891 C43.3174855,14.1408451 45.1347068,15.6013001 47.2900158,15.6403034 C45.6052122,16.9953052 43.4808945,17.8028169 41.1748547,17.8028169 C40.7776017,17.8028169 40.3845747,17.7797039 40,17.7334778 C42.1792569,19.163597 44.7684451,20 47.5478077,20 C56.6057404,20 61.5573164,12.3076923 61.5573164,5.63524738 C61.5573164,5.41567353 61.5530903,5.19609967 61.5446381,4.98085952 C62.5067794,4.26868906 63.3421377,3.38028169 64,2.36764175 C63.1181546,2.76923077 62.1686917,3.04080896 61.1727417,3.1621524 Z" id="Twitter"></path>
            </g>
        </g>
    </g>
</svg>