<?xml version="1.0" encoding="UTF-8" standalone="no"?>
<svg width="20px" height="20px" viewBox="0 0 20 20" version="1.1" xmlns="http://www.w3.org/2000/svg" xmlns:xlink="http://www.w3.org/1999/xlink">
    <!-- Generator: Sketch 44 (41411) - http://www.bohemiancoding.com/sketch -->
    <title>Whatsapp</title>
    <desc>Created with Sketch.</desc>
    <defs></defs>
    <g id="Page-1" stroke="none" stroke-width="1" fill="none" fill-rule="evenodd">
        <g id="News-Details" transform="translate(-288.000000, -397.000000)" fill="#67C15E">
            <g id="Share-icons---color" transform="translate(204.000000, 397.000000)">
                <path d="M93.9970973,1.77635684e-15 L93.9970973,0.000165915897 L94.0029027,0.000165915897 C99.5157285,0.000165915897 104,4.4857022 104,10.000083 C104,15.5142978 99.5157285,20 94.0029027,20 C91.9693474,20 90.0827521,19.3945729 88.5018536,18.3481413 L84.6581686,19.5765826 L85.9041774,15.8612279 C84.7052755,14.2150104 84,12.1868545 84,9.99991704 C84,4.48553628 88.4842715,1.77635684e-15 93.9970973,1.77635684e-15 Z M91.2053543,5.07951519 C91.0114533,4.6151166 90.8644932,4.59752951 90.570739,4.58558357 C90.47072,4.57977651 90.3592559,4.57396945 90.2356834,4.57396945 C89.853521,4.57396945 89.4539423,4.68563085 89.2129345,4.93251371 C88.9191803,5.23232374 88.1903514,5.93182516 88.1903514,7.36633401 C88.1903514,8.80084285 89.2364879,10.1882316 89.3774766,10.3823532 C89.5244367,10.576143 91.4170032,13.5626291 94.3555404,14.7797881 C96.6534911,15.7321454 97.3353791,15.6438781 97.8583644,15.5322167 C98.6223575,15.3676281 99.5804175,14.8030164 99.8214253,14.1212679 C100.062433,13.4391877 100.062433,12.8571547 99.9917729,12.7337133 C99.9212785,12.6102719 99.7272117,12.5399235 99.4334575,12.3927561 C99.1397033,12.2457546 97.7114043,11.5402802 97.4410377,11.4462059 C97.1764764,11.3463245 96.9238578,11.3816646 96.7241514,11.6638876 C96.442008,12.0577719 96.1658359,12.4576292 95.9424102,12.6985391 C95.7660914,12.8866877 95.4779767,12.9102478 95.2371348,12.8102005 C94.9138559,12.675145 94.008874,12.357416 92.8920773,11.3639116 C92.0280651,10.593896 91.4403908,9.63573165 91.2700432,9.34770165 C91.0995298,9.0538646 91.2524611,8.88313714 91.3874785,8.72452154 C91.5344386,8.54217997 91.6754273,8.41293149 91.8223874,8.24236994 C91.9693474,8.07197432 92.0516185,7.98370706 92.1456663,7.7837784 C92.2456853,7.58982272 92.1750251,7.38989406 92.1045307,7.24289258 C92.0340363,7.09589109 91.4463621,5.66138225 91.2053543,5.07951519 Z" id="Whatsapp"></path>
            </g>
        </g>
    </g>
</svg>