<?xml version="1.0" encoding="UTF-8"?>
<svg width="20px" height="20px" viewBox="0 0 20 20" version="1.1" xmlns="http://www.w3.org/2000/svg" xmlns:xlink="http://www.w3.org/1999/xlink">
    <!-- Generator: Sketch 52.6 (67491) - http://www.bohemiancoding.com/sketch -->
    <title>whatspp</title>
    <desc>Created with Sketch.</desc>
    <g id="Page-1" stroke="none" stroke-width="1" fill="none" fill-rule="evenodd">
        <g id="Topic" transform="translate(-270.000000, -42.000000)" fill="#FFFFFF" fill-rule="nonzero">
            <g id="Group-23">
                <g id="Group" transform="translate(264.000000, 36.000000)">
                    <path d="M26,15.7427202 C26,21.1230965 21.6043956,25.4847882 16.1809763,25.4847882 C14.459908,25.4847882 12.8431865,25.0445756 11.4358105,24.2737144 L6,26 L7.77193726,20.7715786 C6.87846871,19.3042032 6.36390909,17.5811785 6.36390909,15.742068 C6.36456125,10.3616917 10.7588613,6 16.1822806,6 C21.6050478,6.00130433 26,10.3623439 26,15.7427202 Z M16.1803241,7.55346138 C11.6288519,7.55346138 7.9265008,11.2277693 7.9265008,15.7446767 C7.9265008,17.5368311 8.51084227,19.1959435 9.49887501,20.5459288 L8.46845143,23.5869828 L11.6392865,22.579385 C12.9436202,23.4350279 14.5042554,23.9332833 16.1803241,23.9332833 C20.7317964,23.9332833 24.4354518,20.2596276 24.4354518,15.7427202 C24.4367561,11.2277693 20.7324486,7.55346138 16.1803241,7.55346138 Z M21.1394007,17.9868262 C21.078097,17.888349 20.9176639,17.8283497 20.6776665,17.708351 C20.4383213,17.5883523 19.2533342,17.0111847 19.033554,16.9329246 C18.8118173,16.8527081 18.6513842,16.8122738 18.4909512,17.051619 C18.3324746,17.2909642 17.8707405,17.8283497 17.7292203,17.9887827 C17.5890045,18.1485636 17.4487886,18.1687808 17.208139,18.0507386 C16.9674895,17.9294355 16.191411,17.6790035 15.2718557,16.8657515 C14.5564287,16.2318453 14.0731731,15.4512016 13.9336094,15.2118564 C13.7920892,14.9731633 13.9192617,14.8440343 14.0386083,14.7253399 C14.1462158,14.6177324 14.2792578,14.4462125 14.3999087,14.3059967 C14.5205596,14.1670851 14.5603417,14.0686079 14.6405583,13.9088271 C14.7194704,13.7490462 14.6796883,13.6101347 14.6203411,13.4894838 C14.5603417,13.3694851 14.0796948,12.1955848 13.8781752,11.7175465 C13.67796,11.2401604 13.4777448,11.3190726 13.3368768,11.3190726 C13.1966609,11.3190726 13.0362279,11.2995076 12.8757948,11.2995076 C12.7153618,11.2995076 12.4544951,11.3575505 12.2347148,11.5968957 C12.0149346,11.8362409 11.3927675,12.4134085 11.3927675,13.5886132 C11.3927675,14.7651221 12.2542798,15.8992402 12.3749307,16.0583689 C12.4962337,16.2168455 14.0405648,18.7074706 16.4868425,19.6635471 C18.9344246,20.6189715 18.9344246,20.300062 19.3752894,20.2596276 C19.8174585,20.2191933 20.7996217,19.68246 20.9991848,19.1255095 C21.2000522,18.5659504 21.2000522,18.0866078 21.1394007,17.9868262 Z" id="whatspp"></path>
                </g>
            </g>
        </g>
    </g>
</svg>