<?xml version="1.0" encoding="UTF-8"?>
<svg width="16px" height="16px" viewBox="0 0 16 16" version="1.1" xmlns="http://www.w3.org/2000/svg" xmlns:xlink="http://www.w3.org/1999/xlink">
    <!-- Generator: Sketch 52.6 (67491) - http://www.bohemiancoding.com/sketch -->
    <title>Whatsapp</title>
    <desc>Created with Sketch.</desc>
    <g id="Elections" stroke="none" stroke-width="1" fill="none" fill-rule="evenodd">
        <g id="News-carousels" transform="translate(-210.000000, -414.000000)" fill="#3EA11A" fill-rule="nonzero">
            <g id="Group-30" transform="translate(16.000000, 123.000000)">
                <g id="Group-26" transform="translate(190.000000, 287.000000)">
                    <g id="Group-22">
                        <path d="M20,11.7941762 C20,16.0984772 16.4835165,19.5878306 12.144781,19.5878306 C10.7679264,19.5878306 9.47454919,19.2356605 8.34864838,18.6189715 L4,20 L5.41754981,15.8172629 C4.70277497,14.6433626 4.29112727,13.2649428 4.29112727,11.7936544 C4.291649,7.48935338 7.80708905,4 12.1458245,4 C16.4840382,4.00104347 20,7.48987511 20,11.7941762 Z M12.1442593,5.2427691 C8.50308149,5.2427691 5.54120064,8.18221541 5.54120064,11.7957414 C5.54120064,13.2294649 6.00867382,14.5567548 6.79910001,15.6367431 L5.97476114,18.0695862 L8.51142922,17.263508 C9.55489614,17.9480223 10.8034043,18.3466267 12.1442593,18.3466267 C15.7854371,18.3466267 18.7483614,15.4077021 18.7483614,11.7941762 C18.7494049,8.18221541 15.7859588,5.2427691 12.1442593,5.2427691 Z M16.1115205,13.589461 C16.0624776,13.5106792 15.9341312,13.4626798 15.7421332,13.3666808 C15.5506571,13.2706818 14.6026674,12.8089477 14.4268432,12.7463397 C14.2494538,12.6821665 14.1211074,12.649819 13.9927609,12.8412952 C13.8659797,13.0327714 13.4965924,13.4626798 13.3833763,13.5910262 C13.2712036,13.7188509 13.1590309,13.7350246 12.9665112,13.6405909 C12.7739916,13.5435484 12.1531288,13.3432028 11.4174846,12.6926012 C10.845143,12.1854762 10.4585385,11.5609613 10.3468875,11.3694851 C10.2336714,11.1785307 10.3354094,11.0752274 10.4308866,10.980272 C10.5169726,10.8941859 10.6234063,10.75697 10.719927,10.6447973 C10.8164476,10.5336681 10.8482734,10.4548864 10.9124466,10.3270617 C10.9755764,10.199237 10.9437506,10.0881077 10.8962729,9.99158705 C10.8482734,9.89558809 10.4637558,8.95646786 10.3025402,8.57403724 C10.142368,8.19212835 9.98219585,8.2552581 9.86950142,8.2552581 C9.75732872,8.2552581 9.62898229,8.23960609 9.50063586,8.23960609 C9.37228943,8.23960609 9.16359605,8.28604037 8.98777187,8.47751655 C8.8119477,8.66899273 8.31421398,9.13072684 8.31421398,10.0708905 C8.31421398,11.0120977 9.00342388,11.9193922 9.09994457,12.0466951 C9.19698699,12.1734764 10.4324518,14.1659765 12.389474,14.9308377 C14.3475397,15.6951772 14.3475397,15.4400496 14.7002315,15.4077021 C15.0539668,15.3753546 15.8396974,14.945968 15.9993478,14.5004076 C16.1600417,14.0527603 16.1600417,13.6692862 16.1115205,13.589461 Z" id="Whatsapp"></path>
                    </g>
                </g>
            </g>
        </g>
    </g>
</svg>