<?xml version="1.0" encoding="UTF-8" standalone="no"?>
<svg width="120px" height="36px" viewBox="0 0 120 36" version="1.1" xmlns="http://www.w3.org/2000/svg" xmlns:xlink="http://www.w3.org/1999/xlink">
    <!-- Generator: Sketch 40 (33762) - http://www.bohemiancoding.com/sketch -->
    <title>Group 5</title>
    <desc>Created with Sketch.</desc>
    <defs></defs>
    <g id="Page-1" stroke="none" stroke-width="1" fill="none" fill-rule="evenodd">
        <g id="Group-5">
            <rect id="Rectangle-4-Copy-2" fill="#04A3F0" x="0" y="0" width="120" height="36" rx="4"></rect>
            <path d="M32.1513672,12.2182617 L30.2783203,12.2182617 L29.8339844,13.5 L29.1469727,13.5 L30.9414062,8.5234375 L31.519043,8.5234375 L33.2758789,13.5 L32.5888672,13.5 L32.1513672,12.2182617 Z M30.4731445,11.6542969 L31.9599609,11.6542969 L31.2353516,9.51806641 L31.2148438,9.51806641 L30.4731445,11.6542969 Z M35.5180664,12.1943359 L35.6308594,12.6079102 L35.6513672,12.6079102 L35.7641602,12.1943359 L37.0493164,8.5234375 L37.7773438,8.5234375 L35.9282227,13.5 L35.3505859,13.5 L33.5014648,8.5234375 L34.2329102,8.5234375 L35.5180664,12.1943359 Z M41.0039062,12.2182617 L39.1308594,12.2182617 L38.6865234,13.5 L37.9995117,13.5 L39.7939453,8.5234375 L40.371582,8.5234375 L42.128418,13.5 L41.4414062,13.5 L41.0039062,12.2182617 Z M39.3256836,11.6542969 L40.8125,11.6542969 L40.0878906,9.51806641 L40.0673828,9.51806641 L39.3256836,11.6542969 Z M43.6049805,13.5 L42.9282227,13.5 L42.9282227,8.5234375 L43.6049805,8.5234375 L43.6049805,13.5 Z M45.512207,12.9736328 L47.9389648,12.9736328 L47.9389648,13.5 L44.8388672,13.5 L44.8388672,8.5234375 L45.512207,8.5234375 L45.512207,12.9736328 Z M51.2578125,12.2182617 L49.3847656,12.2182617 L48.9404297,13.5 L48.253418,13.5 L50.0478516,8.5234375 L50.6254883,8.5234375 L52.3823242,13.5 L51.6953125,13.5 L51.2578125,12.2182617 Z M49.5795898,11.6542969 L51.0664062,11.6542969 L50.3417969,9.51806641 L50.3212891,9.51806641 L49.5795898,11.6542969 Z M53.1137695,13.5 L53.1137695,8.5234375 L54.7373047,8.5234375 C55.2568385,8.5234375 55.6635727,8.63565969 55.9575195,8.86010742 C56.2514663,9.08455516 56.3984375,9.42122171 56.3984375,9.87011719 C56.3984375,10.084311 56.3323574,10.276285 56.2001953,10.4460449 C56.0680332,10.6158049 55.8925792,10.7451167 55.6738281,10.8339844 C55.9996761,10.8795575 56.2577302,11.0208321 56.447998,11.2578125 C56.6382659,11.4947929 56.7333984,11.7739242 56.7333984,12.0952148 C56.7333984,12.5509463 56.5852879,12.899006 56.2890625,13.1394043 C55.9928371,13.3798026 55.5917994,13.5 55.0859375,13.5 L53.1137695,13.5 Z M53.7871094,11.1655273 L53.7871094,12.9736328 L55.0859375,12.9736328 C55.3935562,12.9736328 55.632242,12.8978686 55.802002,12.7463379 C55.9717619,12.5948072 56.0566406,12.380047 56.0566406,12.1020508 C56.0566406,11.8263333 55.9700529,11.6041675 55.796875,11.4355469 C55.6236971,11.2669262 55.3901382,11.1769206 55.0961914,11.1655273 L55.0517578,11.1655273 L53.7871094,11.1655273 Z M53.7871094,10.6391602 L54.8774414,10.6391602 C55.1280937,10.6391602 55.3320305,10.5702318 55.4892578,10.432373 C55.6464852,10.2945143 55.7250977,10.1025403 55.7250977,9.85644531 C55.7250977,9.58756376 55.6402189,9.38647528 55.470459,9.25317383 C55.300699,9.11987238 55.0563167,9.05322266 54.7373047,9.05322266 L53.7871094,9.05322266 L53.7871094,10.6391602 Z M58.2373047,12.9736328 L60.6640625,12.9736328 L60.6640625,13.5 L57.5639648,13.5 L57.5639648,8.5234375 L58.2373047,8.5234375 L58.2373047,12.9736328 Z M64.1298828,11.1928711 L62.0859375,11.1928711 L62.0859375,12.9736328 L64.4785156,12.9736328 L64.4785156,13.5 L61.4125977,13.5 L61.4125977,8.5234375 L64.440918,8.5234375 L64.440918,9.05322266 L62.0859375,9.05322266 L62.0859375,10.6630859 L64.1298828,10.6630859 L64.1298828,11.1928711 Z M69.7866211,11.2988281 L67.6879883,11.2988281 L67.6879883,13.5 L67.0146484,13.5 L67.0146484,8.5234375 L70.1352539,8.5234375 L70.1352539,9.05322266 L67.6879883,9.05322266 L67.6879883,10.769043 L69.7866211,10.769043 L69.7866211,11.2988281 Z M74.6777344,11.4560547 C74.6777344,12.0644562 74.4891783,12.5691712 74.1120605,12.9702148 C73.7349428,13.3712585 73.2456085,13.5717773 72.644043,13.5717773 C72.0629854,13.5717773 71.5907407,13.3712585 71.2272949,12.9702148 C70.8638491,12.5691712 70.6821289,12.0644562 70.6821289,11.4560547 L70.6821289,10.5708008 C70.6821289,9.96467796 70.8638491,9.45996295 71.2272949,9.05664062 C71.5907407,8.6533183 72.0629854,8.45166016 72.644043,8.45166016 C73.2456085,8.45166016 73.7349428,8.65274864 74.1120605,9.05493164 C74.4891783,9.45711464 74.6777344,9.9623993 74.6777344,10.5708008 L74.6777344,11.4560547 Z M74.0043945,10.5639648 C74.0043945,10.1082334 73.8813489,9.73453922 73.6352539,9.44287109 C73.3891589,9.15120297 73.0587586,9.00537109 72.644043,9.00537109 C72.2521139,9.00537109 71.9393729,9.15120297 71.7058105,9.44287109 C71.4722482,9.73453922 71.3554688,10.1082334 71.3554688,10.5639648 L71.3554688,11.4560547 C71.3554688,11.9163434 71.4722482,12.2923162 71.7058105,12.5839844 C71.9393729,12.8756525 72.2521139,13.0214844 72.644043,13.0214844 C73.0610372,13.0214844 73.3920072,12.8762222 73.6369629,12.5856934 C73.8819185,12.2951646 74.0043945,11.9186221 74.0043945,11.4560547 L74.0043945,10.5639648 Z M76.3217773,11.3432617 L76.3217773,13.5 L75.6484375,13.5 L75.6484375,8.52685547 L77.3505859,8.52685547 C77.895185,8.52685547 78.3110337,8.64762249 78.5981445,8.88916016 C78.8852553,9.13069782 79.0288086,9.48160577 79.0288086,9.94189453 C79.0288086,10.1971041 78.9621589,10.4192699 78.8288574,10.6083984 C78.695556,10.797527 78.5013034,10.9479161 78.2460938,11.0595703 C78.5195326,11.1484379 78.7160639,11.2925609 78.8356934,11.4919434 C78.9553229,11.6913259 79.0151367,11.9379868 79.0151367,12.2319336 L79.0151367,12.7001953 C79.0151367,12.855144 79.0322264,12.99414 79.0664062,13.1171875 C79.1005861,13.240235 79.1598303,13.3404944 79.2441406,13.4179688 L79.2441406,13.5 L78.550293,13.5 C78.4614253,13.4225257 78.4044598,13.3085945 78.3793945,13.1582031 C78.3543293,13.0078117 78.3417969,12.8528654 78.3417969,12.6933594 L78.3417969,12.2387695 C78.3417969,11.969888 78.2631844,11.7534188 78.105957,11.5893555 C77.9487297,11.4252921 77.7379571,11.3432617 77.4736328,11.3432617 L76.3217773,11.3432617 Z M76.3217773,10.8134766 L77.2822266,10.8134766 C77.6627623,10.8134766 77.9367667,10.7411303 78.104248,10.5964355 C78.2717294,10.4517408 78.3554688,10.231284 78.3554688,9.93505859 C78.3554688,9.65478375 78.274008,9.43774491 78.111084,9.28393555 C77.94816,9.13012618 77.6946632,9.05322266 77.3505859,9.05322266 L76.3217773,9.05322266 L76.3217773,10.8134766 Z" id="AVAILABLE-FOR" fill="#FFFFFF"></path>
            <path d="M36.4765625,25.1210938 L36.5117188,25.1210938 L37.765625,18.96875 L39.265625,18.96875 L37.2382812,27.5 L35.9433594,27.5 L34.2382812,21.4296875 L34.203125,21.4296875 L32.4921875,27.5 L31.1914062,27.5 L29.1699219,18.96875 L30.6640625,18.96875 L31.9296875,25.1152344 L31.9648438,25.1152344 L33.5878906,18.96875 L34.8417969,18.96875 L36.4765625,25.1210938 Z M41.703125,27.5 L40.2792969,27.5 L40.2792969,21.1601562 L41.703125,21.1601562 L41.703125,27.5 Z M41.703125,19.6074219 L40.2792969,19.6074219 L40.2792969,18.359375 L41.703125,18.359375 L41.703125,19.6074219 Z M44.5859375,21.1601562 L44.6679688,22.0742188 C44.875001,21.7499984 45.1357406,21.4970712 45.4501953,21.3154297 C45.76465,21.1337882 46.1191387,21.0429688 46.5136719,21.0429688 C47.1738314,21.0429688 47.6884747,21.2460917 48.0576172,21.6523438 C48.4267597,22.0585958 48.6113281,22.6933551 48.6113281,23.5566406 L48.6113281,27.5 L47.1875,27.5 L47.1875,23.5683594 C47.1875,23.0761694 47.0917978,22.7265635 46.9003906,22.5195312 C46.7089834,22.312499 46.4199238,22.2089844 46.0332031,22.2089844 C45.7285141,22.2089844 45.4648449,22.266601 45.2421875,22.3818359 C45.0195301,22.4970709 44.8417975,22.656249 44.7089844,22.859375 L44.7089844,27.5 L43.2851562,27.5 L43.2851562,21.1601562 L44.5859375,21.1601562 Z M49.8300781,24.4179688 C49.8300781,23.4062449 50.0468728,22.5908234 50.4804688,21.9716797 C50.9140647,21.352536 51.5234336,21.0429688 52.3085938,21.0429688 C52.6523455,21.0429688 52.9599596,21.112304 53.2314453,21.2509766 C53.502931,21.3896491 53.7382803,21.5878893 53.9375,21.8457031 L53.9375,18.359375 L55.3613281,18.359375 L55.3613281,27.5 L54.2070312,27.5 L54.0371094,26.6972656 C53.8339834,26.9980484 53.5878921,27.2275383 53.2988281,27.3857422 C53.0097642,27.5439461 52.6757831,27.6230469 52.296875,27.6230469 C51.5195274,27.6230469 50.9140647,27.3398466 50.4804688,26.7734375 C50.0468728,26.2070284 49.8300781,25.4628952 49.8300781,24.5410156 L49.8300781,24.4179688 Z M51.2539062,24.5410156 C51.2539062,25.1269561 51.3662098,25.5937483 51.5908203,25.9414062 C51.8154308,26.2890642 52.1718726,26.4628906 52.6601562,26.4628906 C52.960939,26.4628906 53.2158193,26.3984381 53.4248047,26.2695312 C53.6337901,26.1406244 53.8046868,25.9570324 53.9375,25.71875 L53.9375,22.953125 C53.8046868,22.7187488 53.6328136,22.5361335 53.421875,22.4052734 C53.2109364,22.2744134 52.9609389,22.2089844 52.671875,22.2089844 C52.1874976,22.2089844 51.8300793,22.4130839 51.5996094,22.8212891 C51.3691395,23.2294942 51.2539062,23.7617155 51.2539062,24.4179688 L51.2539062,24.5410156 Z M56.6269531,24.2714844 C56.6269531,23.3261671 56.8857396,22.5517608 57.4033203,21.9482422 C57.920901,21.3447235 58.6289018,21.0429688 59.5273438,21.0429688 C60.4375046,21.0429688 61.1513646,21.3447235 61.6689453,21.9482422 C62.186526,22.5517608 62.4453125,23.3261671 62.4453125,24.2714844 L62.4453125,24.3945312 C62.4453125,25.347661 62.186526,26.1240204 61.6689453,26.7236328 C61.1513646,27.3232452 60.4414108,27.6230469 59.5390625,27.6230469 C58.632808,27.6230469 57.920901,27.3222686 57.4033203,26.7207031 C56.8857396,26.1191376 56.6269531,25.3437547 56.6269531,24.3945312 L56.6269531,24.2714844 Z M58.0507812,24.3945312 C58.0507812,25.0156281 58.1718738,25.5195293 58.4140625,25.90625 C58.6562512,26.2929707 59.0312475,26.4863281 59.5390625,26.4863281 C60.0351587,26.4863281 60.4072253,26.2919941 60.6552734,25.9033203 C60.9033216,25.5146465 61.0273438,25.0117218 61.0273438,24.3945312 L61.0273438,24.2714844 C61.0273438,23.6660126 60.9033216,23.1669942 60.6552734,22.7744141 C60.4072253,22.381834 60.0312525,22.1855469 59.5273438,22.1855469 C59.0312475,22.1855469 58.661134,22.381834 58.4169922,22.7744141 C58.1728503,23.1669942 58.0507812,23.6660126 58.0507812,24.2714844 L58.0507812,24.3945312 Z M69.2714844,25.6191406 L69.3066406,25.6191406 L70.2324219,21.1601562 L71.65625,21.1601562 L69.921875,27.5 L68.7558594,27.5 L67.4140625,23.3046875 L67.3789062,23.3046875 L66.0546875,27.5 L64.8886719,27.5 L63.1542969,21.1601562 L64.578125,21.1601562 L65.5273438,25.5605469 L65.5625,25.5605469 L66.8867188,21.1601562 L67.9238281,21.1601562 L69.2714844,25.6191406 Z M76.2148438,25.765625 C76.2148438,25.5468739 76.1220712,25.3662117 75.9365234,25.2236328 C75.7509756,25.081054 75.4003932,24.9531256 74.8847656,24.8398438 C74.1386681,24.6874992 73.5683613,24.4628921 73.1738281,24.1660156 C72.7792949,23.8691391 72.5820312,23.4707056 72.5820312,22.9707031 C72.5820312,22.4394505 72.8066384,21.9853534 73.2558594,21.6083984 C73.7050804,21.2314434 74.2968713,21.0429688 75.03125,21.0429688 C75.7890663,21.0429688 76.3994117,21.2373027 76.8623047,21.6259766 C77.3251976,22.0146504 77.5468751,22.4824191 77.5273438,23.0292969 L77.515625,23.0644531 L76.1503906,23.0644531 C76.1503906,22.8066393 76.0488291,22.5830088 75.8457031,22.3935547 C75.6425771,22.2041006 75.3710954,22.109375 75.03125,22.109375 C74.6874983,22.109375 74.4257821,22.1874992 74.2460938,22.34375 C74.0664054,22.5000008 73.9765625,22.6914051 73.9765625,22.9179688 C73.9765625,23.1328136 74.060546,23.3046869 74.2285156,23.4335938 C74.3964852,23.5625006 74.7421849,23.6777339 75.265625,23.7792969 C76.0429726,23.9355477 76.6289043,24.1650375 77.0234375,24.4677734 C77.4179707,24.7705093 77.6152344,25.1757787 77.6152344,25.6835938 C77.6152344,26.2539091 77.3798852,26.7197248 76.9091797,27.0810547 C76.4384742,27.4423846 75.8183632,27.6230469 75.0488281,27.6230469 C74.2246053,27.6230469 73.5742211,27.4121115 73.0976562,26.9902344 C72.6210914,26.5683573 72.3945311,26.0839871 72.4179688,25.5371094 L72.4296875,25.5019531 L73.7539062,25.5019531 C73.7695313,25.8691425 73.9023425,26.1367179 74.1523438,26.3046875 C74.402345,26.4726571 74.7070295,26.5566406 75.0664062,26.5566406 C75.4296893,26.5566406 75.7119131,26.4843757 75.9130859,26.3398438 C76.1142588,26.1953118 76.2148438,26.0039074 76.2148438,25.765625 L76.2148438,25.765625 Z M83.4511719,24.265625 L83.4511719,27.5 L82.0273438,27.5 L82.0273438,18.96875 L85.296875,18.96875 C86.238286,18.96875 86.9755833,19.2119116 87.5087891,19.6982422 C88.0419949,20.1845727 88.3085938,20.8242148 88.3085938,21.6171875 C88.3085938,22.4179728 88.0419949,23.0595679 87.5087891,23.5419922 C86.9755833,24.0244165 86.238286,24.265625 85.296875,24.265625 L83.4511719,24.265625 Z M83.4511719,23.1230469 L85.296875,23.1230469 C85.8242214,23.1230469 86.2207018,22.9824233 86.4863281,22.7011719 C86.7519545,22.4199205 86.8847656,22.0625022 86.8847656,21.6289062 C86.8847656,21.1953103 86.7519545,20.8339858 86.4863281,20.5449219 C86.2207018,20.2558579 85.8242214,20.1113281 85.296875,20.1113281 L83.4511719,20.1113281 L83.4511719,23.1230469 Z M90.9277344,21.9804688 C91.1386729,21.6835923 91.3955063,21.4531258 91.6982422,21.2890625 C92.0009781,21.1249992 92.3359357,21.0429688 92.703125,21.0429688 C93.3750034,21.0429688 93.8994122,21.2548807 94.2763672,21.6787109 C94.6533222,22.1025412 94.8417969,22.755855 94.8417969,23.6386719 L94.8417969,27.5 L93.4179688,27.5 L93.4179688,23.6269531 C93.4179688,23.1308569 93.32129,22.7705089 93.1279297,22.5458984 C92.9345693,22.3212879 92.6464863,22.2089844 92.2636719,22.2089844 C91.9589829,22.2089844 91.6953136,22.2626948 91.4726562,22.3701172 C91.2499989,22.4775396 91.0683601,22.6269522 90.9277344,22.8183594 L90.9277344,27.5 L89.5039062,27.5 L89.5039062,18.359375 L90.9277344,18.359375 L90.9277344,21.9804688 Z M96.0546875,24.2714844 C96.0546875,23.3261671 96.313474,22.5517608 96.8310547,21.9482422 C97.3486354,21.3447235 98.0566361,21.0429688 98.9550781,21.0429688 C99.8652389,21.0429688 100.579099,21.3447235 101.09668,21.9482422 C101.61426,22.5517608 101.873047,23.3261671 101.873047,24.2714844 L101.873047,24.3945312 C101.873047,25.347661 101.61426,26.1240204 101.09668,26.7236328 C100.579099,27.3232452 99.8691451,27.6230469 98.9667969,27.6230469 C98.0605423,27.6230469 97.3486354,27.3222686 96.8310547,26.7207031 C96.313474,26.1191376 96.0546875,25.3437547 96.0546875,24.3945312 L96.0546875,24.2714844 Z M97.4785156,24.3945312 C97.4785156,25.0156281 97.5996082,25.5195293 97.8417969,25.90625 C98.0839856,26.2929707 98.4589818,26.4863281 98.9667969,26.4863281 C99.4628931,26.4863281 99.8349597,26.2919941 100.083008,25.9033203 C100.331056,25.5146465 100.455078,25.0117218 100.455078,24.3945312 L100.455078,24.2714844 C100.455078,23.6660126 100.331056,23.1669942 100.083008,22.7744141 C99.8349597,22.381834 99.4589869,22.1855469 98.9550781,22.1855469 C98.4589819,22.1855469 98.0888684,22.381834 97.8447266,22.7744141 C97.6005847,23.1669942 97.4785156,23.6660126 97.4785156,24.2714844 L97.4785156,24.3945312 Z M104.404297,21.1601562 L104.486328,22.0742188 C104.69336,21.7499984 104.9541,21.4970712 105.268555,21.3154297 C105.583009,21.1337882 105.937498,21.0429688 106.332031,21.0429688 C106.992191,21.0429688 107.506834,21.2460917 107.875977,21.6523438 C108.245119,22.0585958 108.429688,22.6933551 108.429688,23.5566406 L108.429688,27.5 L107.005859,27.5 L107.005859,23.5683594 C107.005859,23.0761694 106.910157,22.7265635 106.71875,22.5195312 C106.527343,22.312499 106.238283,22.2089844 105.851562,22.2089844 C105.546873,22.2089844 105.283204,22.266601 105.060547,22.3818359 C104.83789,22.4970709 104.660157,22.656249 104.527344,22.859375 L104.527344,27.5 L103.103516,27.5 L103.103516,21.1601562 L104.404297,21.1601562 Z M112.601562,27.6230469 C111.675777,27.6230469 110.952151,27.3310576 110.430664,26.7470703 C109.909177,26.163083 109.648438,25.4062546 109.648438,24.4765625 L109.648438,24.2421875 C109.648438,23.3124954 109.909177,22.5459015 110.430664,21.9423828 C110.952151,21.3388642 111.624996,21.0390625 112.449219,21.0429688 C113.300786,21.0429688 113.94531,21.3056614 114.382812,21.8310547 C114.820315,22.3564479 115.039062,23.0585894 115.039062,23.9375 L115.039062,24.7050781 L111.119141,24.7050781 L111.107422,24.734375 C111.123047,25.2539088 111.259764,25.6757796 111.517578,26 C111.775392,26.3242204 112.16406,26.4863281 112.683594,26.4863281 C113.070314,26.4863281 113.405272,26.4394536 113.688477,26.3457031 C113.971681,26.2519527 114.234374,26.1171884 114.476562,25.9414062 L114.939453,26.8730469 C114.697264,27.0839854 114.376955,27.261718 113.978516,27.40625 C113.580076,27.550782 113.121096,27.6230469 112.601562,27.6230469 L112.601562,27.6230469 Z M112.449219,22.1855469 C112.078123,22.1855469 111.781251,22.3193346 111.558594,22.5869141 C111.335936,22.8544935 111.197266,23.2031229 111.142578,23.6328125 L111.154297,23.6621094 L113.632812,23.6621094 L113.632812,23.5507812 C113.632812,23.1445292 113.538087,22.8154309 113.348633,22.5634766 C113.159179,22.3115222 112.859377,22.1855469 112.449219,22.1855469 L112.449219,22.1855469 Z" id="Windows-Phone" fill="#FFFFFF"></path>
            <path d="M13.1924466,9.62457751 L13.1924466,17.5390488 L5.00055497,17.5390488 L5,10.751845 L13.1924466,9.62457751 Z M13.1924466,26.376898 L5.00101897,25.251197 L5.00055497,18.5522944 L13.1924466,18.5522944 L13.1924466,26.376898 Z M24.9999909,8 L24.9999909,17.5390488 L14.098682,17.5390488 L14.098682,9.50013616 L24.9999909,8 Z M25,28 L14.098682,26.5013393 L14.098682,18.5519301 L25,18.5519301 L25,28 Z" id="Oval-1" fill="#FFFFFF"></path>
        </g>
    </g>
</svg>