<?xml version="1.0" encoding="UTF-8" standalone="no"?>
<svg width="188px" height="108px" viewBox="0 0 188 108" version="1.1" xmlns="http://www.w3.org/2000/svg" xmlns:xlink="http://www.w3.org/1999/xlink">
    <!-- Generator: Sketch 50.2 (55047) - http://www.bohemiancoding.com/sketch -->
    <title>astronaut-ingravity</title>
    <desc>Created with Sketch.</desc>
    <defs></defs>
    <g id="V1" stroke="none" stroke-width="1" fill="none" fill-rule="evenodd" opacity="0.600000024">
        <g id="404" transform="translate(-59.000000, -120.000000)">
            <g id="astronaut-ingravity" transform="translate(59.500000, 120.000000)">
                <path d="M92.0057095,47.3157127 C92.0992725,47.6046875 92.1755685,47.9018617 92.2325898,48.1986358 C92.3060749,48.5818025 92.6427813,48.8483792 93.0204465,48.8483792 C93.0706413,48.8483792 93.1214384,48.8437796 93.1724362,48.8339805 C93.6081266,48.7509877 93.8936344,48.3318242 93.8103111,47.897862 C93.7408416,47.5368934 93.6480817,47.1759249 93.5344408,46.8247555 C93.3985134,46.4043921 92.9465599,46.1730122 92.5237193,46.3090004 C92.1012803,46.4445886 91.8693806,46.8953493 92.0057095,47.3157127 Z" id="Shape" fill="#494949" fill-rule="nonzero"></path>
                <path d="M83.8221586,41.1428503 C83.8213554,41.5846118 84.1803483,41.9433805 84.6238691,41.9441805 C86.9428664,41.9481801 89.2140784,43.0538838 90.6996422,44.9023229 C90.8582576,45.0995057 91.0915628,45.2022968 91.3272773,45.2022968 C91.5031597,45.2022968 91.6804475,45.1449018 91.8286224,45.026912 C92.1749662,44.7507361 92.2307828,44.2473799 91.9537078,43.9024099 C90.1669755,41.6792036 87.4277477,40.3489194 84.62668,40.3443198 C84.6260776,40.3443198 84.6256761,40.3443198 84.6252745,40.3443198 C84.1823561,40.3443198 83.8229617,40.7014887 83.8221586,41.1428503 Z" id="Shape" fill="#494949" fill-rule="nonzero"></path>
                <path d="M87.3028632,68.1263005 L83.6942623,68.1263005 C83.2507416,68.1263005 82.8911464,68.4844693 82.8911464,68.9262308 C82.8911464,69.3679923 83.2507416,69.7261611 83.6942623,69.7261611 L87.3028632,69.7261611 C87.746384,69.7261611 88.1059791,69.3679923 88.1059791,68.9262308 C88.1059791,68.4844693 87.746384,68.1263005 87.3028632,68.1263005 Z" id="Shape" fill="#494949" fill-rule="nonzero"></path>
                <path d="M140.733566,74.0607837 L138.27061,71.6073973 C136.694495,70.037534 134.238366,69.8665489 132.470105,71.0918422 L130.860862,69.4891818 C131.103001,69.521179 131.266234,69.5423772 131.274868,69.5423772 C131.449345,69.5423772 131.620208,69.4857821 131.760753,69.3795913 C131.930411,69.2510025 132.041643,69.0608191 132.070555,68.8506374 L134.068507,54.2673073 C134.12854,53.8297455 133.821147,53.4263806 133.381642,53.3665858 L129.929046,52.8962267 C127.720477,52.5960529 125.661288,53.9417357 124.997714,55.9831579 L117.203473,54.9242501 C116.651532,54.8490567 116.100795,54.8272586 115.556282,54.8540563 L115.556282,51.3177642 C115.556282,49.6333109 114.897928,48.0516486 113.703895,46.864952 C112.513075,45.6760555 110.925917,45.0211125 109.234555,45.0211125 C107.546204,45.0211125 105.958846,45.6760555 104.764813,46.8657519 C103.570981,48.0554483 102.914032,49.6367106 102.915438,51.3177642 L102.915438,55.5881923 L99.808985,55.5881923 L96.6234256,52.4150686 C96.8563292,51.4699509 96.9824184,50.4834369 96.9824184,49.4677253 C96.9824184,42.6479192 91.412006,37.0996024 84.5650408,37.0996024 C78.3258336,37.0996024 73.1487473,41.7072011 72.2783704,47.6850805 L66.5581769,53.3825844 C65.4920405,54.4444919 64.9047619,55.8565689 64.9047619,57.3586381 C64.9047619,58.8605074 65.4920405,60.2725844 66.5583777,61.3346919 L79.5289014,74.2537669 L79.5289014,75.5924503 C79.5289014,80.4434279 83.491074,84.3898842 88.3611692,84.3898842 L89.6222621,84.3898842 L90.2565229,85.0212292 C93.3535389,88.1059606 97.4201166,89.6478263 101.4881,89.6478263 C105.55528,89.6478263 109.623865,88.1051607 112.719877,85.0212292 L120.662293,77.1391156 L129.14902,85.5993789 C129.305828,85.7555653 129.511426,85.8337585 129.716823,85.8337585 C129.92222,85.8337585 130.128018,85.7555653 130.284626,85.5993789 L140.733566,75.1918852 C141.047183,74.8797124 141.047183,74.3729565 140.733566,74.0607837 Z M121.465409,75.676643 L121.465409,69.6213703 C122.7261,69.4513851 123.94262,68.8858343 124.90917,67.9229182 C125.268564,67.5651493 125.575154,67.1689838 125.830344,66.7412211 L129.302415,70.1993199 L122.634344,76.8409416 L121.465409,75.676643 Z M112.114729,67.844725 L108.617963,64.3618283 L108.850264,62.6685757 C108.851268,62.6611764 108.852673,62.654177 108.853878,62.6469776 C109.322697,62.8757577 109.82083,63.0437431 110.344662,63.1463341 C110.73598,63.2229275 111.128704,63.2607242 111.518817,63.2607242 C112.456455,63.2607242 113.376224,63.0383435 114.217889,62.6133805 L115.66912,64.5152149 C115.2258,64.8193884 114.80577,65.1643584 114.417062,65.5517247 L112.114729,67.844725 Z M115.847613,56.4445177 C115.951214,56.9958697 115.949006,57.5544211 115.839581,58.1087728 C115.612099,59.2616724 114.94752,60.2571857 113.96812,60.9123287 C112.98872,61.5674716 111.812356,61.803851 110.654464,61.5766708 C110.158138,61.4794793 109.693134,61.3032946 109.266679,61.0531164 C109.742526,59.8162241 110.553271,58.7317186 111.63808,57.9101901 C112.868454,56.9784713 114.33153,56.4749151 115.847613,56.4445177 Z M120.662293,62.9747491 C119.409231,62.9747491 118.197128,63.2353264 117.084813,63.7264836 L115.546042,61.7100592 C116.507573,60.8477343 117.161711,59.7046338 117.415696,58.4175459 C117.536565,57.8051993 117.559655,57.1892529 117.489583,56.5779061 L121.931818,57.1814536 L121.137938,62.9883479 C120.980126,62.9797486 120.821711,62.9747491 120.662293,62.9747491 Z M120.662293,64.5746098 C122.068549,64.5746098 123.412563,64.973775 124.566842,65.7153104 C124.359437,66.110676 124.09481,66.4716446 123.773564,66.7916167 C122.051683,68.5064674 119.250013,68.5066673 117.528133,66.7916167 C117.208292,66.4730444 116.945673,66.1156756 116.740276,65.7263095 C117.89857,64.9775747 119.249009,64.5746098 120.662293,64.5746098 Z M130.588003,67.8415253 L129.317674,67.6685403 L131.099789,54.6704722 L132.368712,54.8432572 L130.588003,67.8415253 Z M125.506086,57.6668113 C125.947599,57.7242063 126.350362,57.4200328 126.410194,56.9822709 C126.619405,55.4552039 127.985305,54.3662987 129.507009,54.4642902 L127.857007,66.4972423 L126.907523,65.5515247 C125.737785,64.3864261 124.297396,63.5898955 122.727907,63.216928 L123.523393,57.3972348 L125.506086,57.6668113 Z M110.666109,56.636501 C109.630491,57.4206327 108.799266,58.4013473 108.207169,59.5130505 L104.52187,55.8423702 C104.52187,55.8423702 104.523878,51.1921751 104.526287,51.1299806 L113.945432,51.1299806 C113.947842,51.1925751 113.95005,55.0836363 113.95005,55.0836363 C112.774088,55.3640118 111.657957,55.8855664 110.666109,56.636501 Z M109.234756,46.6211732 C110.49625,46.6211732 111.679641,47.1089307 112.568289,47.9964534 C113.01703,48.4422146 113.363976,48.9629693 113.598085,49.5301199 L104.873234,49.5301199 C105.10694,48.9635692 105.453284,48.4432145 105.901222,47.9968534 C106.791476,47.1097306 107.97547,46.6211732 109.234756,46.6211732 Z M103.601499,57.188053 C103.601499,57.188053 107.513678,61.0763144 107.553031,61.103512 C107.421721,61.5410739 107.322135,61.9912347 107.25909,62.4523946 L107.19203,62.941752 L101.415619,57.188253 L103.601499,57.188253 L103.601499,57.188053 Z M110.979124,68.9760265 L108.506329,71.438812 L94.2309431,57.2202502 C94.9854705,56.2889313 95.60648,55.247022 96.0668662,54.1227199 L110.979124,68.9760265 Z M95.376588,49.4677253 C95.376588,49.8400929 95.357514,50.2080608 95.3201691,50.5708292 C92.6859487,53.1204072 89.1283458,54.1981134 86.0608443,53.4059824 C86.0020161,52.4030697 85.5866043,51.4673512 84.8672132,50.7512135 C84.0899977,49.976881 83.0565883,49.5505181 81.9575241,49.5505181 C81.7812401,49.5505181 81.6073655,49.5655168 81.4352979,49.5871149 C79.9232313,46.3201994 80.9170873,42.0609703 83.9665187,39.0238348 C84.0793565,38.9114446 84.1899857,38.8068537 84.2992094,38.7064624 C84.3879538,38.7042626 84.4762965,38.699663 84.5656432,38.699663 C90.5265707,38.699663 95.376588,43.5302424 95.376588,49.4677253 Z M81.9575241,51.1503788 C82.6275236,51.1503788 83.2577688,51.4103561 83.7316072,51.882315 C84.2054457,52.3542739 84.4664583,52.9820193 84.4664583,53.6495611 C84.4664583,54.317103 84.2054457,54.9446484 83.7316072,55.4166073 C83.2577688,55.8885662 82.6275236,56.1485435 81.9575241,56.1485435 C81.2873238,56.1485435 80.6570785,55.8885662 80.1832401,55.4164073 C79.7094017,54.9446484 79.448389,54.317103 79.448389,53.6495611 C79.448389,52.9820193 79.7094017,52.3542739 80.1832401,51.882315 C80.6570785,51.4103561 81.2873238,51.1503788 81.9575241,51.1503788 Z M81.7890705,39.0612315 C79.142201,42.4013407 78.3987164,46.6681691 79.9045589,50.1002702 C79.5959616,50.2780547 79.3064382,50.493436 79.0476341,50.7514135 C78.2702179,51.5255461 77.8421571,52.5550565 77.8421571,53.6497611 C77.8421571,54.7444658 78.2704186,55.7739761 79.0476341,56.5479087 C79.8248496,57.3222413 80.8582591,57.7486042 81.9575241,57.7486042 C83.056789,57.7486042 84.0899977,57.3222413 84.8672132,56.5481087 C85.3127418,56.1043474 85.6390077,55.5751935 85.840389,54.9994436 C86.5778502,55.1738284 87.3359917,55.2606208 88.1017628,55.2606208 C90.370967,55.2606208 92.703015,54.5100862 94.7387132,53.1104081 C93.236284,57.2608467 89.2437937,60.2363875 84.5656432,60.2363875 C78.6043141,60.2363875 73.7542968,55.4058082 73.7542968,49.4679253 C73.754096,44.4861591 77.1689451,40.285125 81.7890705,39.0612315 Z M79.5289014,64.0960514 L68.8012798,53.4109819 L72.1629225,50.0626735 C72.3912082,54.8422573 75.3571155,58.9171024 79.5287006,60.7689412 L79.5287006,64.0960514 L79.5289014,64.0960514 Z M70.9869599,63.4833048 L73.8147312,60.6667501 L75.0812451,61.9282402 L72.2534738,64.7447949 L70.9869599,63.4833048 Z M66.5109938,57.3586381 C66.5109938,56.2973306 66.9221892,55.3000174 67.6670793,54.5434833 L72.6791253,59.5356486 L69.8513539,62.3522033 L67.6941844,60.2035904 C66.9312243,59.4436566 66.5109938,58.4331446 66.5109938,57.3586381 Z M73.3890798,65.8758964 L76.2168511,63.0593417 L79.5289014,66.3582544 L79.5289014,71.9913639 L73.3890798,65.8758964 Z M81.2459633,76.8393417 C82.7953748,76.1342031 84.6314987,76.4441761 85.8640809,77.6716692 C87.164928,78.9673564 87.4237321,80.9897803 86.5547606,82.5622433 C83.837217,81.8629042 81.7364664,79.6236992 81.2459633,76.8393417 Z M88.2304621,82.7868238 C88.9853911,81.015778 88.7922417,78.9863547 87.6983978,77.3840943 L91.7007262,73.3974414 L96.4595899,73.3974414 C96.5226345,73.3974414 96.5850768,73.3998412 96.6477198,73.402241 L96.6477198,82.7854239 C96.5852775,82.7876237 88.2740312,82.7876237 88.2304621,82.7868238 Z M101.174684,78.0938325 C101.174684,80.050862 99.9663958,81.7313157 98.2539518,82.4358544 L98.2539518,73.7514106 C99.966195,74.4561492 101.174684,76.1368029 101.174684,78.0938325 Z M111.584271,83.8901277 C106.189741,89.2626599 97.5176952,89.4294453 91.9201777,84.3898842 L96.4595899,84.3898842 C99.9451132,84.3898842 102.780715,81.5655301 102.780715,78.0938325 C102.780715,74.6221348 99.9451132,71.7975808 96.4595899,71.7975808 L92.1713522,71.7975808 L92.1713522,62.9263533 C92.1713522,62.4845918 91.811757,62.126423 91.3682362,62.126423 C90.9247154,62.126423 90.5651202,62.4845918 90.5651202,62.9263533 L90.5651202,72.2663399 L86.6202146,76.1955978 C85.0786335,74.9093098 83.0027795,74.539342 81.1351333,75.1652875 L81.1351333,61.3522904 C82.225564,61.6648631 83.3754253,61.8360482 84.5654424,61.8360482 C87.8901417,61.8360482 90.911464,60.5253624 93.1425202,58.3985476 L107.370523,72.5699135 L105.424773,74.5079447 C105.110956,74.8203175 105.110956,75.3268734 105.424773,75.6390462 C105.738189,75.951619 106.247164,75.951619 106.560379,75.6390462 L115.479384,66.7556198 C115.732165,67.1767832 116.035943,67.5679491 116.392125,67.9227182 C117.364899,68.8916338 118.590454,69.4577845 119.859177,69.62397 L119.859177,75.676643 L111.584271,83.8901277 Z M123.770151,77.9718431 L130.438222,71.3304214 L131.852108,72.7386988 C132.165925,73.0512716 132.674498,73.0512716 132.987714,72.7386988 C134.081758,71.6493937 135.830142,71.6051975 136.981007,72.6001109 L127.675101,81.8689037 L123.770151,77.9718431 Z M129.716823,83.9025266 L128.810707,83.0000052 L138.124042,73.723813 L139.029957,74.6263344 L129.716823,83.9025266 Z" id="Shape" fill="#494949" fill-rule="nonzero"></path>
                <g id="Group-2" stroke="#D3D3D3" stroke-linecap="round" stroke-width="2">
                    <path d="M0.996031996,57.996032 L23.7705479,80.7705479" id="Path-3"></path>
                    <path d="M154.996032,29.496032 L186.5,61" id="Path-3-Copy-12"></path>
                    <path d="M86.4785137,0.97851367 L109.759866,24.2598664" id="Path-3-Copy-7"></path>
                    <path d="M123,37 L128.85235,42.85235" id="Path-3-Copy-8"></path>
                    <path d="M130,4 L135.85235,9.85234996" id="Path-3-Copy-14"></path>
                    <path d="M39,96.5 L49.006248,106.506248" id="Path-3-Copy"></path>
                    <path d="M33,58 L43.006248,68.006248" id="Path-3-Copy-2"></path>
                    <path d="M48,48 L58.006248,58.006248" id="Path-3-Copy-5"></path>
                    <path d="M149,90 L159.006248,100.006248" id="Path-3-Copy-11"></path>
                    <path d="M149,61 L159.006248,71.006248" id="Path-3-Copy-9"></path>
                    <path d="M52,22 L65.5369864,35.5369864" id="Path-3-Copy-6"></path>
                    <path d="M23.9587036,48.9587036 L27.006248,52.006248" id="Path-3-Copy-4"></path>
                    <path d="M143.958704,17.9587036 L147.006248,21.006248" id="Path-3-Copy-13"></path>
                    <path d="M127.958704,96.9587036 L131.006248,100.006248" id="Path-3-Copy-10"></path>
                    <path d="M48,74 L75.5,101.5" id="Path-3-Copy-3"></path>
                </g>
            </g>
        </g>
    </g>
</svg>