<?xml version="1.0" encoding="UTF-8" standalone="no"?>
<svg width="9px" height="8px" viewBox="0 0 9 8" version="1.1" xmlns="http://www.w3.org/2000/svg" xmlns:xlink="http://www.w3.org/1999/xlink">
    <!-- Generator: Sketch 50.2 (55047) - http://www.bohemiancoding.com/sketch -->
    <title>Shape</title>
    <desc>Created with Sketch.</desc>
    <defs></defs>
    <g id="V1" stroke="none" stroke-width="1" fill="none" fill-rule="evenodd">
        <g id="Headlines_No-Internet" transform="translate(-297.000000, -697.000000)" fill="#FFFFFF">
            <g id="Language---Call-Out" transform="translate(4.000000, 686.000000)">
                <path d="M300.242003,11.2219513 L297.534068,13.9297129 L294.826134,11.2219513 C294.530516,10.9263336 294.051515,10.9263336 293.755897,11.2219513 C293.460279,11.517396 293.460279,11.9966856 293.755897,12.2921303 L296.463485,14.9998918 L293.755551,17.7077111 C293.459933,18.003098 293.459933,18.4822145 293.755551,18.7779477 C293.903331,18.9257854 294.097043,18.9996466 294.29064,18.9996466 C294.484237,18.9996466 294.677892,18.9257854 294.825614,18.7779477 L297.534068,16.0698976 L300.242003,18.7780631 C300.389841,18.9259008 300.58338,18.999762 300.776977,18.999762 C300.970516,18.999762 301.164229,18.9259585 301.312009,18.7780631 C301.607627,18.4826762 301.607627,18.0033288 301.312009,17.7079419 L298.60419,14.9998918 L301.312124,12.2921303 C301.607742,11.9966856 301.607742,11.5175691 301.312124,11.2219513 C301.016506,10.9263336 300.537621,10.9263336 300.242003,11.2219513 Z" id="Shape"></path>
            </g>
        </g>
    </g>
</svg>