<?xml version="1.0" encoding="UTF-8" standalone="no"?>
<svg width="60px" height="60px" viewBox="0 0 60 60" version="1.1" xmlns="http://www.w3.org/2000/svg" xmlns:xlink="http://www.w3.org/1999/xlink">
    <!-- Generator: Sketch 50.2 (55047) - http://www.bohemiancoding.com/sketch -->
    <title>exclamation-mark-inside-a-circle</title>
    <desc>Created with Sketch.</desc>
    <defs></defs>
    <g id="V1" stroke="none" stroke-width="1" fill="none" fill-rule="evenodd">
        <g id="Something-went-bad" transform="translate(-130.000000, -160.000000)" fill="#BEBEBE" fill-rule="nonzero">
            <g id="exclamation-mark-inside-a-circle" transform="translate(130.000000, 160.000000)">
                <path d="M29.9909951,0 C13.4454812,0 0.0363132137,13.409168 0.0363132137,29.9546819 C0.0363132137,46.5001958 13.4454812,59.9819902 29.9909951,59.9819902 C46.536509,59.9819902 59.945677,46.4929527 59.945677,30.0273083 C59.945677,13.4817945 46.536509,0 29.9909951,0 Z M29.9909951,57.0780098 C15.0934747,57.0780098 2.94029364,44.9248287 2.94029364,30.0273083 C2.94029364,15.1297879 15.0934747,2.89673736 29.9909951,2.89673736 C44.8885155,2.89673736 57.0416966,15.0499184 57.0416966,30.0273083 C57.0416966,45.0046982 44.8885155,57.0780098 29.9909951,57.0780098 Z M31.4792496,42.2603589 C31.4792496,43.1243393 30.7750082,43.8284829 29.9111256,43.8284829 C29.0471452,43.8284829 28.3430016,43.1242414 28.3430016,42.2603589 C28.3430016,41.3963785 29.0472431,40.6922349 29.9111256,40.6922349 C30.7750082,40.6922349 31.4792496,41.3964763 31.4792496,42.2603589 Z M28.4228711,34.5720392 L28.4228711,16.9302773 C28.4228711,16.1461664 29.0472431,15.5217945 29.831354,15.5217945 C30.6154649,15.5217945 31.2398369,16.1461664 31.2398369,16.9302773 L31.2398369,34.5720392 C31.2398369,35.3561501 30.6154649,35.980522 29.831354,35.980522 C29.0472431,36.0676346 28.4228711,35.3561501 28.4228711,34.5720392 Z" id="Shape"></path>
            </g>
        </g>
    </g>
</svg>