<?xml version="1.0" encoding="UTF-8" standalone="no"?>
<svg width="45px" height="60px" viewBox="0 0 45 60" version="1.1" xmlns="http://www.w3.org/2000/svg" xmlns:xlink="http://www.w3.org/1999/xlink">
    <!-- Generator: Sketch 50.2 (55047) - http://www.bohemiancoding.com/sketch -->
    <title>file</title>
    <desc>Created with Sketch.</desc>
    <defs></defs>
    <g id="V1" stroke="none" stroke-width="1" fill="none" fill-rule="evenodd">
        <g id="Server-error" transform="translate(-137.000000, -152.000000)" fill="#BEBEBE" fill-rule="nonzero">
            <g id="Group-2" transform="translate(68.000000, 152.000000)">
                <g id="file" transform="translate(69.000000, 0.000000)">
                    <path d="M34.8636281,19.3002339 L10.0481895,19.3002339 C9.27392047,19.3002339 8.64608421,19.9279532 8.64608421,20.7023392 C8.64608421,21.4767251 9.27380351,22.1044444 10.0481895,22.1044444 L34.8636281,22.1044444 C35.638014,22.1044444 36.2657333,21.4766082 36.2657333,20.7023392 C36.2657333,19.9279532 35.638014,19.3002339 34.8636281,19.3002339 Z" id="Shape"></path>
                    <path d="M34.8636281,27.7608187 L10.0481895,27.7608187 C9.27392047,27.7608187 8.64608421,28.388655 8.64608421,29.162924 C8.64608421,29.9373099 9.27380351,30.5650292 10.0481895,30.5650292 L34.8636281,30.5650292 C35.638014,30.5650292 36.2657333,29.937193 36.2657333,29.162924 C36.2657333,28.388655 35.638014,27.7608187 34.8636281,27.7608187 Z" id="Shape"></path>
                    <path d="M44.9046199,12.2150877 C44.8950292,11.8632749 44.7553801,11.519883 44.4965497,11.2609357 L33.7725731,0.536959064 C33.5180702,0.278011696 33.164386,0.116842105 32.7725731,0.116842105 L2.95701754,0.116842105 C1.32894737,0.116842105 0.00415204678,1.44140351 0.00415204678,3.06982456 L0.00473684211,38.0818713 C0.00473684211,38.094269 0.00625730994,38.1060819 0.00660818713,38.1184795 C0.0257894737,38.8278363 0.392923977,39.4707602 0.998888889,39.8470175 L5.83538012,42.8490058 C7.43175439,43.8395322 9.41491228,43.8395322 11.0110526,42.8488889 L14.3304678,40.7887719 C15.0145614,40.3640936 15.8645029,40.3642105 16.5485965,40.788655 L19.8680117,42.8488889 C20.6661404,43.3444444 21.5608772,43.5921637 22.455848,43.5920468 C23.3507018,43.5920468 24.2457895,43.3443275 25.0436842,42.8488889 L28.3630994,40.788655 C29.047193,40.3642105 29.8971345,40.3642105 30.5812281,40.788655 L33.9006433,42.8488889 C35.4965497,43.8397661 37.4795906,43.8397661 39.0763158,42.8488889 L43.9131579,39.8469006 C44.5188889,39.4708772 44.8859064,38.8278363 44.9052047,38.1185965 C44.9054386,38.1064327 44.907076,38.094386 44.907076,38.0819883 L44.9076608,12.2521637 C44.9077778,12.2385965 44.9056725,12.2272515 44.9046199,12.2150877 Z M34.1743275,4.90467836 L34.1744444,4.90467836 L40.1199415,10.8501754 L34.3219298,10.8501754 C34.2406433,10.8501754 34.1743275,10.7838596 34.1743275,10.7025731 L34.1743275,4.90467836 Z M42.1029825,37.6701754 L37.5977193,40.4664327 C36.9136257,40.8911111 36.0636842,40.8909942 35.3795906,40.4665497 L32.0601754,38.4061988 C30.4638012,37.4156725 28.4806433,37.4157895 26.8845029,38.4063158 L23.5650877,40.4665497 C22.8809942,40.8909942 22.0310526,40.8909942 21.3469591,40.4665497 L18.0275439,38.4063158 C16.4315205,37.4154386 14.4483626,37.4154386 12.8518713,38.4063158 L9.53245614,40.4665497 C8.84836257,40.8909942 7.99842105,40.8909942 7.31432749,40.4665497 L2.80906433,37.6701754 L2.80836257,3.06994152 C2.80836257,2.98795322 2.8751462,2.92116959 2.95701754,2.92116959 L31.3702339,2.92116959 L31.3702339,10.7026901 C31.3702339,12.3302924 32.6943275,13.6545029 34.3220468,13.6545029 L42.1035673,13.6545029 L42.1029825,37.6701754 Z" id="Shape"></path>
                    <path d="M44.9074877,46.4266667 C44.9076047,46.4230409 44.9070199,46.4195322 44.9070199,46.4159064 C44.9070199,46.4122807 44.9076047,46.4087719 44.9076047,46.4051462 C44.9076047,45.6424561 44.4934526,44.9380117 43.826669,44.5672515 C43.1600023,44.1967251 42.3433942,44.2160234 41.695324,44.6182456 L37.5502947,47.1906433 C36.8955579,47.5968421 36.0819906,47.5968421 35.4274877,47.1907602 L32.0126339,45.071345 C30.4457333,44.0985965 28.4989497,44.0985965 26.932283,45.071345 L23.5174292,47.1906433 C22.8626924,47.5968421 22.0492421,47.5968421 21.3945053,47.1907602 L17.9796515,45.071345 C16.4128678,44.0988304 14.4659673,44.0988304 12.8993006,45.071345 L9.4846807,47.1906433 C8.82994386,47.5968421 8.01637661,47.5969591 7.36187368,47.1906433 L3.2169614,44.6182456 C2.56889123,44.2161404 1.75228304,44.1962573 1.08549942,44.5672515 C0.418832749,44.9381287 0.00456374266,45.6423392 0.00456374266,46.4051462 C0.00456374266,46.4087719 0.00514853798,46.4122807 0.00514853798,46.4159064 C0.00514853798,46.4195322 0.00456374266,46.4230409 0.00456374266,46.4266667 L0.00397894733,57.0470175 C0.00397894733,58.6753216 1.32854035,60 2.95684444,60 L41.9549731,60 C43.5830433,60 44.9078386,58.6754386 44.9078386,57.0469006 L44.9074877,46.4266667 Z M41.955324,57.1957895 L2.95742924,57.1957895 C2.87555789,57.1957895 2.80877427,57.1290058 2.80877427,57.0471345 L2.80924211,47.6652632 L5.88351111,49.5733333 C7.45052865,50.5454971 9.39719532,50.5454971 10.963745,49.5732164 L14.3783649,47.4538012 C15.0329848,47.0474854 15.8463181,47.0476023 16.5012889,47.4538012 L19.9159088,49.5733333 C20.6994175,50.0594152 21.5777801,50.3025731 22.4561427,50.3025731 C23.3343883,50.3025731 24.2128678,50.0594152 24.9963766,49.5732164 L28.4109965,47.4538012 C29.0656164,47.0474854 29.8789497,47.0473684 30.5339205,47.4538012 L33.9487743,49.5733333 C35.5160257,50.545731 37.4624585,50.5454971 39.0290082,49.5733333 L42.1032772,47.6652632 L42.103745,57.0470175 C42.1039789,57.1290058 42.0373123,57.1957895 41.955324,57.1957895 Z" id="Shape"></path>
                </g>
            </g>
        </g>
    </g>
</svg>